{"glyphs":{"0":{"ha":625,"x_min":63,"x_max":563,"o":"m 310 -11 q 122 89 181 -11 q 63 411 63 189 q 124 727 63 621 q 324 833 186 833 q 466 788 414 833 q 540 651 518 743 q 563 411 563 560 q 502 94 563 200 q 310 -11 442 -11 m 307 22 q 478 121 426 22 q 529 417 529 219 q 510 635 529 551 q 447 759 492 718 q 325 800 401 800 q 151 699 206 800 q 96 399 96 599 q 148 113 96 203 q 307 22 200 22 z "},"1":{"ha":625,"x_min":63,"x_max":563,"o":"m 63 33 l 306 33 l 328 796 l 121 754 q 119 768 121 758 q 117 788 117 778 l 347 835 q 356 833 353 835 q 361 831 360 832 l 343 33 l 490 33 q 538 35 519 33 q 563 36 557 36 l 563 0 l 63 0 l 63 33 z "},"2":{"ha":625,"x_min":63,"x_max":561,"o":"m 67 0 q 64 7 65 1 q 63 21 63 13 q 66 35 63 29 q 75 47 69 40 q 93 72 86 61 q 163 165 124 121 q 264 275 201 210 q 385 410 339 354 q 461 530 431 465 q 492 664 492 594 q 461 766 492 732 q 340 800 431 800 q 99 740 183 800 q 94 768 94 757 q 124 793 94 778 q 208 821 154 808 q 332 833 263 833 q 453 813 411 833 q 510 756 496 793 q 525 658 525 719 q 492 515 525 583 q 412 387 460 446 q 282 242 364 328 q 179 128 219 175 q 106 33 139 82 l 446 33 l 561 33 l 561 0 l 67 0 z "},"3":{"ha":625,"x_min":75,"x_max":546,"o":"m 235 -139 q 149 -129 185 -139 q 94 -106 113 -119 q 75 -85 75 -93 q 81 -56 75 -69 q 151 -94 115 -82 q 240 -106 186 -106 q 382 -62 319 -106 q 478 55 444 -19 q 513 219 513 129 q 481 327 513 290 q 401 376 449 364 q 276 396 353 389 l 274 425 q 426 550 372 488 q 481 679 481 613 q 447 762 481 724 q 329 800 414 800 q 186 785 242 800 q 88 738 131 769 q 83 764 83 744 q 113 793 83 776 q 196 822 142 810 q 321 833 250 833 q 473 790 432 833 q 514 675 514 746 q 463 542 514 604 q 332 424 413 481 q 485 368 425 417 q 546 214 546 319 q 508 36 546 117 q 400 -92 471 -44 q 235 -139 329 -139 z "},"4":{"ha":625,"x_min":69,"x_max":569,"o":"m 397 253 l 74 253 q 71 256 72 253 q 69 264 69 258 q 116 421 69 315 q 239 640 163 526 q 399 831 315 753 q 419 838 407 838 q 429 835 425 838 q 435 832 433 833 l 431 286 l 568 286 q 569 282 568 286 q 569 269 569 278 q 558 253 569 253 l 431 253 l 431 19 l 431 11 q 426 1 431 3 q 397 0 421 0 l 397 253 m 397 286 l 404 792 q 222 556 307 689 q 104 286 136 424 l 397 286 z "},"5":{"ha":625,"x_min":63,"x_max":549,"o":"m 229 -139 q 141 -130 179 -139 q 83 -108 103 -121 q 63 -85 63 -94 q 68 -56 63 -71 q 235 -106 125 -106 q 451 -6 388 -106 q 515 275 515 93 q 426 455 515 407 q 235 503 338 503 q 160 497 196 503 q 104 485 125 492 q 78 478 83 479 l 114 833 l 539 833 q 535 805 539 810 q 514 800 531 800 l 144 800 l 114 524 q 147 530 114 525 q 232 535 179 535 q 451 483 353 539 q 549 269 549 426 q 477 -34 549 71 q 229 -139 406 -139 z "},"6":{"ha":625,"x_min":65,"x_max":565,"o":"m 343 606 q 505 539 444 606 q 565 336 565 472 q 500 78 565 168 q 299 -12 435 -12 q 154 38 206 -12 q 84 176 103 88 q 65 393 65 264 q 109 723 65 593 q 225 913 153 853 q 388 972 297 972 q 496 963 451 972 q 540 939 540 953 q 539 923 540 929 q 538 914 538 917 q 471 933 503 928 q 376 939 439 939 q 243 883 306 939 q 141 715 181 828 q 97 440 101 603 q 194 563 129 521 q 343 606 260 606 m 299 21 q 472 102 411 21 q 532 326 532 183 q 338 572 532 572 q 197 524 261 572 q 97 385 133 475 q 139 118 99 215 q 299 21 179 21 z "},"7":{"ha":625,"x_min":83,"x_max":583,"o":"m 156 -112 q 136 -111 150 -112 q 122 -106 122 -110 q 302 427 196 199 q 518 800 408 656 l 97 800 q 83 833 83 800 l 583 833 q 339 426 451 664 q 156 -112 226 189 z "},"8":{"ha":625,"x_min":68,"x_max":568,"o":"m 468 460 q 542 373 517 421 q 568 250 568 325 q 507 55 568 122 q 326 -12 446 -12 q 134 58 200 -12 q 68 249 68 128 q 126 417 68 342 q 268 526 185 493 q 176 571 206 551 q 103 649 128 601 q 78 751 78 697 q 147 922 78 864 q 319 981 217 981 q 484 934 414 981 q 554 757 554 888 q 367 521 554 613 q 468 460 428 493 m 110 753 q 133 664 110 704 q 211 589 157 624 q 292 553 236 574 l 325 539 q 465 629 408 572 q 522 756 522 686 q 463 909 522 871 q 319 947 403 947 q 170 899 231 947 q 110 753 110 850 m 326 19 q 483 82 428 19 q 538 249 538 144 q 510 359 538 314 q 435 443 483 404 q 385 476 414 461 q 313 508 356 490 q 163 409 224 482 q 101 247 101 336 q 159 83 101 146 q 326 19 217 19 z "},"9":{"ha":625,"x_min":63,"x_max":563,"o":"m 329 847 q 474 801 424 847 q 544 667 525 754 q 563 436 563 579 q 472 0 563 143 q 210 -143 382 -143 q 133 -137 165 -143 q 101 -124 101 -132 q 103 -108 101 -114 q 104 -99 104 -101 q 153 -108 131 -106 q 210 -110 176 -110 q 440 14 358 -110 q 529 385 522 138 q 434 267 496 310 q 290 225 372 225 q 126 292 190 225 q 63 493 63 358 q 127 758 63 668 q 329 847 192 847 m 296 258 q 427 306 367 258 q 531 439 488 354 q 517 633 531 553 q 459 763 503 713 q 329 814 415 814 q 155 735 214 814 q 96 503 96 657 q 150 319 96 379 q 296 258 204 258 z "},"\u0000":{"ha":0,"x_min":0,"x_max":0,"o":""},"\r":{"ha":264,"x_min":0,"x_max":0,"o":""}," ":{"ha":264,"x_min":0,"x_max":0,"o":""},"A":{"ha":606,"x_min":14,"x_max":592,"o":"m 592 7 q 579 -1 592 -1 q 557 0 564 -1 l 474 294 l 132 294 l 53 8 q 47 0 51 1 q 33 -1 43 -1 l 14 0 l 292 976 q 299 979 292 979 q 311 976 308 979 l 590 14 l 592 7 m 464 328 l 372 653 q 301 929 304 901 q 231 653 297 896 l 140 328 l 464 328 z "},"Á":{"ha":606,"x_min":14,"x_max":592,"o":"m 592 7 q 579 -1 592 -1 q 557 0 564 -1 l 474 294 l 132 294 l 53 8 q 47 0 51 1 q 33 -1 43 -1 l 14 0 l 292 976 q 299 979 292 979 q 311 976 308 979 l 590 14 l 592 7 m 464 328 l 372 653 q 301 929 304 901 q 231 653 297 896 l 140 328 l 464 328 m 197 1104 q 313 1206 254 1158 q 390 1267 372 1254 q 402 1253 397 1267 q 408 1235 407 1240 q 335 1174 393 1221 q 211 1082 278 1128 l 197 1104 z "},"Ă":{"ha":606,"x_min":14,"x_max":592,"o":"m 592 7 q 579 -1 592 -1 q 557 0 564 -1 l 474 294 l 132 294 l 53 8 q 47 0 51 1 q 33 -1 43 -1 l 14 0 l 292 976 q 299 979 292 979 q 311 976 308 979 l 590 14 l 592 7 m 464 328 l 372 653 q 301 929 304 901 q 231 653 297 896 l 140 328 l 464 328 m 301 1090 q 217 1120 253 1090 q 162 1188 181 1150 q 143 1242 143 1225 q 150 1255 143 1251 q 169 1260 157 1258 q 218 1164 188 1204 q 303 1124 249 1124 q 380 1156 354 1124 q 426 1246 406 1189 q 442 1257 431 1257 q 454 1252 449 1257 q 461 1240 460 1247 q 406 1135 444 1181 q 301 1090 368 1090 z "},"Ắ":{"ha":606,"x_min":14,"x_max":592,"o":"m 592 7 q 579 -1 592 -1 q 557 0 564 -1 l 474 294 l 132 294 l 53 8 q 47 0 51 1 q 33 -1 43 -1 l 14 0 l 292 976 q 299 979 292 979 q 311 976 308 979 l 590 14 l 592 7 m 464 328 l 372 653 q 301 929 304 901 q 231 653 297 896 l 140 328 l 464 328 m 301 1090 q 217 1120 253 1090 q 162 1188 181 1150 q 143 1242 143 1225 q 150 1255 143 1251 q 169 1260 157 1258 q 218 1164 188 1204 q 303 1124 249 1124 q 380 1156 354 1124 q 426 1246 406 1189 q 442 1257 431 1257 q 454 1252 449 1257 q 461 1240 460 1247 q 406 1135 444 1181 q 301 1090 368 1090 m 286 1314 q 402 1416 343 1368 q 479 1476 461 1464 q 491 1463 486 1476 q 497 1444 496 1450 q 424 1384 482 1431 q 300 1292 367 1338 l 286 1314 z "},"Ặ":{"ha":606,"x_min":14,"x_max":592,"o":"m 592 7 q 579 -1 592 -1 q 557 0 564 -1 l 474 294 l 132 294 l 53 8 q 47 0 51 1 q 33 -1 43 -1 l 14 0 l 292 976 q 299 979 292 979 q 311 976 308 979 l 590 14 l 592 7 m 464 328 l 372 653 q 301 929 304 901 q 231 653 297 896 l 140 328 l 464 328 m 301 -187 q 278 -154 278 -186 q 304 -110 278 -110 q 329 -146 329 -110 q 323 -178 329 -168 q 301 -187 317 -187 m 301 1090 q 217 1120 253 1090 q 162 1188 181 1150 q 143 1242 143 1225 q 150 1255 143 1251 q 169 1260 157 1258 q 218 1164 188 1204 q 303 1124 249 1124 q 380 1156 354 1124 q 426 1246 406 1189 q 442 1257 431 1257 q 454 1252 449 1257 q 461 1240 460 1247 q 406 1135 444 1181 q 301 1090 368 1090 z "},"Ằ":{"ha":606,"x_min":14,"x_max":592,"o":"m 592 7 q 579 -1 592 -1 q 557 0 564 -1 l 474 294 l 132 294 l 53 8 q 47 0 51 1 q 33 -1 43 -1 l 14 0 l 292 976 q 299 979 292 979 q 311 976 308 979 l 590 14 l 592 7 m 464 328 l 372 653 q 301 929 304 901 q 231 653 297 896 l 140 328 l 464 328 m 301 1090 q 217 1120 253 1090 q 162 1188 181 1150 q 143 1242 143 1225 q 150 1255 143 1251 q 169 1260 157 1258 q 218 1164 188 1204 q 303 1124 249 1124 q 380 1156 354 1124 q 426 1246 406 1189 q 442 1257 431 1257 q 454 1252 449 1257 q 461 1240 460 1247 q 406 1135 444 1181 q 301 1090 368 1090 m 319 1281 q 195 1373 253 1326 q 122 1433 138 1419 q 128 1452 124 1439 q 140 1465 133 1465 q 217 1405 158 1453 q 333 1303 276 1357 l 319 1281 z "},"Ẳ":{"ha":606,"x_min":14,"x_max":592,"o":"m 592 7 q 579 -1 592 -1 q 557 0 564 -1 l 474 294 l 132 294 l 53 8 q 47 0 51 1 q 33 -1 43 -1 l 14 0 l 292 976 q 299 979 292 979 q 311 976 308 979 l 590 14 l 592 7 m 464 328 l 372 653 q 301 929 304 901 q 231 653 297 896 l 140 328 l 464 328 m 301 1090 q 217 1120 253 1090 q 162 1188 181 1150 q 143 1242 143 1225 q 150 1255 143 1251 q 169 1260 157 1258 q 218 1164 188 1204 q 303 1124 249 1124 q 380 1156 354 1124 q 426 1246 406 1189 q 442 1257 431 1257 q 454 1252 449 1257 q 461 1240 460 1247 q 406 1135 444 1181 q 301 1090 368 1090 m 281 1268 q 280 1273 281 1269 q 279 1282 279 1276 q 283 1303 279 1296 q 308 1328 290 1317 q 331 1347 324 1338 q 338 1378 338 1357 q 282 1436 338 1436 q 228 1419 250 1436 l 228 1453 q 244 1465 228 1458 q 281 1472 260 1472 q 376 1378 376 1472 q 363 1333 376 1349 q 335 1309 350 1318 q 317 1297 321 1300 q 309 1282 311 1292 q 307 1269 307 1272 q 292 1267 304 1267 l 281 1268 z "},"Ẵ":{"ha":606,"x_min":14,"x_max":592,"o":"m 592 7 q 579 -1 592 -1 q 557 0 564 -1 l 474 294 l 132 294 l 53 8 q 47 0 51 1 q 33 -1 43 -1 l 14 0 l 292 976 q 299 979 292 979 q 311 976 308 979 l 590 14 l 592 7 m 464 328 l 372 653 q 301 929 304 901 q 231 653 297 896 l 140 328 l 464 328 m 301 1090 q 217 1120 253 1090 q 162 1188 181 1150 q 143 1242 143 1225 q 150 1255 143 1251 q 169 1260 157 1258 q 218 1164 188 1204 q 303 1124 249 1124 q 380 1156 354 1124 q 426 1246 406 1189 q 442 1257 431 1257 q 454 1252 449 1257 q 461 1240 460 1247 q 406 1135 444 1181 q 301 1090 368 1090 m 369 1307 q 317 1320 338 1307 q 276 1357 297 1333 q 251 1381 261 1374 q 228 1389 242 1389 q 184 1374 201 1389 q 152 1337 167 1358 q 133 1315 138 1315 q 120 1324 128 1315 q 111 1335 113 1332 q 169 1401 142 1385 q 236 1418 196 1418 q 273 1408 258 1418 q 304 1379 288 1399 q 334 1351 319 1361 q 369 1342 349 1342 q 426 1358 406 1342 q 458 1394 446 1375 q 474 1414 469 1414 q 488 1405 482 1414 q 494 1393 493 1396 q 448 1331 475 1354 q 369 1307 421 1307 z "},"Â":{"ha":606,"x_min":14,"x_max":592,"o":"m 592 7 q 579 -1 592 -1 q 557 0 564 -1 l 474 294 l 132 294 l 53 8 q 47 0 51 1 q 33 -1 43 -1 l 14 0 l 292 976 q 299 979 292 979 q 311 976 308 979 l 590 14 l 592 7 m 464 328 l 372 653 q 301 929 304 901 q 231 653 297 896 l 140 328 l 464 328 m 307 1215 q 232 1140 288 1194 q 171 1085 176 1085 q 151 1092 158 1085 q 144 1103 144 1100 l 297 1246 q 308 1249 300 1249 q 328 1239 318 1249 l 461 1106 q 449 1092 458 1101 q 431 1083 440 1083 l 307 1215 z "},"Ấ":{"ha":606,"x_min":14,"x_max":665,"o":"m 592 7 q 579 -1 592 -1 q 557 0 564 -1 l 474 294 l 132 294 l 53 8 q 47 0 51 1 q 33 -1 43 -1 l 14 0 l 292 976 q 299 979 292 979 q 311 976 308 979 l 590 14 l 592 7 m 464 328 l 372 653 q 301 929 304 901 q 231 653 297 896 l 140 328 l 464 328 m 307 1215 q 232 1140 288 1194 q 171 1085 176 1085 q 151 1092 158 1085 q 144 1103 144 1100 l 297 1246 q 308 1249 300 1249 q 328 1239 318 1249 l 461 1106 q 449 1092 458 1101 q 431 1083 440 1083 l 307 1215 m 454 1222 q 570 1324 511 1276 q 647 1385 629 1372 q 659 1372 654 1385 q 665 1353 664 1358 q 592 1292 650 1339 q 468 1200 535 1246 l 454 1222 z "},"Ậ":{"ha":606,"x_min":14,"x_max":592,"o":"m 592 7 q 579 -1 592 -1 q 557 0 564 -1 l 474 294 l 132 294 l 53 8 q 47 0 51 1 q 33 -1 43 -1 l 14 0 l 292 976 q 299 979 292 979 q 311 976 308 979 l 590 14 l 592 7 m 464 328 l 372 653 q 301 929 304 901 q 231 653 297 896 l 140 328 l 464 328 m 301 -187 q 278 -154 278 -186 q 304 -110 278 -110 q 329 -146 329 -110 q 323 -178 329 -168 q 301 -187 317 -187 m 307 1215 q 232 1140 288 1194 q 171 1085 176 1085 q 151 1092 158 1085 q 144 1103 144 1100 l 297 1246 q 308 1249 300 1249 q 328 1239 318 1249 l 461 1106 q 449 1092 458 1101 q 431 1083 440 1083 l 307 1215 z "},"Ầ":{"ha":606,"x_min":14,"x_max":592,"o":"m 592 7 q 579 -1 592 -1 q 557 0 564 -1 l 474 294 l 132 294 l 53 8 q 47 0 51 1 q 33 -1 43 -1 l 14 0 l 292 976 q 299 979 292 979 q 311 976 308 979 l 590 14 l 592 7 m 464 328 l 372 653 q 301 929 304 901 q 231 653 297 896 l 140 328 l 464 328 m 307 1215 q 232 1140 288 1194 q 171 1085 176 1085 q 151 1092 158 1085 q 144 1103 144 1100 l 297 1246 q 308 1249 300 1249 q 328 1239 318 1249 l 461 1106 q 449 1092 458 1101 q 431 1083 440 1083 l 307 1215 m 429 1251 q 305 1344 363 1297 q 232 1404 247 1390 q 238 1423 233 1410 q 250 1436 243 1436 q 327 1376 268 1424 q 443 1274 386 1328 l 429 1251 z "},"Ẩ":{"ha":606,"x_min":14,"x_max":592,"o":"m 592 7 q 579 -1 592 -1 q 557 0 564 -1 l 474 294 l 132 294 l 53 8 q 47 0 51 1 q 33 -1 43 -1 l 14 0 l 292 976 q 299 979 292 979 q 311 976 308 979 l 590 14 l 592 7 m 464 328 l 372 653 q 301 929 304 901 q 231 653 297 896 l 140 328 l 464 328 m 307 1215 q 232 1140 288 1194 q 171 1085 176 1085 q 151 1092 158 1085 q 144 1103 144 1100 l 297 1246 q 308 1249 300 1249 q 328 1239 318 1249 l 461 1106 q 449 1092 458 1101 q 431 1083 440 1083 l 307 1215 m 449 1214 q 448 1219 449 1215 q 447 1228 447 1222 q 451 1249 447 1242 q 476 1274 458 1263 q 499 1293 492 1283 q 506 1324 506 1303 q 450 1382 506 1382 q 396 1365 418 1382 l 396 1399 q 412 1411 396 1404 q 449 1418 428 1418 q 544 1324 544 1418 q 531 1279 544 1294 q 503 1255 518 1264 q 485 1243 489 1246 q 477 1228 479 1238 q 475 1215 475 1218 q 460 1213 472 1213 l 449 1214 z "},"Ẫ":{"ha":606,"x_min":14,"x_max":592,"o":"m 592 7 q 579 -1 592 -1 q 557 0 564 -1 l 474 294 l 132 294 l 53 8 q 47 0 51 1 q 33 -1 43 -1 l 14 0 l 292 976 q 299 979 292 979 q 311 976 308 979 l 590 14 l 592 7 m 464 328 l 372 653 q 301 929 304 901 q 231 653 297 896 l 140 328 l 464 328 m 307 1215 q 232 1140 288 1194 q 171 1085 176 1085 q 151 1092 158 1085 q 144 1103 144 1100 l 297 1246 q 308 1249 300 1249 q 328 1239 318 1249 l 461 1106 q 449 1092 458 1101 q 431 1083 440 1083 l 307 1215 m 390 1283 q 338 1297 358 1283 q 297 1333 318 1310 q 272 1358 282 1350 q 249 1365 263 1365 q 205 1350 222 1365 q 173 1313 188 1335 q 154 1292 158 1292 q 141 1300 149 1292 q 132 1311 133 1308 q 190 1378 163 1361 q 257 1394 217 1394 q 294 1385 279 1394 q 325 1356 308 1375 q 355 1328 340 1338 q 390 1318 369 1318 q 447 1335 426 1318 q 478 1371 467 1351 q 494 1390 490 1390 q 508 1381 503 1390 q 515 1369 514 1372 q 469 1307 496 1331 q 390 1283 442 1283 z "},"Ä":{"ha":606,"x_min":14,"x_max":592,"o":"m 592 7 q 579 -1 592 -1 q 557 0 564 -1 l 474 294 l 132 294 l 53 8 q 47 0 51 1 q 33 -1 43 -1 l 14 0 l 292 976 q 299 979 292 979 q 311 976 308 979 l 590 14 l 592 7 m 464 328 l 372 653 q 301 929 304 901 q 231 653 297 896 l 140 328 l 464 328 m 232 1131 q 208 1164 208 1132 q 235 1208 208 1208 q 260 1172 260 1208 q 253 1141 260 1151 q 232 1131 247 1131 m 371 1131 q 347 1164 347 1132 q 374 1208 347 1208 q 399 1172 399 1208 q 392 1141 399 1151 q 371 1131 386 1131 z "},"Ạ":{"ha":606,"x_min":14,"x_max":592,"o":"m 592 7 q 579 -1 592 -1 q 557 0 564 -1 l 474 294 l 132 294 l 53 8 q 47 0 51 1 q 33 -1 43 -1 l 14 0 l 292 976 q 299 979 292 979 q 311 976 308 979 l 590 14 l 592 7 m 464 328 l 372 653 q 301 929 304 901 q 231 653 297 896 l 140 328 l 464 328 m 301 -187 q 278 -154 278 -186 q 304 -110 278 -110 q 329 -146 329 -110 q 323 -178 329 -168 q 301 -187 317 -187 z "},"À":{"ha":606,"x_min":14,"x_max":592,"o":"m 592 7 q 579 -1 592 -1 q 557 0 564 -1 l 474 294 l 132 294 l 53 8 q 47 0 51 1 q 33 -1 43 -1 l 14 0 l 292 976 q 299 979 292 979 q 311 976 308 979 l 590 14 l 592 7 m 464 328 l 372 653 q 301 929 304 901 q 231 653 297 896 l 140 328 l 464 328 m 394 1082 q 270 1174 328 1128 q 197 1235 213 1221 q 203 1253 199 1240 q 215 1267 208 1267 q 292 1206 233 1254 q 408 1104 351 1158 l 394 1082 z "},"Ả":{"ha":606,"x_min":14,"x_max":592,"o":"m 592 7 q 579 -1 592 -1 q 557 0 564 -1 l 474 294 l 132 294 l 53 8 q 47 0 51 1 q 33 -1 43 -1 l 14 0 l 292 976 q 299 979 292 979 q 311 976 308 979 l 590 14 l 592 7 m 464 328 l 372 653 q 301 929 304 901 q 231 653 297 896 l 140 328 l 464 328 m 281 1049 q 280 1053 281 1050 q 279 1063 279 1057 q 283 1083 279 1076 q 308 1108 290 1097 q 331 1128 324 1118 q 338 1158 338 1138 q 282 1217 338 1217 q 228 1200 250 1217 l 228 1233 q 244 1246 228 1239 q 281 1253 260 1253 q 376 1158 376 1253 q 363 1114 376 1129 q 335 1090 350 1099 q 317 1078 321 1081 q 309 1063 311 1072 q 307 1050 307 1053 q 292 1047 304 1047 l 281 1049 z "},"Ā":{"ha":606,"x_min":14,"x_max":592,"o":"m 592 7 q 579 -1 592 -1 q 557 0 564 -1 l 474 294 l 132 294 l 53 8 q 47 0 51 1 q 33 -1 43 -1 l 14 0 l 292 976 q 299 979 292 979 q 311 976 308 979 l 590 14 l 592 7 m 464 328 l 372 653 q 301 929 304 901 q 231 653 297 896 l 140 328 l 464 328 m 136 1143 q 135 1161 135 1150 q 150 1178 138 1178 l 469 1178 q 471 1160 471 1171 q 456 1143 469 1143 l 136 1143 z "},"Ą":{"ha":606,"x_min":14,"x_max":592,"o":"m 532 -271 q 460 -243 486 -271 q 435 -164 435 -215 q 470 -64 435 -111 q 553 15 506 -17 l 474 294 l 132 294 l 53 8 q 47 0 51 1 q 33 -1 43 -1 l 14 0 l 292 976 q 299 979 292 979 q 311 976 308 979 l 590 15 l 592 10 q 583 0 592 4 q 501 -73 535 -29 q 468 -162 468 -117 q 533 -239 468 -239 q 581 -225 558 -239 q 589 -247 589 -239 q 572 -265 589 -258 q 532 -271 556 -271 m 464 328 l 372 653 q 301 929 304 901 q 231 653 297 896 l 140 328 l 464 328 z "},"Å":{"ha":606,"x_min":14,"x_max":592,"o":"m 592 7 q 579 -1 592 -1 q 557 0 564 -1 l 474 294 l 132 294 l 53 8 q 47 0 51 1 q 33 -1 43 -1 l 14 0 l 292 976 q 299 979 292 979 q 311 976 308 979 l 590 14 l 592 7 m 464 328 l 372 653 q 301 929 304 901 q 231 653 297 896 l 140 328 l 464 328 m 299 1065 q 189 1181 189 1065 q 221 1268 189 1239 q 308 1297 253 1297 q 390 1270 364 1297 q 417 1181 417 1243 q 385 1095 417 1125 q 299 1065 354 1065 m 299 1099 q 383 1182 383 1099 q 365 1245 383 1226 q 310 1264 347 1264 q 244 1244 265 1264 q 222 1176 222 1225 q 242 1119 222 1139 q 299 1099 261 1099 z "},"Ã":{"ha":606,"x_min":14,"x_max":592,"o":"m 592 7 q 579 -1 592 -1 q 557 0 564 -1 l 474 294 l 132 294 l 53 8 q 47 0 51 1 q 33 -1 43 -1 l 14 0 l 292 976 q 299 979 292 979 q 311 976 308 979 l 590 14 l 592 7 m 464 328 l 372 653 q 301 929 304 901 q 231 653 297 896 l 140 328 l 464 328 m 369 1103 q 317 1116 338 1103 q 276 1153 297 1129 q 251 1177 261 1169 q 228 1185 242 1185 q 184 1169 201 1185 q 152 1133 167 1154 q 133 1111 138 1111 q 120 1119 128 1111 q 111 1131 113 1128 q 169 1197 142 1181 q 236 1214 196 1214 q 273 1204 258 1214 q 304 1175 288 1194 q 334 1147 319 1157 q 369 1138 349 1138 q 426 1154 406 1138 q 458 1190 446 1171 q 474 1210 469 1210 q 488 1201 482 1210 q 494 1189 493 1192 q 448 1126 475 1150 q 369 1103 421 1103 z "},"Æ":{"ha":938,"x_min":26,"x_max":889,"o":"m 889 33 q 888 6 889 11 q 878 0 886 0 l 540 0 l 540 294 l 218 294 l 65 8 q 46 -1 61 -1 l 26 0 l 539 964 q 544 969 540 967 q 550 972 547 972 l 886 972 q 885 944 886 950 q 878 939 883 939 l 574 939 l 574 550 l 858 550 q 857 522 858 528 q 847 517 856 517 l 574 517 l 574 33 l 889 33 m 540 328 l 540 913 q 406 647 464 756 l 236 328 l 540 328 z "},"B":{"ha":569,"x_min":94,"x_max":528,"o":"m 94 950 q 101 967 94 961 q 128 972 108 972 l 268 972 q 431 927 364 972 q 499 764 499 882 q 456 597 499 647 q 357 538 413 546 q 473 492 418 536 q 528 332 528 447 q 441 61 528 122 q 257 0 354 0 l 94 0 l 94 950 m 274 549 q 413 597 361 549 q 465 763 465 644 q 408 901 465 861 q 261 940 350 940 l 128 940 l 128 549 l 274 549 m 256 33 q 427 99 360 33 q 494 329 494 164 q 464 453 494 413 q 385 505 433 494 q 254 515 336 515 l 128 515 l 128 33 l 256 33 z "},"C":{"ha":513,"x_min":67,"x_max":471,"o":"m 296 -12 q 186 12 233 -12 q 103 134 139 36 q 67 432 67 232 q 105 790 67 668 q 199 949 143 913 q 332 985 256 985 q 397 974 368 985 q 443 947 426 963 q 460 921 460 932 q 457 908 460 915 q 450 899 454 901 q 403 933 438 914 q 328 953 369 953 q 215 917 263 953 q 134 766 167 882 q 101 425 101 650 q 130 168 101 257 q 201 51 158 79 q 297 22 243 22 q 395 49 349 22 q 461 106 442 75 q 471 81 471 89 q 446 42 471 64 q 381 3 421 19 q 296 -12 340 -12 z "},"Ć":{"ha":513,"x_min":67,"x_max":471,"o":"m 296 -12 q 186 12 233 -12 q 103 134 139 36 q 67 432 67 232 q 105 790 67 668 q 199 949 143 913 q 332 985 256 985 q 397 974 368 985 q 443 947 426 963 q 460 921 460 932 q 457 908 460 915 q 450 899 454 901 q 403 933 438 914 q 328 953 369 953 q 215 917 263 953 q 134 766 167 882 q 101 425 101 650 q 130 168 101 257 q 201 51 158 79 q 297 22 243 22 q 395 49 349 22 q 461 106 442 75 q 471 81 471 89 q 446 42 471 64 q 381 3 421 19 q 296 -12 340 -12 m 193 1104 q 309 1206 250 1158 q 386 1267 368 1254 q 398 1253 393 1267 q 404 1235 403 1240 q 331 1174 389 1221 q 207 1082 274 1128 l 193 1104 z "},"Č":{"ha":513,"x_min":67,"x_max":471,"o":"m 296 -12 q 186 12 233 -12 q 103 134 139 36 q 67 432 67 232 q 105 790 67 668 q 199 949 143 913 q 332 985 256 985 q 397 974 368 985 q 443 947 426 963 q 460 921 460 932 q 457 908 460 915 q 450 899 454 901 q 403 933 438 914 q 328 953 369 953 q 215 917 263 953 q 134 766 167 882 q 101 425 101 650 q 130 168 101 257 q 201 51 158 79 q 297 22 243 22 q 395 49 349 22 q 461 106 442 75 q 471 81 471 89 q 446 42 471 64 q 381 3 421 19 q 296 -12 340 -12 m 310 1092 q 231 1160 299 1092 q 139 1253 163 1228 q 147 1264 140 1256 q 163 1272 154 1272 q 228 1210 169 1272 q 308 1126 288 1149 q 391 1224 353 1181 q 442 1281 429 1267 q 458 1258 458 1268 q 390 1170 458 1249 q 310 1092 321 1092 z "},"Ç":{"ha":513,"x_min":67,"x_max":471,"o":"m 471 81 q 450 45 471 65 q 394 9 429 25 q 321 -11 360 -7 l 304 -85 q 313 -83 306 -85 q 331 -82 319 -82 q 376 -99 357 -82 q 396 -153 396 -117 q 370 -226 396 -206 q 310 -246 344 -246 q 267 -242 288 -246 q 242 -237 247 -239 q 245 -217 242 -231 q 258 -203 249 -203 q 280 -208 263 -203 q 310 -214 297 -214 q 363 -161 363 -214 q 349 -121 363 -131 q 311 -111 335 -111 q 282 -114 297 -111 q 263 -118 267 -117 l 285 -12 q 180 16 226 -11 q 100 141 133 43 q 67 432 67 239 q 105 790 67 668 q 199 949 143 913 q 332 985 256 985 q 397 974 368 985 q 443 947 426 963 q 460 921 460 932 q 457 908 460 915 q 450 899 454 901 q 403 933 438 914 q 328 953 369 953 q 215 917 263 953 q 134 766 167 882 q 101 425 101 650 q 130 168 101 257 q 201 51 158 79 q 297 22 243 22 q 395 49 349 22 q 461 106 442 75 q 471 81 471 89 z "},"D":{"ha":607,"x_min":97,"x_max":540,"o":"m 97 950 q 104 967 97 961 q 131 972 111 972 l 271 972 q 472 867 404 972 q 540 539 540 763 q 501 198 540 317 q 402 40 463 79 q 260 0 342 0 l 97 0 l 97 950 m 258 33 q 385 71 332 33 q 473 219 439 108 q 507 539 507 331 q 449 842 507 746 q 264 939 392 939 l 131 939 l 131 33 l 258 33 z "},"Ð":{"ha":607,"x_min":28,"x_max":540,"o":"m 271 972 q 472 867 404 972 q 540 539 540 763 q 501 198 540 317 q 402 40 463 79 q 260 0 342 0 l 97 0 l 97 499 l 28 499 q 30 528 28 522 q 42 533 32 533 l 97 533 l 97 950 q 104 967 97 961 q 131 972 111 972 l 271 972 m 258 33 q 385 71 332 33 q 473 219 439 108 q 507 539 507 331 q 449 842 507 746 q 264 939 392 939 l 131 939 l 131 533 l 315 533 q 313 504 315 510 q 301 499 311 499 l 131 499 l 131 33 l 258 33 z "},"Ď":{"ha":607,"x_min":97,"x_max":540,"o":"m 97 950 q 104 967 97 961 q 131 972 111 972 l 271 972 q 472 867 404 972 q 540 539 540 763 q 501 198 540 317 q 402 40 463 79 q 260 0 342 0 l 97 0 l 97 950 m 258 33 q 385 71 332 33 q 473 219 439 108 q 507 539 507 331 q 449 842 507 746 q 264 939 392 939 l 131 939 l 131 33 l 258 33 m 275 1092 q 196 1160 264 1092 q 104 1253 128 1228 q 113 1264 106 1256 q 128 1272 119 1272 q 194 1210 135 1272 q 274 1126 253 1149 q 356 1224 318 1181 q 407 1281 394 1267 q 424 1258 424 1268 q 355 1170 424 1249 q 275 1092 286 1092 z "},"Đ":{"ha":607,"x_min":-18,"x_max":540,"o":"m 271 972 q 472 867 404 972 q 540 539 540 763 q 501 198 540 317 q 402 40 463 79 q 260 0 342 0 l 97 0 l 97 451 l -17 451 q -18 469 -18 458 q -3 486 -17 486 l 97 486 l 97 950 q 104 967 97 961 q 131 972 111 972 l 271 972 m 258 33 q 385 71 332 33 q 473 219 439 108 q 507 539 507 331 q 449 842 507 746 q 264 939 392 939 l 131 939 l 131 486 l 317 486 q 318 468 318 479 q 303 451 317 451 l 131 451 l 131 33 l 258 33 z "},"E":{"ha":496,"x_min":99,"x_max":447,"o":"m 447 33 q 446 6 447 11 q 436 0 444 0 l 99 0 l 99 958 q 101 967 99 963 q 113 972 104 972 l 444 972 q 443 944 444 950 q 436 939 442 939 l 132 939 l 132 550 l 417 550 q 415 522 417 528 q 406 517 414 517 l 132 517 l 132 33 l 447 33 z "},"É":{"ha":496,"x_min":99,"x_max":447,"o":"m 447 33 q 446 6 447 11 q 436 0 444 0 l 99 0 l 99 958 q 101 967 99 963 q 113 972 104 972 l 444 972 q 443 944 444 950 q 436 939 442 939 l 132 939 l 132 550 l 417 550 q 415 522 417 528 q 406 517 414 517 l 132 517 l 132 33 l 447 33 m 168 1104 q 284 1206 225 1158 q 361 1267 343 1254 q 373 1253 368 1267 q 379 1235 378 1240 q 306 1174 364 1221 q 182 1082 249 1128 l 168 1104 z "},"Ě":{"ha":496,"x_min":99,"x_max":447,"o":"m 447 33 q 446 6 447 11 q 436 0 444 0 l 99 0 l 99 958 q 101 967 99 963 q 113 972 104 972 l 444 972 q 443 944 444 950 q 436 939 442 939 l 132 939 l 132 550 l 417 550 q 415 522 417 528 q 406 517 414 517 l 132 517 l 132 33 l 447 33 m 285 1092 q 206 1160 274 1092 q 114 1253 138 1228 q 122 1264 115 1256 q 138 1272 129 1272 q 203 1210 144 1272 q 283 1126 263 1149 q 366 1224 328 1181 q 417 1281 404 1267 q 433 1258 433 1268 q 365 1170 433 1249 q 285 1092 296 1092 z "},"Ê":{"ha":496,"x_min":99,"x_max":447,"o":"m 447 33 q 446 6 447 11 q 436 0 444 0 l 99 0 l 99 958 q 101 967 99 963 q 113 972 104 972 l 444 972 q 443 944 444 950 q 436 939 442 939 l 132 939 l 132 550 l 417 550 q 415 522 417 528 q 406 517 414 517 l 132 517 l 132 33 l 447 33 m 278 1215 q 203 1140 258 1194 q 142 1085 147 1085 q 122 1092 129 1085 q 115 1103 115 1100 l 268 1246 q 279 1249 271 1249 q 299 1239 289 1249 l 432 1106 q 420 1092 429 1101 q 401 1083 411 1083 l 278 1215 z "},"Ế":{"ha":496,"x_min":99,"x_max":636,"o":"m 447 33 q 446 6 447 11 q 436 0 444 0 l 99 0 l 99 958 q 101 967 99 963 q 113 972 104 972 l 444 972 q 443 944 444 950 q 436 939 442 939 l 132 939 l 132 550 l 417 550 q 415 522 417 528 q 406 517 414 517 l 132 517 l 132 33 l 447 33 m 278 1215 q 203 1140 258 1194 q 142 1085 147 1085 q 122 1092 129 1085 q 115 1103 115 1100 l 268 1246 q 279 1249 271 1249 q 299 1239 289 1249 l 432 1106 q 420 1092 429 1101 q 401 1083 411 1083 l 278 1215 m 425 1222 q 541 1324 482 1276 q 618 1385 600 1372 q 630 1372 625 1385 q 636 1353 635 1358 q 563 1292 621 1339 q 439 1200 506 1246 l 425 1222 z "},"Ệ":{"ha":496,"x_min":99,"x_max":447,"o":"m 447 33 q 446 6 447 11 q 436 0 444 0 l 99 0 l 99 958 q 101 967 99 963 q 113 972 104 972 l 444 972 q 443 944 444 950 q 436 939 442 939 l 132 939 l 132 550 l 417 550 q 415 522 417 528 q 406 517 414 517 l 132 517 l 132 33 l 447 33 m 247 -187 q 224 -154 224 -186 q 250 -110 224 -110 q 275 -146 275 -110 q 269 -178 275 -168 q 247 -187 263 -187 m 278 1215 q 203 1140 258 1194 q 142 1085 147 1085 q 122 1092 129 1085 q 115 1103 115 1100 l 268 1246 q 279 1249 271 1249 q 299 1239 289 1249 l 432 1106 q 420 1092 429 1101 q 401 1083 411 1083 l 278 1215 z "},"Ề":{"ha":496,"x_min":99,"x_max":447,"o":"m 447 33 q 446 6 447 11 q 436 0 444 0 l 99 0 l 99 958 q 101 967 99 963 q 113 972 104 972 l 444 972 q 443 944 444 950 q 436 939 442 939 l 132 939 l 132 550 l 417 550 q 415 522 417 528 q 406 517 414 517 l 132 517 l 132 33 l 447 33 m 278 1215 q 203 1140 258 1194 q 142 1085 147 1085 q 122 1092 129 1085 q 115 1103 115 1100 l 268 1246 q 279 1249 271 1249 q 299 1239 289 1249 l 432 1106 q 420 1092 429 1101 q 401 1083 411 1083 l 278 1215 m 400 1251 q 276 1344 333 1297 q 203 1404 218 1390 q 209 1423 204 1410 q 221 1436 214 1436 q 298 1376 239 1424 q 414 1274 357 1328 l 400 1251 z "},"Ể":{"ha":496,"x_min":99,"x_max":515,"o":"m 447 33 q 446 6 447 11 q 436 0 444 0 l 99 0 l 99 958 q 101 967 99 963 q 113 972 104 972 l 444 972 q 443 944 444 950 q 436 939 442 939 l 132 939 l 132 550 l 417 550 q 415 522 417 528 q 406 517 414 517 l 132 517 l 132 33 l 447 33 m 278 1215 q 203 1140 258 1194 q 142 1085 147 1085 q 122 1092 129 1085 q 115 1103 115 1100 l 268 1246 q 279 1249 271 1249 q 299 1239 289 1249 l 432 1106 q 420 1092 429 1101 q 401 1083 411 1083 l 278 1215 m 419 1214 q 419 1219 419 1215 q 418 1228 418 1222 q 422 1249 418 1242 q 447 1274 429 1263 q 469 1293 463 1283 q 476 1324 476 1303 q 421 1382 476 1382 q 367 1365 389 1382 l 367 1399 q 383 1411 367 1404 q 419 1418 399 1418 q 515 1324 515 1418 q 502 1279 515 1294 q 474 1255 489 1264 q 456 1243 460 1246 q 448 1228 450 1238 q 446 1215 446 1218 q 431 1213 443 1213 l 419 1214 z "},"Ễ":{"ha":496,"x_min":99,"x_max":486,"o":"m 447 33 q 446 6 447 11 q 436 0 444 0 l 99 0 l 99 958 q 101 967 99 963 q 113 972 104 972 l 444 972 q 443 944 444 950 q 436 939 442 939 l 132 939 l 132 550 l 417 550 q 415 522 417 528 q 406 517 414 517 l 132 517 l 132 33 l 447 33 m 278 1215 q 203 1140 258 1194 q 142 1085 147 1085 q 122 1092 129 1085 q 115 1103 115 1100 l 268 1246 q 279 1249 271 1249 q 299 1239 289 1249 l 432 1106 q 420 1092 429 1101 q 401 1083 411 1083 l 278 1215 m 361 1283 q 309 1297 329 1283 q 268 1333 289 1310 q 243 1358 253 1350 q 219 1365 233 1365 q 176 1350 193 1365 q 144 1313 158 1335 q 125 1292 129 1292 q 112 1300 119 1292 q 103 1311 104 1308 q 160 1378 133 1361 q 228 1394 188 1394 q 265 1385 250 1394 q 296 1356 279 1375 q 326 1328 311 1338 q 361 1318 340 1318 q 417 1335 397 1318 q 449 1371 438 1351 q 465 1390 461 1390 q 479 1381 474 1390 q 486 1369 485 1372 q 440 1307 467 1331 q 361 1283 413 1283 z "},"Ë":{"ha":496,"x_min":99,"x_max":447,"o":"m 447 33 q 446 6 447 11 q 436 0 444 0 l 99 0 l 99 958 q 101 967 99 963 q 113 972 104 972 l 444 972 q 443 944 444 950 q 436 939 442 939 l 132 939 l 132 550 l 417 550 q 415 522 417 528 q 406 517 414 517 l 132 517 l 132 33 l 447 33 m 203 1131 q 179 1164 179 1132 q 206 1208 179 1208 q 231 1172 231 1208 q 224 1141 231 1151 q 203 1131 218 1131 m 342 1131 q 318 1164 318 1132 q 344 1208 318 1208 q 369 1172 369 1208 q 363 1141 369 1151 q 342 1131 357 1131 z "},"Ė":{"ha":496,"x_min":99,"x_max":447,"o":"m 447 33 q 446 6 447 11 q 436 0 444 0 l 99 0 l 99 958 q 101 967 99 963 q 113 972 104 972 l 444 972 q 443 944 444 950 q 436 939 442 939 l 132 939 l 132 550 l 417 550 q 415 522 417 528 q 406 517 414 517 l 132 517 l 132 33 l 447 33 m 272 1131 q 249 1164 249 1132 q 275 1208 249 1208 q 300 1172 300 1208 q 294 1141 300 1151 q 272 1131 288 1131 z "},"Ẹ":{"ha":496,"x_min":99,"x_max":447,"o":"m 447 33 q 446 6 447 11 q 436 0 444 0 l 99 0 l 99 958 q 101 967 99 963 q 113 972 104 972 l 444 972 q 443 944 444 950 q 436 939 442 939 l 132 939 l 132 550 l 417 550 q 415 522 417 528 q 406 517 414 517 l 132 517 l 132 33 l 447 33 m 247 -187 q 224 -154 224 -186 q 250 -110 224 -110 q 275 -146 275 -110 q 269 -178 275 -168 q 247 -187 263 -187 z "},"È":{"ha":496,"x_min":99,"x_max":447,"o":"m 447 33 q 446 6 447 11 q 436 0 444 0 l 99 0 l 99 958 q 101 967 99 963 q 113 972 104 972 l 444 972 q 443 944 444 950 q 436 939 442 939 l 132 939 l 132 550 l 417 550 q 415 522 417 528 q 406 517 414 517 l 132 517 l 132 33 l 447 33 m 365 1082 q 241 1174 299 1128 q 168 1235 183 1221 q 174 1253 169 1240 q 186 1267 179 1267 q 263 1206 204 1254 q 379 1104 322 1158 l 365 1082 z "},"Ẻ":{"ha":496,"x_min":99,"x_max":447,"o":"m 447 33 q 446 6 447 11 q 436 0 444 0 l 99 0 l 99 958 q 101 967 99 963 q 113 972 104 972 l 444 972 q 443 944 444 950 q 436 939 442 939 l 132 939 l 132 550 l 417 550 q 415 522 417 528 q 406 517 414 517 l 132 517 l 132 33 l 447 33 m 251 1049 q 251 1053 251 1050 q 250 1063 250 1057 q 254 1083 250 1076 q 279 1108 261 1097 q 301 1128 294 1118 q 308 1158 308 1138 q 253 1217 308 1217 q 199 1200 221 1217 l 199 1233 q 215 1246 199 1239 q 251 1253 231 1253 q 347 1158 347 1253 q 334 1114 347 1129 q 306 1090 321 1099 q 288 1078 292 1081 q 280 1063 282 1072 q 278 1050 278 1053 q 263 1047 275 1047 l 251 1049 z "},"Ē":{"ha":496,"x_min":99,"x_max":447,"o":"m 447 33 q 446 6 447 11 q 436 0 444 0 l 99 0 l 99 958 q 101 967 99 963 q 113 972 104 972 l 444 972 q 443 944 444 950 q 436 939 442 939 l 132 939 l 132 550 l 417 550 q 415 522 417 528 q 406 517 414 517 l 132 517 l 132 33 l 447 33 m 107 1143 q 106 1161 106 1150 q 121 1178 108 1178 l 440 1178 q 442 1160 442 1171 q 426 1143 440 1143 l 107 1143 z "},"Ę":{"ha":496,"x_min":99,"x_max":447,"o":"m 386 -271 q 316 -244 342 -271 q 290 -165 290 -217 q 318 -75 290 -119 q 388 0 346 -31 l 99 0 l 99 958 q 101 967 99 963 q 113 972 104 972 l 444 972 q 443 944 444 950 q 436 939 442 939 l 132 939 l 132 550 l 417 550 q 415 522 417 528 q 406 517 414 517 l 132 517 l 132 33 l 447 33 q 445 10 447 15 q 433 -3 443 4 q 355 -76 386 -33 q 324 -165 324 -119 q 388 -239 324 -239 q 436 -225 413 -239 q 444 -247 444 -239 q 427 -265 444 -258 q 386 -271 410 -271 z "},"Ẽ":{"ha":496,"x_min":82,"x_max":465,"o":"m 447 33 q 446 6 447 11 q 436 0 444 0 l 99 0 l 99 958 q 101 967 99 963 q 113 972 104 972 l 444 972 q 443 944 444 950 q 436 939 442 939 l 132 939 l 132 550 l 417 550 q 415 522 417 528 q 406 517 414 517 l 132 517 l 132 33 l 447 33 m 340 1103 q 288 1116 308 1103 q 247 1153 268 1129 q 222 1177 232 1169 q 199 1185 213 1185 q 155 1169 172 1185 q 123 1133 138 1154 q 104 1111 108 1111 q 91 1119 99 1111 q 82 1131 83 1128 q 140 1197 113 1181 q 207 1214 167 1214 q 244 1204 229 1214 q 275 1175 258 1194 q 305 1147 290 1157 q 340 1138 319 1138 q 397 1154 376 1138 q 428 1190 417 1171 q 444 1210 440 1210 q 458 1201 453 1210 q 465 1189 464 1192 q 419 1126 446 1150 q 340 1103 392 1103 z "},"F":{"ha":478,"x_min":99,"x_max":444,"o":"m 444 972 q 443 944 444 950 q 436 939 442 939 l 132 939 l 132 551 l 417 551 q 415 524 417 529 q 406 518 414 518 l 132 518 l 132 14 q 129 6 132 11 q 118 0 126 0 l 99 0 l 99 958 q 101 967 99 963 q 113 972 104 972 l 444 972 z "},"G":{"ha":576,"x_min":67,"x_max":510,"o":"m 324 -14 q 189 24 244 -14 q 100 171 133 63 q 67 481 67 279 q 102 790 67 679 q 199 944 138 901 q 351 986 261 986 q 451 969 408 986 q 494 932 494 953 q 488 910 494 921 q 430 942 461 931 q 356 953 399 953 q 219 914 275 953 q 132 772 164 875 q 100 481 100 668 q 130 184 100 285 q 208 51 160 83 q 326 19 256 19 q 426 44 385 19 q 476 93 467 69 l 476 500 l 303 500 l 303 519 q 317 533 303 533 l 510 533 l 510 83 q 451 19 496 51 q 324 -14 407 -14 z "},"Ğ":{"ha":576,"x_min":67,"x_max":510,"o":"m 324 -14 q 189 24 244 -14 q 100 171 133 63 q 67 481 67 279 q 102 790 67 679 q 199 944 138 901 q 351 986 261 986 q 451 969 408 986 q 494 932 494 953 q 488 910 494 921 q 430 942 461 931 q 356 953 399 953 q 219 914 275 953 q 132 772 164 875 q 100 481 100 668 q 130 184 100 285 q 208 51 160 83 q 326 19 256 19 q 426 44 385 19 q 476 93 467 69 l 476 500 l 303 500 l 303 519 q 317 533 303 533 l 510 533 l 510 83 q 451 19 496 51 q 324 -14 407 -14 m 315 1090 q 231 1120 267 1090 q 176 1188 194 1150 q 157 1242 157 1225 q 164 1255 157 1251 q 183 1260 171 1258 q 232 1164 201 1204 q 317 1124 263 1124 q 394 1156 368 1124 q 440 1246 419 1189 q 456 1257 444 1257 q 468 1252 463 1257 q 475 1240 474 1247 q 420 1135 458 1181 q 315 1090 382 1090 z "},"Ģ":{"ha":576,"x_min":67,"x_max":510,"o":"m 324 -14 q 189 24 244 -14 q 100 171 133 63 q 67 481 67 279 q 102 790 67 679 q 199 944 138 901 q 351 986 261 986 q 451 969 408 986 q 494 932 494 953 q 488 910 494 921 q 430 942 461 931 q 356 953 399 953 q 219 914 275 953 q 132 772 164 875 q 100 481 100 668 q 130 184 100 285 q 208 51 160 83 q 326 19 256 19 q 426 44 385 19 q 476 93 467 69 l 476 500 l 303 500 l 303 519 q 317 533 303 533 l 510 533 l 510 83 q 451 19 496 51 q 324 -14 407 -14 m 274 -326 q 263 -321 268 -326 q 256 -310 257 -315 q 299 -165 300 -233 q 284 -149 290 -160 q 278 -125 278 -137 q 288 -97 278 -107 q 314 -86 297 -86 q 340 -96 332 -86 q 349 -133 349 -106 q 334 -213 349 -168 q 301 -292 319 -258 q 274 -326 283 -326 z "},"H":{"ha":638,"x_min":94,"x_max":543,"o":"m 510 958 q 515 970 510 968 q 543 972 519 972 l 543 14 q 539 2 543 4 q 510 0 535 0 l 510 518 l 128 518 l 128 14 q 124 2 128 4 q 94 0 119 0 l 94 958 q 99 970 94 968 q 128 972 103 972 l 128 551 l 510 551 l 510 958 z "},"I":{"ha":224,"x_min":94,"x_max":129,"o":"m 94 950 q 99 969 94 967 q 129 972 104 972 l 129 14 q 124 2 129 4 q 94 0 119 0 l 94 950 z "},"Ĳ":{"ha":636,"x_min":94,"x_max":542,"o":"m 94 950 q 99 969 94 967 q 129 972 104 972 l 129 14 q 124 2 129 4 q 94 0 119 0 l 94 950 m 385 -14 q 292 6 331 -14 q 253 49 253 26 q 264 75 253 64 q 383 19 310 19 q 467 52 440 19 q 501 133 494 85 q 508 256 508 181 l 508 951 q 513 969 508 967 q 542 972 517 972 l 542 239 q 533 115 542 167 q 490 24 525 63 q 385 -14 456 -14 z "},"Í":{"ha":224,"x_min":7,"x_max":218,"o":"m 94 950 q 99 969 94 967 q 129 972 104 972 l 129 14 q 124 2 129 4 q 94 0 119 0 l 94 950 m 7 1104 q 123 1206 64 1158 q 200 1267 182 1254 q 212 1253 207 1267 q 218 1235 217 1240 q 145 1174 203 1221 q 21 1082 88 1128 l 7 1104 z "},"Î":{"ha":224,"x_min":-46,"x_max":271,"o":"m 94 950 q 99 969 94 967 q 129 972 104 972 l 129 14 q 124 2 129 4 q 94 0 119 0 l 94 950 m 117 1215 q 42 1140 97 1194 q -19 1085 -14 1085 q -39 1092 -32 1085 q -46 1103 -46 1100 l 107 1246 q 118 1249 110 1249 q 138 1239 128 1249 l 271 1106 q 259 1092 268 1101 q 240 1083 250 1083 l 117 1215 z "},"Ï":{"ha":224,"x_min":18,"x_max":208,"o":"m 94 950 q 99 969 94 967 q 129 972 104 972 l 129 14 q 124 2 129 4 q 94 0 119 0 l 94 950 m 42 1131 q 18 1164 18 1132 q 44 1208 18 1208 q 69 1172 69 1208 q 63 1141 69 1151 q 42 1131 57 1131 m 181 1131 q 157 1164 157 1132 q 183 1208 157 1208 q 208 1172 208 1208 q 202 1141 208 1151 q 181 1131 196 1131 z "},"İ":{"ha":224,"x_min":88,"x_max":139,"o":"m 94 950 q 99 969 94 967 q 129 972 104 972 l 129 14 q 124 2 129 4 q 94 0 119 0 l 94 950 m 111 1131 q 88 1164 88 1132 q 114 1208 88 1208 q 139 1172 139 1208 q 133 1141 139 1151 q 111 1131 126 1131 z "},"Ị":{"ha":224,"x_min":88,"x_max":139,"o":"m 94 950 q 99 969 94 967 q 129 972 104 972 l 129 14 q 124 2 129 4 q 94 0 119 0 l 94 950 m 111 -187 q 88 -154 88 -186 q 114 -110 88 -110 q 139 -146 139 -110 q 133 -178 139 -168 q 111 -187 126 -187 z "},"Ì":{"ha":224,"x_min":7,"x_max":218,"o":"m 94 950 q 99 969 94 967 q 129 972 104 972 l 129 14 q 124 2 129 4 q 94 0 119 0 l 94 950 m 204 1082 q 80 1174 138 1128 q 7 1235 22 1221 q 13 1253 8 1240 q 25 1267 18 1267 q 102 1206 43 1254 q 218 1104 161 1158 l 204 1082 z "},"Ỉ":{"ha":224,"x_min":38,"x_max":186,"o":"m 94 950 q 99 969 94 967 q 129 972 104 972 l 129 14 q 124 2 129 4 q 94 0 119 0 l 94 950 m 90 1049 q 90 1053 90 1050 q 89 1063 89 1057 q 93 1083 89 1076 q 118 1108 100 1097 q 140 1128 133 1118 q 147 1158 147 1138 q 92 1217 147 1217 q 38 1200 60 1217 l 38 1233 q 53 1246 38 1239 q 90 1253 69 1253 q 186 1158 186 1253 q 173 1114 186 1129 q 145 1090 160 1099 q 126 1078 131 1081 q 119 1063 121 1072 q 117 1050 117 1053 q 101 1047 114 1047 l 90 1049 z "},"Ī":{"ha":224,"x_min":-56,"x_max":281,"o":"m 94 950 q 99 969 94 967 q 129 972 104 972 l 129 14 q 124 2 129 4 q 94 0 119 0 l 94 950 m -54 1143 q -56 1161 -56 1150 q -40 1178 -53 1178 l 279 1178 q 281 1160 281 1171 q 265 1143 279 1143 l -54 1143 z "},"Į":{"ha":222,"x_min":-10,"x_max":146,"o":"m 89 -271 q 15 -244 40 -271 q -10 -168 -10 -217 q 94 17 -10 -71 l 94 950 q 99 969 94 967 q 128 972 103 972 l 128 14 q 124 3 128 7 q 115 -4 119 -1 q 110 -8 111 -7 q 49 -80 75 -36 q 24 -169 24 -124 q 89 -237 24 -237 q 136 -225 111 -237 q 142 -235 140 -229 q 144 -246 144 -240 q 130 -264 146 -257 q 89 -271 114 -271 z "},"Ĩ":{"ha":224,"x_min":-79,"x_max":304,"o":"m 94 950 q 99 969 94 967 q 129 972 104 972 l 129 14 q 124 2 129 4 q 94 0 119 0 l 94 950 m 179 1103 q 127 1116 147 1103 q 86 1153 107 1129 q 61 1177 71 1169 q 38 1185 51 1185 q -6 1169 11 1185 q -38 1133 -24 1154 q -57 1111 -53 1111 q -70 1119 -62 1111 q -79 1131 -78 1128 q -22 1197 -49 1181 q 46 1214 6 1214 q 83 1204 68 1214 q 114 1175 97 1194 q 144 1147 129 1157 q 179 1138 158 1138 q 235 1154 215 1138 q 267 1190 256 1171 q 283 1210 279 1210 q 297 1201 292 1210 q 304 1189 303 1192 q 258 1126 285 1150 q 179 1103 231 1103 z "},"J":{"ha":413,"x_min":29,"x_max":318,"o":"m 161 -14 q 68 6 107 -14 q 29 49 29 26 q 40 75 29 64 q 160 19 86 19 q 244 52 217 19 q 278 133 271 85 q 285 256 285 181 l 285 951 q 289 969 285 967 q 318 972 293 972 l 318 239 q 310 115 318 167 q 267 24 301 63 q 161 -14 232 -14 z "},"K":{"ha":544,"x_min":94,"x_max":517,"o":"m 514 18 q 517 8 517 10 q 504 -1 517 -1 q 486 0 492 -1 q 385 233 433 142 q 298 374 338 324 q 210 471 258 424 q 128 522 181 500 l 128 14 q 124 2 128 4 q 94 0 119 0 l 94 958 q 99 971 94 969 q 128 972 103 972 l 128 554 l 475 971 q 496 972 482 972 q 511 964 511 972 q 504 951 511 961 l 160 544 q 349 365 258 494 q 514 18 440 235 z "},"Ķ":{"ha":544,"x_min":94,"x_max":517,"o":"m 514 18 q 517 8 517 10 q 504 -1 517 -1 q 486 0 492 -1 q 385 233 433 142 q 298 374 338 324 q 210 471 258 424 q 128 522 181 500 l 128 14 q 124 2 128 4 q 94 0 119 0 l 94 958 q 99 971 94 969 q 128 972 103 972 l 128 554 l 475 971 q 496 972 482 972 q 511 964 511 972 q 504 951 511 961 l 160 544 q 349 365 258 494 q 514 18 440 235 m 243 -326 q 232 -321 238 -326 q 225 -310 226 -315 q 268 -165 269 -233 q 253 -149 260 -160 q 247 -125 247 -137 q 257 -97 247 -107 q 283 -86 267 -86 q 310 -96 301 -86 q 318 -133 318 -106 q 303 -213 318 -168 q 271 -292 289 -258 q 243 -326 253 -326 z "},"L":{"ha":476,"x_min":94,"x_max":449,"o":"m 94 951 q 99 969 94 967 q 131 972 104 972 l 131 32 l 449 32 l 449 14 q 445 3 449 6 q 435 0 442 0 l 94 0 l 94 951 z "},"Ĺ":{"ha":476,"x_min":94,"x_max":449,"o":"m 94 951 q 99 969 94 967 q 131 972 104 972 l 131 32 l 449 32 l 449 14 q 445 3 449 6 q 435 0 442 0 l 94 0 l 94 951 m 133 1104 q 249 1206 190 1158 q 326 1267 308 1254 q 338 1253 333 1267 q 344 1235 343 1240 q 272 1174 329 1221 q 147 1082 214 1128 l 133 1104 z "},"Ľ":{"ha":490,"x_min":94,"x_max":449,"o":"m 94 951 q 99 969 94 967 q 131 972 104 972 l 131 32 l 449 32 l 449 14 q 445 3 449 6 q 435 0 442 0 l 94 0 l 94 951 m 346 639 q 335 644 340 639 q 328 656 329 650 q 351 746 343 690 q 357 842 358 801 q 342 858 349 847 q 336 882 336 869 q 346 910 336 900 q 372 921 356 921 q 399 911 390 921 q 407 874 407 901 q 396 781 407 838 q 370 682 385 725 q 346 639 356 639 z "},"Ļ":{"ha":476,"x_min":94,"x_max":449,"o":"m 94 951 q 99 969 94 967 q 131 972 104 972 l 131 32 l 449 32 l 449 14 q 445 3 449 6 q 435 0 442 0 l 94 0 l 94 951 m 210 -326 q 199 -321 204 -326 q 192 -310 193 -315 q 235 -165 236 -233 q 220 -149 226 -160 q 214 -125 214 -137 q 224 -97 214 -107 q 250 -86 233 -86 q 276 -96 268 -86 q 285 -133 285 -106 q 270 -213 285 -168 q 238 -292 256 -258 q 210 -326 219 -326 z "},"Ŀ":{"ha":490,"x_min":94,"x_max":449,"o":"m 94 951 q 99 969 94 967 q 131 972 104 972 l 131 32 l 449 32 l 449 14 q 445 3 449 6 q 435 0 442 0 l 94 0 l 94 951 m 318 406 q 290 417 300 406 q 281 449 281 429 q 291 478 281 467 q 318 490 301 490 q 347 478 335 490 q 358 449 358 465 q 347 417 358 429 q 318 406 336 406 z "},"Ł":{"ha":476,"x_min":15,"x_max":449,"o":"m 449 32 l 449 14 q 446 6 449 11 q 435 0 443 0 l 94 0 l 94 485 l 24 456 q 15 483 15 476 q 24 493 15 489 l 94 522 l 94 951 q 99 969 94 967 q 131 972 104 972 l 131 536 l 278 596 q 286 568 286 574 q 278 558 286 563 l 131 499 l 131 32 l 449 32 z "},"M":{"ha":708,"x_min":94,"x_max":614,"o":"m 614 972 l 614 14 q 610 2 614 4 q 581 0 606 0 l 581 475 l 581 844 l 458 456 l 371 193 q 356 179 367 179 l 335 179 l 250 456 q 196 625 235 504 q 128 838 157 746 l 128 489 l 128 14 q 124 2 128 4 q 94 0 119 0 l 94 958 q 108 972 94 972 l 124 972 l 297 407 l 353 226 l 407 401 l 581 958 q 584 967 581 961 q 594 972 588 972 l 614 972 z "},"N":{"ha":653,"x_min":94,"x_max":558,"o":"m 525 958 q 529 971 525 969 q 558 972 533 972 l 558 14 q 544 0 558 0 l 528 0 l 346 400 l 128 885 l 128 357 l 128 14 q 124 2 128 4 q 94 0 119 0 l 94 958 q 108 972 94 972 l 125 972 l 303 579 l 525 88 l 525 625 l 525 958 z "},"Ń":{"ha":653,"x_min":94,"x_max":558,"o":"m 525 958 q 529 971 525 969 q 558 972 533 972 l 558 14 q 544 0 558 0 l 528 0 l 346 400 l 128 885 l 128 357 l 128 14 q 124 2 128 4 q 94 0 119 0 l 94 958 q 108 972 94 972 l 125 972 l 303 579 l 525 88 l 525 625 l 525 958 m 221 1104 q 337 1206 278 1158 q 414 1267 396 1254 q 426 1253 421 1267 q 432 1235 431 1240 q 359 1174 417 1221 q 235 1082 301 1128 l 221 1104 z "},"Ň":{"ha":653,"x_min":94,"x_max":558,"o":"m 525 958 q 529 971 525 969 q 558 972 533 972 l 558 14 q 544 0 558 0 l 528 0 l 346 400 l 128 885 l 128 357 l 128 14 q 124 2 128 4 q 94 0 119 0 l 94 958 q 108 972 94 972 l 125 972 l 303 579 l 525 88 l 525 625 l 525 958 m 338 1092 q 258 1160 326 1092 q 167 1253 190 1228 q 175 1264 168 1256 q 190 1272 182 1272 q 256 1210 197 1272 q 336 1126 315 1149 q 419 1224 381 1181 q 469 1281 457 1267 q 486 1258 486 1268 q 417 1170 486 1249 q 338 1092 349 1092 z "},"Ņ":{"ha":653,"x_min":94,"x_max":558,"o":"m 525 958 q 529 971 525 969 q 558 972 533 972 l 558 14 q 544 0 558 0 l 528 0 l 346 400 l 128 885 l 128 357 l 128 14 q 124 2 128 4 q 94 0 119 0 l 94 958 q 108 972 94 972 l 125 972 l 303 579 l 525 88 l 525 625 l 525 958 m 297 -326 q 286 -321 292 -326 q 279 -310 281 -315 q 322 -165 324 -233 q 308 -149 314 -160 q 301 -125 301 -137 q 311 -97 301 -107 q 338 -86 321 -86 q 364 -96 356 -86 q 372 -133 372 -106 q 358 -213 372 -168 q 325 -292 343 -258 q 297 -326 307 -326 z "},"Ñ":{"ha":653,"x_min":94,"x_max":558,"o":"m 525 958 q 529 971 525 969 q 558 972 533 972 l 558 14 q 544 0 558 0 l 528 0 l 346 400 l 128 885 l 128 357 l 128 14 q 124 2 128 4 q 94 0 119 0 l 94 958 q 108 972 94 972 l 125 972 l 303 579 l 525 88 l 525 625 l 525 958 m 393 1103 q 341 1116 361 1103 q 300 1153 321 1129 q 275 1177 285 1169 q 251 1185 265 1185 q 208 1169 225 1185 q 176 1133 190 1154 q 157 1111 161 1111 q 144 1119 151 1111 q 135 1131 136 1128 q 192 1197 165 1181 q 260 1214 219 1214 q 297 1204 282 1214 q 328 1175 311 1194 q 358 1147 343 1157 q 393 1138 372 1138 q 449 1154 429 1138 q 481 1190 469 1171 q 497 1210 493 1210 q 511 1201 506 1210 q 518 1189 517 1192 q 472 1126 499 1150 q 393 1103 444 1103 z "},"O":{"ha":647,"x_min":67,"x_max":581,"o":"m 319 -14 q 174 34 229 -14 q 93 192 119 82 q 67 493 67 303 q 132 870 67 754 q 335 986 197 986 q 478 938 425 986 q 556 783 532 890 q 581 493 581 675 q 553 199 581 310 q 469 37 526 88 q 319 -14 413 -14 m 318 19 q 450 66 400 19 q 524 217 500 113 q 547 497 547 321 q 525 767 547 668 q 456 910 503 867 q 333 953 410 953 q 203 906 254 953 q 126 755 151 860 q 100 476 100 650 q 123 208 100 308 q 193 64 146 108 q 318 19 240 19 z "},"Ó":{"ha":647,"x_min":67,"x_max":581,"o":"m 319 -14 q 174 34 229 -14 q 93 192 119 82 q 67 493 67 303 q 132 870 67 754 q 335 986 197 986 q 478 938 425 986 q 556 783 532 890 q 581 493 581 675 q 553 199 581 310 q 469 37 526 88 q 319 -14 413 -14 m 318 19 q 450 66 400 19 q 524 217 500 113 q 547 497 547 321 q 525 767 547 668 q 456 910 503 867 q 333 953 410 953 q 203 906 254 953 q 126 755 151 860 q 100 476 100 650 q 123 208 100 308 q 193 64 146 108 q 318 19 240 19 m 218 1104 q 334 1206 275 1158 q 411 1267 393 1254 q 423 1253 418 1267 q 429 1235 428 1240 q 356 1174 414 1221 q 232 1082 299 1128 l 218 1104 z "},"Ô":{"ha":647,"x_min":67,"x_max":581,"o":"m 319 -14 q 174 34 229 -14 q 93 192 119 82 q 67 493 67 303 q 132 870 67 754 q 335 986 197 986 q 478 938 425 986 q 556 783 532 890 q 581 493 581 675 q 553 199 581 310 q 469 37 526 88 q 319 -14 413 -14 m 318 19 q 450 66 400 19 q 524 217 500 113 q 547 497 547 321 q 525 767 547 668 q 456 910 503 867 q 333 953 410 953 q 203 906 254 953 q 126 755 151 860 q 100 476 100 650 q 123 208 100 308 q 193 64 146 108 q 318 19 240 19 m 328 1215 q 253 1140 308 1194 q 192 1085 197 1085 q 172 1092 179 1085 q 165 1103 165 1100 l 318 1246 q 329 1249 321 1249 q 349 1239 339 1249 l 482 1106 q 470 1092 479 1101 q 451 1083 461 1083 l 328 1215 z "},"Ố":{"ha":647,"x_min":67,"x_max":686,"o":"m 319 -14 q 174 34 229 -14 q 93 192 119 82 q 67 493 67 303 q 132 870 67 754 q 335 986 197 986 q 478 938 425 986 q 556 783 532 890 q 581 493 581 675 q 553 199 581 310 q 469 37 526 88 q 319 -14 413 -14 m 318 19 q 450 66 400 19 q 524 217 500 113 q 547 497 547 321 q 525 767 547 668 q 456 910 503 867 q 333 953 410 953 q 203 906 254 953 q 126 755 151 860 q 100 476 100 650 q 123 208 100 308 q 193 64 146 108 q 318 19 240 19 m 328 1215 q 253 1140 308 1194 q 192 1085 197 1085 q 172 1092 179 1085 q 165 1103 165 1100 l 318 1246 q 329 1249 321 1249 q 349 1239 339 1249 l 482 1106 q 470 1092 479 1101 q 451 1083 461 1083 l 328 1215 m 475 1222 q 591 1324 532 1276 q 668 1385 650 1372 q 680 1372 675 1385 q 686 1353 685 1358 q 613 1292 671 1339 q 489 1200 556 1246 l 475 1222 z "},"Ộ":{"ha":647,"x_min":67,"x_max":581,"o":"m 319 -14 q 174 34 229 -14 q 93 192 119 82 q 67 493 67 303 q 132 870 67 754 q 335 986 197 986 q 478 938 425 986 q 556 783 532 890 q 581 493 581 675 q 553 199 581 310 q 469 37 526 88 q 319 -14 413 -14 m 318 19 q 450 66 400 19 q 524 217 500 113 q 547 497 547 321 q 525 767 547 668 q 456 910 503 867 q 333 953 410 953 q 203 906 254 953 q 126 755 151 860 q 100 476 100 650 q 123 208 100 308 q 193 64 146 108 q 318 19 240 19 m 322 -187 q 299 -154 299 -186 q 325 -110 299 -110 q 350 -146 350 -110 q 344 -178 350 -168 q 322 -187 338 -187 m 328 1215 q 253 1140 308 1194 q 192 1085 197 1085 q 172 1092 179 1085 q 165 1103 165 1100 l 318 1246 q 329 1249 321 1249 q 349 1239 339 1249 l 482 1106 q 470 1092 479 1101 q 451 1083 461 1083 l 328 1215 z "},"Ồ":{"ha":647,"x_min":67,"x_max":581,"o":"m 319 -14 q 174 34 229 -14 q 93 192 119 82 q 67 493 67 303 q 132 870 67 754 q 335 986 197 986 q 478 938 425 986 q 556 783 532 890 q 581 493 581 675 q 553 199 581 310 q 469 37 526 88 q 319 -14 413 -14 m 318 19 q 450 66 400 19 q 524 217 500 113 q 547 497 547 321 q 525 767 547 668 q 456 910 503 867 q 333 953 410 953 q 203 906 254 953 q 126 755 151 860 q 100 476 100 650 q 123 208 100 308 q 193 64 146 108 q 318 19 240 19 m 328 1215 q 253 1140 308 1194 q 192 1085 197 1085 q 172 1092 179 1085 q 165 1103 165 1100 l 318 1246 q 329 1249 321 1249 q 349 1239 339 1249 l 482 1106 q 470 1092 479 1101 q 451 1083 461 1083 l 328 1215 m 450 1251 q 326 1344 383 1297 q 253 1404 268 1390 q 259 1423 254 1410 q 271 1436 264 1436 q 348 1376 289 1424 q 464 1274 407 1328 l 450 1251 z "},"Ổ":{"ha":647,"x_min":67,"x_max":581,"o":"m 319 -14 q 174 34 229 -14 q 93 192 119 82 q 67 493 67 303 q 132 870 67 754 q 335 986 197 986 q 478 938 425 986 q 556 783 532 890 q 581 493 581 675 q 553 199 581 310 q 469 37 526 88 q 319 -14 413 -14 m 318 19 q 450 66 400 19 q 524 217 500 113 q 547 497 547 321 q 525 767 547 668 q 456 910 503 867 q 333 953 410 953 q 203 906 254 953 q 126 755 151 860 q 100 476 100 650 q 123 208 100 308 q 193 64 146 108 q 318 19 240 19 m 328 1215 q 253 1140 308 1194 q 192 1085 197 1085 q 172 1092 179 1085 q 165 1103 165 1100 l 318 1246 q 329 1249 321 1249 q 349 1239 339 1249 l 482 1106 q 470 1092 479 1101 q 451 1083 461 1083 l 328 1215 m 469 1214 q 469 1219 469 1215 q 468 1228 468 1222 q 472 1249 468 1242 q 497 1274 479 1263 q 519 1293 513 1283 q 526 1324 526 1303 q 471 1382 526 1382 q 417 1365 439 1382 l 417 1399 q 433 1411 417 1404 q 469 1418 449 1418 q 565 1324 565 1418 q 552 1279 565 1294 q 524 1255 539 1264 q 506 1243 510 1246 q 498 1228 500 1238 q 496 1215 496 1218 q 481 1213 493 1213 l 469 1214 z "},"Ỗ":{"ha":647,"x_min":67,"x_max":581,"o":"m 319 -14 q 174 34 229 -14 q 93 192 119 82 q 67 493 67 303 q 132 870 67 754 q 335 986 197 986 q 478 938 425 986 q 556 783 532 890 q 581 493 581 675 q 553 199 581 310 q 469 37 526 88 q 319 -14 413 -14 m 318 19 q 450 66 400 19 q 524 217 500 113 q 547 497 547 321 q 525 767 547 668 q 456 910 503 867 q 333 953 410 953 q 203 906 254 953 q 126 755 151 860 q 100 476 100 650 q 123 208 100 308 q 193 64 146 108 q 318 19 240 19 m 328 1215 q 253 1140 308 1194 q 192 1085 197 1085 q 172 1092 179 1085 q 165 1103 165 1100 l 318 1246 q 329 1249 321 1249 q 349 1239 339 1249 l 482 1106 q 470 1092 479 1101 q 451 1083 461 1083 l 328 1215 m 411 1283 q 359 1297 379 1283 q 318 1333 339 1310 q 293 1358 303 1350 q 269 1365 283 1365 q 226 1350 243 1365 q 194 1313 208 1335 q 175 1292 179 1292 q 162 1300 169 1292 q 153 1311 154 1308 q 210 1378 183 1361 q 278 1394 238 1394 q 315 1385 300 1394 q 346 1356 329 1375 q 376 1328 361 1338 q 411 1318 390 1318 q 467 1335 447 1318 q 499 1371 488 1351 q 515 1390 511 1390 q 529 1381 524 1390 q 536 1369 535 1372 q 490 1307 517 1331 q 411 1283 463 1283 z "},"Ö":{"ha":647,"x_min":67,"x_max":581,"o":"m 319 -14 q 174 34 229 -14 q 93 192 119 82 q 67 493 67 303 q 132 870 67 754 q 335 986 197 986 q 478 938 425 986 q 556 783 532 890 q 581 493 581 675 q 553 199 581 310 q 469 37 526 88 q 319 -14 413 -14 m 318 19 q 450 66 400 19 q 524 217 500 113 q 547 497 547 321 q 525 767 547 668 q 456 910 503 867 q 333 953 410 953 q 203 906 254 953 q 126 755 151 860 q 100 476 100 650 q 123 208 100 308 q 193 64 146 108 q 318 19 240 19 m 253 1131 q 229 1164 229 1132 q 256 1208 229 1208 q 281 1172 281 1208 q 274 1141 281 1151 q 253 1131 268 1131 m 392 1131 q 368 1164 368 1132 q 394 1208 368 1208 q 419 1172 419 1208 q 413 1141 419 1151 q 392 1131 407 1131 z "},"Ọ":{"ha":647,"x_min":67,"x_max":581,"o":"m 319 -14 q 174 34 229 -14 q 93 192 119 82 q 67 493 67 303 q 132 870 67 754 q 335 986 197 986 q 478 938 425 986 q 556 783 532 890 q 581 493 581 675 q 553 199 581 310 q 469 37 526 88 q 319 -14 413 -14 m 318 19 q 450 66 400 19 q 524 217 500 113 q 547 497 547 321 q 525 767 547 668 q 456 910 503 867 q 333 953 410 953 q 203 906 254 953 q 126 755 151 860 q 100 476 100 650 q 123 208 100 308 q 193 64 146 108 q 318 19 240 19 m 322 -187 q 299 -154 299 -186 q 325 -110 299 -110 q 350 -146 350 -110 q 344 -178 350 -168 q 322 -187 338 -187 z "},"Ò":{"ha":647,"x_min":67,"x_max":581,"o":"m 319 -14 q 174 34 229 -14 q 93 192 119 82 q 67 493 67 303 q 132 870 67 754 q 335 986 197 986 q 478 938 425 986 q 556 783 532 890 q 581 493 581 675 q 553 199 581 310 q 469 37 526 88 q 319 -14 413 -14 m 318 19 q 450 66 400 19 q 524 217 500 113 q 547 497 547 321 q 525 767 547 668 q 456 910 503 867 q 333 953 410 953 q 203 906 254 953 q 126 755 151 860 q 100 476 100 650 q 123 208 100 308 q 193 64 146 108 q 318 19 240 19 m 415 1082 q 291 1174 349 1128 q 218 1235 233 1221 q 224 1253 219 1240 q 236 1267 229 1267 q 313 1206 254 1254 q 429 1104 372 1158 l 415 1082 z "},"Ỏ":{"ha":647,"x_min":67,"x_max":581,"o":"m 319 -14 q 174 34 229 -14 q 93 192 119 82 q 67 493 67 303 q 132 870 67 754 q 335 986 197 986 q 478 938 425 986 q 556 783 532 890 q 581 493 581 675 q 553 199 581 310 q 469 37 526 88 q 319 -14 413 -14 m 318 19 q 450 66 400 19 q 524 217 500 113 q 547 497 547 321 q 525 767 547 668 q 456 910 503 867 q 333 953 410 953 q 203 906 254 953 q 126 755 151 860 q 100 476 100 650 q 123 208 100 308 q 193 64 146 108 q 318 19 240 19 m 301 1049 q 301 1053 301 1050 q 300 1063 300 1057 q 304 1083 300 1076 q 329 1108 311 1097 q 351 1128 344 1118 q 358 1158 358 1138 q 303 1217 358 1217 q 249 1200 271 1217 l 249 1233 q 265 1246 249 1239 q 301 1253 281 1253 q 397 1158 397 1253 q 384 1114 397 1129 q 356 1090 371 1099 q 338 1078 342 1081 q 330 1063 332 1072 q 328 1050 328 1053 q 313 1047 325 1047 l 301 1049 z "},"Ơ":{"ha":647,"x_min":67,"x_max":581,"o":"m 471 944 q 555 789 529 897 q 581 493 581 681 q 553 199 581 310 q 469 37 526 88 q 319 -14 413 -14 q 174 34 229 -14 q 93 192 119 82 q 67 493 67 303 q 132 870 67 754 q 335 986 197 986 q 425 971 389 986 q 494 995 476 972 q 513 1064 513 1018 q 517 1073 513 1069 q 526 1076 521 1076 q 541 1072 535 1076 q 547 1058 547 1067 q 531 988 550 1019 q 471 944 513 957 m 318 19 q 450 66 400 19 q 524 217 500 113 q 547 497 547 321 q 525 767 547 668 q 456 910 503 867 q 333 953 410 953 q 203 906 254 953 q 126 755 151 860 q 100 476 100 650 q 123 208 100 308 q 193 64 146 108 q 318 19 240 19 z "},"Ớ":{"ha":647,"x_min":67,"x_max":581,"o":"m 471 944 q 555 789 529 897 q 581 493 581 681 q 553 199 581 310 q 469 37 526 88 q 319 -14 413 -14 q 174 34 229 -14 q 93 192 119 82 q 67 493 67 303 q 132 870 67 754 q 335 986 197 986 q 425 971 389 986 q 494 995 476 972 q 513 1064 513 1018 q 517 1073 513 1069 q 526 1076 521 1076 q 541 1072 535 1076 q 547 1058 547 1067 q 531 988 550 1019 q 471 944 513 957 m 318 19 q 450 66 400 19 q 524 217 500 113 q 547 497 547 321 q 525 767 547 668 q 456 910 503 867 q 333 953 410 953 q 203 906 254 953 q 126 755 151 860 q 100 476 100 650 q 123 208 100 308 q 193 64 146 108 q 318 19 240 19 m 218 1104 q 334 1206 275 1158 q 411 1267 393 1254 q 423 1253 418 1267 q 429 1235 428 1240 q 356 1174 414 1221 q 232 1082 297 1128 l 218 1104 z "},"Ợ":{"ha":647,"x_min":67,"x_max":581,"o":"m 471 944 q 555 789 529 897 q 581 493 581 681 q 553 199 581 310 q 469 37 526 88 q 319 -14 413 -14 q 174 34 229 -14 q 93 192 119 82 q 67 493 67 303 q 132 870 67 754 q 335 986 197 986 q 425 971 389 986 q 494 995 476 972 q 513 1064 513 1018 q 517 1073 513 1069 q 526 1076 521 1076 q 541 1072 535 1076 q 547 1058 547 1067 q 531 988 550 1019 q 471 944 513 957 m 318 19 q 450 66 400 19 q 524 217 500 113 q 547 497 547 321 q 525 767 547 668 q 456 910 503 867 q 333 953 410 953 q 203 906 254 953 q 126 755 151 860 q 100 476 100 650 q 123 208 100 308 q 193 64 146 108 q 318 19 240 19 m 322 -187 q 299 -154 299 -186 q 325 -110 299 -110 q 350 -146 350 -110 q 344 -178 350 -168 q 322 -187 338 -187 z "},"Ờ":{"ha":647,"x_min":67,"x_max":581,"o":"m 471 944 q 555 789 529 897 q 581 493 581 681 q 553 199 581 310 q 469 37 526 88 q 319 -14 413 -14 q 174 34 229 -14 q 93 192 119 82 q 67 493 67 303 q 132 870 67 754 q 335 986 197 986 q 425 971 389 986 q 494 995 476 972 q 513 1064 513 1018 q 517 1073 513 1069 q 526 1076 521 1076 q 541 1072 535 1076 q 547 1058 547 1067 q 531 988 550 1019 q 471 944 513 957 m 318 19 q 450 66 400 19 q 524 217 500 113 q 547 497 547 321 q 525 767 547 668 q 456 910 503 867 q 333 953 410 953 q 203 906 254 953 q 126 755 151 860 q 100 476 100 650 q 123 208 100 308 q 193 64 146 108 q 318 19 240 19 m 415 1082 q 292 1174 350 1128 q 218 1235 233 1221 q 224 1253 219 1240 q 236 1267 229 1267 q 313 1206 254 1254 q 429 1104 372 1158 l 415 1082 z "},"Ở":{"ha":647,"x_min":67,"x_max":581,"o":"m 471 944 q 555 789 529 897 q 581 493 581 681 q 553 199 581 310 q 469 37 526 88 q 319 -14 413 -14 q 174 34 229 -14 q 93 192 119 82 q 67 493 67 303 q 132 870 67 754 q 335 986 197 986 q 425 971 389 986 q 494 995 476 972 q 513 1064 513 1018 q 517 1073 513 1069 q 526 1076 521 1076 q 541 1072 535 1076 q 547 1058 547 1067 q 531 988 550 1019 q 471 944 513 957 m 318 19 q 450 66 400 19 q 524 217 500 113 q 547 497 547 321 q 525 767 547 668 q 456 910 503 867 q 333 953 410 953 q 203 906 254 953 q 126 755 151 860 q 100 476 100 650 q 123 208 100 308 q 193 64 146 108 q 318 19 240 19 m 301 1049 q 301 1053 301 1050 q 300 1063 300 1057 q 304 1083 300 1076 q 329 1108 311 1097 q 351 1128 344 1118 q 358 1158 358 1138 q 303 1217 358 1217 q 249 1200 271 1217 l 249 1233 q 265 1246 249 1239 q 301 1253 281 1253 q 397 1158 397 1253 q 384 1114 397 1129 q 356 1090 371 1099 q 338 1078 342 1081 q 330 1063 332 1072 q 328 1050 328 1053 q 313 1047 325 1047 l 301 1049 z "},"Ỡ":{"ha":647,"x_min":67,"x_max":581,"o":"m 471 944 q 555 789 529 897 q 581 493 581 681 q 553 199 581 310 q 469 37 526 88 q 319 -14 413 -14 q 174 34 229 -14 q 93 192 119 82 q 67 493 67 303 q 132 870 67 754 q 335 986 197 986 q 425 971 389 986 q 494 995 476 972 q 513 1064 513 1018 q 517 1073 513 1069 q 526 1076 521 1076 q 541 1072 535 1076 q 547 1058 547 1067 q 531 988 550 1019 q 471 944 513 957 m 318 19 q 450 66 400 19 q 524 217 500 113 q 547 497 547 321 q 525 767 547 668 q 456 910 503 867 q 333 953 410 953 q 203 906 254 953 q 126 755 151 860 q 100 476 100 650 q 123 208 100 308 q 193 64 146 108 q 318 19 240 19 m 390 1103 q 338 1116 358 1103 q 297 1153 318 1129 q 272 1177 282 1169 q 249 1185 263 1185 q 205 1169 222 1185 q 173 1133 188 1154 q 154 1111 158 1111 q 141 1119 149 1111 q 132 1131 133 1128 q 190 1197 163 1181 q 257 1214 217 1214 q 294 1204 279 1214 q 325 1175 308 1194 q 355 1147 340 1157 q 390 1138 369 1138 q 447 1154 426 1138 q 478 1190 467 1171 q 494 1210 490 1210 q 508 1201 503 1210 q 515 1189 514 1192 q 469 1126 496 1150 q 390 1103 442 1103 z "},"Ő":{"ha":647,"x_min":67,"x_max":581,"o":"m 319 -14 q 174 34 229 -14 q 93 192 119 82 q 67 493 67 303 q 132 870 67 754 q 335 986 197 986 q 478 938 425 986 q 556 783 532 890 q 581 493 581 675 q 553 199 581 310 q 469 37 526 88 q 319 -14 413 -14 m 318 19 q 450 66 400 19 q 524 217 500 113 q 547 497 547 321 q 525 767 547 668 q 456 910 503 867 q 333 953 410 953 q 203 906 254 953 q 126 755 151 860 q 100 476 100 650 q 123 208 100 308 q 193 64 146 108 q 318 19 240 19 m 207 1097 q 289 1209 246 1156 q 344 1278 332 1263 l 346 1278 q 360 1267 353 1278 q 368 1251 367 1256 q 316 1185 357 1236 q 225 1079 275 1133 l 207 1097 m 346 1097 q 428 1209 385 1156 q 483 1278 471 1263 l 485 1278 q 499 1267 492 1278 q 507 1251 506 1256 q 455 1185 496 1236 q 364 1079 414 1133 l 346 1097 z "},"Ō":{"ha":647,"x_min":67,"x_max":581,"o":"m 319 -14 q 174 34 229 -14 q 93 192 119 82 q 67 493 67 303 q 132 870 67 754 q 335 986 197 986 q 478 938 425 986 q 556 783 532 890 q 581 493 581 675 q 553 199 581 310 q 469 37 526 88 q 319 -14 413 -14 m 318 19 q 450 66 400 19 q 524 217 500 113 q 547 497 547 321 q 525 767 547 668 q 456 910 503 867 q 333 953 410 953 q 203 906 254 953 q 126 755 151 860 q 100 476 100 650 q 123 208 100 308 q 193 64 146 108 q 318 19 240 19 m 157 1143 q 156 1161 156 1150 q 171 1178 158 1178 l 490 1178 q 492 1160 492 1171 q 476 1143 490 1143 l 157 1143 z "},"Ø":{"ha":647,"x_min":67,"x_max":581,"o":"m 508 901 q 563 745 546 844 q 581 493 581 646 q 553 199 581 310 q 469 37 526 88 q 319 -14 413 -14 q 158 50 214 -14 l 128 -24 l 124 -24 q 101 -10 104 -24 l 138 78 q 84 236 101 135 q 67 493 67 338 q 131 870 67 754 q 332 986 194 986 q 488 928 431 986 l 515 999 q 523 998 517 999 q 535 994 529 997 q 542 985 540 990 l 508 901 m 333 953 q 203 906 254 953 q 126 755 151 860 q 100 476 100 650 q 157 114 100 218 l 469 894 q 333 953 422 953 m 318 19 q 450 66 400 19 q 524 217 500 113 q 547 497 547 321 q 490 865 547 764 l 176 83 q 318 19 226 19 z "},"Õ":{"ha":647,"x_min":67,"x_max":581,"o":"m 319 -14 q 174 34 229 -14 q 93 192 119 82 q 67 493 67 303 q 132 870 67 754 q 335 986 197 986 q 478 938 425 986 q 556 783 532 890 q 581 493 581 675 q 553 199 581 310 q 469 37 526 88 q 319 -14 413 -14 m 318 19 q 450 66 400 19 q 524 217 500 113 q 547 497 547 321 q 525 767 547 668 q 456 910 503 867 q 333 953 410 953 q 203 906 254 953 q 126 755 151 860 q 100 476 100 650 q 123 208 100 308 q 193 64 146 108 q 318 19 240 19 m 390 1103 q 338 1116 358 1103 q 297 1153 318 1129 q 272 1177 282 1169 q 249 1185 263 1185 q 205 1169 222 1185 q 173 1133 188 1154 q 154 1111 158 1111 q 141 1119 149 1111 q 132 1131 133 1128 q 190 1197 163 1181 q 257 1214 217 1214 q 294 1204 279 1214 q 325 1175 308 1194 q 355 1147 340 1157 q 390 1138 369 1138 q 447 1154 426 1138 q 478 1190 467 1171 q 494 1210 490 1210 q 508 1201 503 1210 q 515 1189 514 1192 q 469 1126 496 1150 q 390 1103 442 1103 z "},"Œ":{"ha":931,"x_min":67,"x_max":882,"o":"m 882 33 q 881 6 882 11 q 871 0 879 0 l 533 0 l 533 160 q 455 27 507 68 q 319 -14 403 -14 q 174 34 229 -14 q 93 192 119 82 q 67 493 67 303 q 131 870 67 754 q 332 986 194 986 q 460 949 411 986 q 533 831 508 913 l 533 958 q 536 967 533 963 q 547 972 539 972 l 879 972 q 878 944 879 950 q 871 939 876 939 l 567 939 l 567 550 l 851 550 q 850 522 851 528 q 840 517 849 517 l 567 517 l 567 33 l 882 33 m 318 19 q 445 65 399 19 q 513 215 492 111 q 533 497 533 318 q 515 769 533 671 q 452 910 496 868 q 333 953 408 953 q 203 906 254 953 q 126 755 151 860 q 100 476 100 650 q 123 208 100 308 q 193 64 146 108 q 318 19 240 19 z "},"P":{"ha":529,"x_min":94,"x_max":488,"o":"m 260 972 q 434 901 381 972 q 488 719 488 829 q 426 505 488 579 q 249 431 364 431 l 128 431 l 128 14 q 124 2 128 4 q 94 0 119 0 l 94 958 q 108 972 94 972 l 260 972 m 247 464 q 403 532 351 464 q 454 719 454 600 q 408 878 454 818 q 253 939 363 939 l 128 939 l 128 464 l 247 464 z "},"Þ":{"ha":529,"x_min":94,"x_max":488,"o":"m 94 961 q 100 970 94 968 q 118 972 106 972 l 128 972 l 128 776 l 260 776 q 434 705 381 776 q 488 524 488 633 q 426 309 488 383 q 249 235 364 235 l 128 235 l 128 14 q 124 2 128 4 q 94 0 119 0 l 94 961 m 247 268 q 403 336 351 268 q 454 524 454 404 q 408 683 454 622 q 253 743 363 743 l 128 743 l 128 268 l 247 268 z "},"Q":{"ha":647,"x_min":67,"x_max":581,"o":"m 447 -149 q 540 -125 506 -149 q 549 -146 549 -133 q 517 -169 549 -158 q 443 -179 485 -179 q 362 -142 392 -179 q 315 -14 332 -104 q 172 35 226 -12 q 92 194 118 83 q 67 493 67 304 q 132 870 67 754 q 335 986 197 986 q 478 938 425 986 q 556 783 532 890 q 581 493 581 675 q 556 211 581 319 q 482 49 532 103 q 350 -12 432 -4 q 387 -120 365 -92 q 447 -149 408 -149 m 100 476 q 123 208 100 308 q 193 64 146 108 q 318 19 240 19 q 450 66 400 19 q 524 217 500 113 q 547 497 547 321 q 525 767 547 668 q 456 910 503 867 q 333 953 410 953 q 203 906 254 953 q 126 755 151 860 q 100 476 100 650 z "},"R":{"ha":535,"x_min":94,"x_max":488,"o":"m 318 439 q 408 272 361 379 q 472 17 454 164 l 472 11 q 469 3 472 6 q 458 0 467 1 l 440 0 q 365 285 414 178 q 281 432 317 392 q 249 431 271 431 l 128 431 l 128 14 q 124 2 128 4 q 94 0 119 0 l 94 958 q 97 967 94 963 q 108 972 100 972 l 260 972 q 434 901 381 972 q 488 719 488 829 q 444 530 488 601 q 318 439 400 458 m 247 464 q 403 532 351 464 q 454 719 454 600 q 408 878 454 818 q 253 939 363 939 l 128 939 l 128 464 l 247 464 z "},"Ŕ":{"ha":535,"x_min":94,"x_max":488,"o":"m 318 439 q 408 272 361 379 q 472 17 454 164 l 472 11 q 469 3 472 6 q 458 0 467 1 l 440 0 q 365 285 414 178 q 281 432 317 392 q 249 431 271 431 l 128 431 l 128 14 q 124 2 128 4 q 94 0 119 0 l 94 958 q 97 967 94 963 q 108 972 100 972 l 260 972 q 434 901 381 972 q 488 719 488 829 q 444 530 488 601 q 318 439 400 458 m 247 464 q 403 532 351 464 q 454 719 454 600 q 408 878 454 818 q 253 939 363 939 l 128 939 l 128 464 l 247 464 m 135 1104 q 251 1206 192 1158 q 328 1267 310 1254 q 340 1253 335 1267 q 346 1235 344 1240 q 273 1174 331 1221 q 149 1082 215 1128 l 135 1104 z "},"Ř":{"ha":535,"x_min":81,"x_max":488,"o":"m 318 439 q 408 272 361 379 q 472 17 454 164 l 472 11 q 469 3 472 6 q 458 0 467 1 l 440 0 q 365 285 414 178 q 281 432 317 392 q 249 431 271 431 l 128 431 l 128 14 q 124 2 128 4 q 94 0 119 0 l 94 958 q 97 967 94 963 q 108 972 100 972 l 260 972 q 434 901 381 972 q 488 719 488 829 q 444 530 488 601 q 318 439 400 458 m 247 464 q 403 532 351 464 q 454 719 454 600 q 408 878 454 818 q 253 939 363 939 l 128 939 l 128 464 l 247 464 m 251 1092 q 172 1160 240 1092 q 81 1253 104 1228 q 89 1264 82 1256 q 104 1272 96 1272 q 170 1210 111 1272 q 250 1126 229 1149 q 333 1224 294 1181 q 383 1281 371 1267 q 400 1258 400 1268 q 331 1170 400 1249 q 251 1092 263 1092 z "},"Ŗ":{"ha":535,"x_min":94,"x_max":488,"o":"m 318 439 q 408 272 361 379 q 472 17 454 164 l 472 11 q 469 3 472 6 q 458 0 467 1 l 440 0 q 365 285 414 178 q 281 432 317 392 q 249 431 271 431 l 128 431 l 128 14 q 124 2 128 4 q 94 0 119 0 l 94 958 q 97 967 94 963 q 108 972 100 972 l 260 972 q 434 901 381 972 q 488 719 488 829 q 444 530 488 601 q 318 439 400 458 m 247 464 q 403 532 351 464 q 454 719 454 600 q 408 878 454 818 q 253 939 363 939 l 128 939 l 128 464 l 247 464 m 239 -326 q 228 -321 233 -326 q 221 -310 222 -315 q 264 -165 265 -233 q 249 -149 256 -160 q 243 -125 243 -137 q 253 -97 243 -107 q 279 -86 263 -86 q 306 -96 297 -86 q 314 -133 314 -106 q 299 -213 314 -168 q 267 -292 285 -258 q 239 -326 249 -326 z "},"S":{"ha":532,"x_min":58,"x_max":479,"o":"m 242 -14 q 141 -3 182 -14 q 79 24 100 8 q 58 50 58 39 q 75 72 58 67 q 140 33 100 47 q 244 19 179 19 q 396 74 346 19 q 446 224 446 129 q 420 349 446 294 q 331 468 394 404 l 168 618 q 90 715 117 669 q 64 811 64 760 q 125 938 64 889 q 289 986 186 986 q 381 978 343 986 q 438 957 419 969 q 457 933 457 944 q 444 910 457 919 q 381 941 422 928 q 281 954 339 954 q 148 915 199 954 q 97 813 97 875 q 120 731 97 768 q 188 649 143 693 l 369 478 q 455 361 431 417 q 479 231 479 306 q 419 51 479 117 q 242 -14 360 -14 z "},"Ś":{"ha":532,"x_min":58,"x_max":479,"o":"m 242 -14 q 141 -3 182 -14 q 79 24 100 8 q 58 50 58 39 q 75 72 58 67 q 140 33 100 47 q 244 19 179 19 q 396 74 346 19 q 446 224 446 129 q 420 349 446 294 q 331 468 394 404 l 168 618 q 90 715 117 669 q 64 811 64 760 q 125 938 64 889 q 289 986 186 986 q 381 978 343 986 q 438 957 419 969 q 457 933 457 944 q 444 910 457 919 q 381 941 422 928 q 281 954 339 954 q 148 915 199 954 q 97 813 97 875 q 120 731 97 768 q 188 649 143 693 l 369 478 q 455 361 431 417 q 479 231 479 306 q 419 51 479 117 q 242 -14 360 -14 m 161 1104 q 277 1206 218 1158 q 354 1267 336 1254 q 366 1253 361 1267 q 372 1235 371 1240 q 299 1174 357 1221 q 175 1082 242 1128 l 161 1104 z "},"Š":{"ha":532,"x_min":58,"x_max":479,"o":"m 242 -14 q 141 -3 182 -14 q 79 24 100 8 q 58 50 58 39 q 75 72 58 67 q 140 33 100 47 q 244 19 179 19 q 396 74 346 19 q 446 224 446 129 q 420 349 446 294 q 331 468 394 404 l 168 618 q 90 715 117 669 q 64 811 64 760 q 125 938 64 889 q 289 986 186 986 q 381 978 343 986 q 438 957 419 969 q 457 933 457 944 q 444 910 457 919 q 381 941 422 928 q 281 954 339 954 q 148 915 199 954 q 97 813 97 875 q 120 731 97 768 q 188 649 143 693 l 369 478 q 455 361 431 417 q 479 231 479 306 q 419 51 479 117 q 242 -14 360 -14 m 278 1092 q 199 1160 267 1092 q 107 1253 131 1228 q 115 1264 108 1256 q 131 1272 122 1272 q 197 1210 138 1272 q 276 1126 256 1149 q 359 1224 321 1181 q 410 1281 397 1267 q 426 1258 426 1268 q 358 1170 426 1249 q 278 1092 289 1092 z "},"Ş":{"ha":532,"x_min":58,"x_max":479,"o":"m 479 231 q 429 63 479 128 q 279 -12 379 -1 l 264 -85 q 272 -83 265 -85 q 290 -82 279 -82 q 336 -99 317 -82 q 356 -153 356 -117 q 330 -226 356 -206 q 269 -246 304 -246 q 227 -242 247 -246 q 201 -237 207 -239 q 205 -217 201 -231 q 218 -203 208 -203 q 240 -208 222 -203 q 269 -214 257 -214 q 322 -161 322 -214 q 308 -121 322 -131 q 271 -111 294 -111 q 242 -114 257 -111 q 222 -118 226 -117 l 244 -14 l 242 -14 q 141 -3 182 -14 q 79 24 100 8 q 58 50 58 39 q 75 72 58 67 q 140 33 100 47 q 244 19 179 19 q 396 74 346 19 q 446 224 446 129 q 420 349 446 294 q 331 468 394 404 l 168 618 q 90 715 117 669 q 64 811 64 760 q 125 938 64 889 q 289 986 186 986 q 381 978 343 986 q 438 957 419 969 q 457 933 457 944 q 444 910 457 919 q 381 941 422 928 q 281 954 339 954 q 148 915 199 954 q 97 813 97 875 q 120 731 97 768 q 188 649 143 693 l 369 478 q 455 361 431 417 q 479 231 479 306 z "},"Ș":{"ha":532,"x_min":58,"x_max":479,"o":"m 242 -14 q 141 -3 182 -14 q 79 24 100 8 q 58 50 58 39 q 75 72 58 67 q 140 33 100 47 q 244 19 179 19 q 396 74 346 19 q 446 224 446 129 q 420 349 446 294 q 331 468 394 404 l 168 618 q 90 715 117 669 q 64 811 64 760 q 125 938 64 889 q 289 986 186 986 q 381 978 343 986 q 438 957 419 969 q 457 933 457 944 q 444 910 457 919 q 381 941 422 928 q 281 954 339 954 q 148 915 199 954 q 97 813 97 875 q 120 731 97 768 q 188 649 143 693 l 369 478 q 455 361 431 417 q 479 231 479 306 q 419 51 479 117 q 242 -14 360 -14 m 236 -326 q 225 -321 231 -326 q 218 -310 219 -315 q 261 -165 263 -233 q 247 -149 253 -160 q 240 -125 240 -137 q 250 -97 240 -107 q 276 -86 260 -86 q 303 -96 294 -86 q 311 -133 311 -106 q 297 -213 311 -168 q 264 -292 282 -258 q 236 -326 246 -326 z "},"T":{"ha":500,"x_min":7,"x_max":493,"o":"m 493 972 l 493 953 q 479 939 493 939 l 264 939 l 264 13 q 260 1 264 3 q 231 0 256 0 l 231 939 l 7 939 l 7 958 q 21 972 7 972 l 493 972 z "},"Ť":{"ha":500,"x_min":7,"x_max":493,"o":"m 493 972 l 493 953 q 479 939 493 939 l 264 939 l 264 13 q 260 1 264 3 q 231 0 256 0 l 231 939 l 7 939 l 7 958 q 21 972 7 972 l 493 972 m 261 1092 q 182 1160 250 1092 q 90 1253 114 1228 q 99 1264 92 1256 q 114 1272 106 1272 q 180 1210 121 1272 q 260 1126 239 1149 q 342 1224 304 1181 q 393 1281 381 1267 q 410 1258 410 1268 q 341 1170 410 1249 q 261 1092 272 1092 z "},"Ţ":{"ha":500,"x_min":7,"x_max":493,"o":"m 493 972 l 493 953 q 479 939 493 939 l 264 939 l 264 13 q 263 4 264 6 l 264 4 l 244 -85 q 253 -83 246 -85 q 271 -82 260 -82 q 317 -99 297 -82 q 336 -153 336 -117 q 310 -226 336 -206 q 250 -246 285 -246 q 208 -242 228 -246 q 182 -237 188 -239 q 185 -217 182 -231 q 199 -203 189 -203 q 220 -208 203 -203 q 250 -214 238 -214 q 303 -161 303 -214 q 289 -121 303 -131 q 251 -111 275 -111 q 222 -114 238 -111 q 203 -118 207 -117 l 229 4 l 231 4 l 231 939 l 7 939 l 7 958 q 21 972 7 972 l 493 972 z "},"Ț":{"ha":500,"x_min":7,"x_max":493,"o":"m 493 972 l 493 953 q 479 939 493 939 l 264 939 l 264 13 q 260 1 264 3 q 231 0 256 0 l 231 939 l 7 939 l 7 958 q 21 972 7 972 l 493 972 m 217 -326 q 206 -321 211 -326 q 199 -310 200 -315 q 242 -165 243 -233 q 227 -149 233 -160 q 221 -125 221 -137 q 231 -97 221 -107 q 257 -86 240 -86 q 283 -96 275 -86 q 292 -133 292 -106 q 277 -213 292 -168 q 244 -292 263 -258 q 217 -326 226 -326 z "},"U":{"ha":672,"x_min":94,"x_max":578,"o":"m 347 -14 q 183 30 238 -14 q 111 142 128 74 q 94 315 94 211 l 94 958 q 99 971 94 969 q 128 972 103 972 l 128 315 q 142 161 128 224 q 205 59 157 99 q 347 19 253 19 q 460 31 403 19 q 544 57 517 43 l 544 960 q 549 971 544 969 q 578 972 554 972 l 578 32 q 482 0 549 14 q 347 -14 415 -14 z "},"Ú":{"ha":672,"x_min":94,"x_max":578,"o":"m 347 -14 q 183 30 238 -14 q 111 142 128 74 q 94 315 94 211 l 94 958 q 99 971 94 969 q 128 972 103 972 l 128 315 q 142 161 128 224 q 205 59 157 99 q 347 19 253 19 q 460 31 403 19 q 544 57 517 43 l 544 960 q 549 971 544 969 q 578 972 554 972 l 578 32 q 482 0 549 14 q 347 -14 415 -14 m 231 1104 q 347 1206 288 1158 q 424 1267 406 1254 q 435 1253 431 1267 q 442 1235 440 1240 q 369 1174 426 1221 q 244 1082 311 1128 l 231 1104 z "},"Û":{"ha":672,"x_min":94,"x_max":578,"o":"m 347 -14 q 183 30 238 -14 q 111 142 128 74 q 94 315 94 211 l 94 958 q 99 971 94 969 q 128 972 103 972 l 128 315 q 142 161 128 224 q 205 59 157 99 q 347 19 253 19 q 460 31 403 19 q 544 57 517 43 l 544 960 q 549 971 544 969 q 578 972 554 972 l 578 32 q 482 0 549 14 q 347 -14 415 -14 m 340 1215 q 265 1140 321 1194 q 204 1085 210 1085 q 185 1092 192 1085 q 178 1103 178 1100 l 331 1246 q 342 1249 333 1249 q 361 1239 351 1249 l 494 1106 q 483 1092 492 1101 q 464 1083 474 1083 l 340 1215 z "},"Ü":{"ha":672,"x_min":94,"x_max":578,"o":"m 347 -14 q 183 30 238 -14 q 111 142 128 74 q 94 315 94 211 l 94 958 q 99 971 94 969 q 128 972 103 972 l 128 315 q 142 161 128 224 q 205 59 157 99 q 347 19 253 19 q 460 31 403 19 q 544 57 517 43 l 544 960 q 549 971 544 969 q 578 972 554 972 l 578 32 q 482 0 549 14 q 347 -14 415 -14 m 265 1131 q 242 1164 242 1132 q 268 1208 242 1208 q 293 1172 293 1208 q 287 1141 293 1151 q 265 1131 281 1131 m 404 1131 q 381 1164 381 1132 q 407 1208 381 1208 q 432 1172 432 1208 q 426 1141 432 1151 q 404 1131 419 1131 z "},"Ụ":{"ha":672,"x_min":94,"x_max":578,"o":"m 347 -14 q 183 30 238 -14 q 111 142 128 74 q 94 315 94 211 l 94 958 q 99 971 94 969 q 128 972 103 972 l 128 315 q 142 161 128 224 q 205 59 157 99 q 347 19 253 19 q 460 31 403 19 q 544 57 517 43 l 544 960 q 549 971 544 969 q 578 972 554 972 l 578 32 q 482 0 549 14 q 347 -14 415 -14 m 335 -187 q 311 -154 311 -186 q 338 -110 311 -110 q 363 -146 363 -110 q 356 -178 363 -168 q 335 -187 350 -187 z "},"Ù":{"ha":672,"x_min":94,"x_max":578,"o":"m 347 -14 q 183 30 238 -14 q 111 142 128 74 q 94 315 94 211 l 94 958 q 99 971 94 969 q 128 972 103 972 l 128 315 q 142 161 128 224 q 205 59 157 99 q 347 19 253 19 q 460 31 403 19 q 544 57 517 43 l 544 960 q 549 971 544 969 q 578 972 554 972 l 578 32 q 482 0 549 14 q 347 -14 415 -14 m 428 1082 q 303 1174 361 1128 q 231 1235 246 1221 q 237 1253 232 1240 q 249 1267 242 1267 q 326 1206 267 1254 q 442 1104 385 1158 l 428 1082 z "},"Ủ":{"ha":672,"x_min":94,"x_max":578,"o":"m 347 -14 q 183 30 238 -14 q 111 142 128 74 q 94 315 94 211 l 94 958 q 99 971 94 969 q 128 972 103 972 l 128 315 q 142 161 128 224 q 205 59 157 99 q 347 19 253 19 q 460 31 403 19 q 544 57 517 43 l 544 960 q 549 971 544 969 q 578 972 554 972 l 578 32 q 482 0 549 14 q 347 -14 415 -14 m 314 1049 q 313 1053 314 1050 q 313 1063 313 1057 q 317 1083 313 1076 q 342 1108 324 1097 q 364 1128 357 1118 q 371 1158 371 1138 q 315 1217 371 1217 q 261 1200 283 1217 l 261 1233 q 277 1246 261 1239 q 314 1253 293 1253 q 410 1158 410 1253 q 397 1114 410 1129 q 369 1090 383 1099 q 350 1078 354 1081 q 342 1063 344 1072 q 340 1050 340 1053 q 325 1047 338 1047 l 314 1049 z "},"Ư":{"ha":672,"x_min":94,"x_max":682,"o":"m 679 1058 q 658 980 682 1013 q 578 939 633 947 l 578 32 q 482 0 549 14 q 347 -14 415 -14 q 183 30 238 -14 q 111 142 128 74 q 94 315 94 211 l 94 958 q 99 971 94 969 q 128 972 103 972 l 128 315 q 142 161 128 224 q 205 59 157 99 q 347 19 253 19 q 460 31 403 19 q 544 57 517 43 l 544 960 q 549 970 544 968 q 575 972 554 972 q 630 1000 615 978 q 644 1064 644 1022 q 649 1073 644 1069 q 658 1076 653 1076 q 673 1072 667 1076 q 679 1058 679 1067 z "},"Ứ":{"ha":672,"x_min":94,"x_max":679,"o":"m 679 1058 q 658 980 682 1013 q 578 939 633 947 l 578 32 q 482 0 549 14 q 347 -14 415 -14 q 183 30 238 -14 q 111 142 128 74 q 94 315 94 211 l 94 958 q 99 971 94 969 q 128 972 103 972 l 128 315 q 142 161 128 224 q 205 59 157 99 q 347 19 253 19 q 460 31 403 19 q 544 57 517 43 l 544 960 q 549 970 544 968 q 575 972 554 972 q 630 1000 615 978 q 644 1064 644 1022 q 649 1073 644 1069 q 658 1076 653 1076 q 673 1072 667 1076 q 679 1058 679 1067 m 231 1104 q 347 1206 288 1158 q 424 1267 406 1254 q 435 1253 431 1267 q 442 1235 440 1240 q 368 1174 426 1221 q 244 1082 310 1128 l 231 1104 z "},"Ự":{"ha":672,"x_min":94,"x_max":679,"o":"m 679 1058 q 658 980 682 1013 q 578 939 633 947 l 578 32 q 482 0 549 14 q 347 -14 415 -14 q 183 30 238 -14 q 111 142 128 74 q 94 315 94 211 l 94 958 q 99 971 94 969 q 128 972 103 972 l 128 315 q 142 161 128 224 q 205 59 157 99 q 347 19 253 19 q 460 31 403 19 q 544 57 517 43 l 544 960 q 549 970 544 968 q 575 972 554 972 q 630 1000 615 978 q 644 1064 644 1022 q 649 1073 644 1069 q 658 1076 653 1076 q 673 1072 667 1076 q 679 1058 679 1067 m 335 -187 q 311 -154 311 -186 q 338 -110 311 -110 q 363 -146 363 -110 q 356 -178 363 -168 q 335 -187 350 -187 z "},"Ừ":{"ha":672,"x_min":94,"x_max":679,"o":"m 679 1058 q 658 980 682 1013 q 578 939 633 947 l 578 32 q 482 0 549 14 q 347 -14 415 -14 q 183 30 238 -14 q 111 142 128 74 q 94 315 94 211 l 94 958 q 99 971 94 969 q 128 972 103 972 l 128 315 q 142 161 128 224 q 205 59 157 99 q 347 19 253 19 q 460 31 403 19 q 544 57 517 43 l 544 960 q 549 970 544 968 q 575 972 554 972 q 630 1000 615 978 q 644 1064 644 1022 q 649 1073 644 1069 q 658 1076 653 1076 q 673 1072 667 1076 q 679 1058 679 1067 m 428 1082 q 304 1174 363 1128 q 231 1235 246 1221 q 237 1253 232 1240 q 249 1267 242 1267 q 326 1206 267 1254 q 442 1104 385 1158 l 428 1082 z "},"Ử":{"ha":672,"x_min":94,"x_max":679,"o":"m 679 1058 q 658 980 682 1013 q 578 939 633 947 l 578 32 q 482 0 549 14 q 347 -14 415 -14 q 183 30 238 -14 q 111 142 128 74 q 94 315 94 211 l 94 958 q 99 971 94 969 q 128 972 103 972 l 128 315 q 142 161 128 224 q 205 59 157 99 q 347 19 253 19 q 460 31 403 19 q 544 57 517 43 l 544 960 q 549 970 544 968 q 575 972 554 972 q 630 1000 615 978 q 644 1064 644 1022 q 649 1073 644 1069 q 658 1076 653 1076 q 673 1072 667 1076 q 679 1058 679 1067 m 314 1049 q 313 1053 314 1050 q 313 1063 313 1057 q 317 1083 313 1076 q 342 1108 324 1097 q 364 1128 357 1118 q 371 1158 371 1138 q 315 1217 371 1217 q 261 1200 283 1217 l 261 1233 q 277 1246 261 1239 q 314 1253 293 1253 q 410 1158 410 1253 q 397 1114 410 1129 q 369 1090 383 1099 q 350 1078 354 1081 q 342 1063 344 1072 q 340 1050 340 1053 q 325 1047 338 1047 l 314 1049 z "},"Ữ":{"ha":672,"x_min":94,"x_max":679,"o":"m 679 1058 q 658 980 682 1013 q 578 939 633 947 l 578 32 q 482 0 549 14 q 347 -14 415 -14 q 183 30 238 -14 q 111 142 128 74 q 94 315 94 211 l 94 958 q 99 971 94 969 q 128 972 103 972 l 128 315 q 142 161 128 224 q 205 59 157 99 q 347 19 253 19 q 460 31 403 19 q 544 57 517 43 l 544 960 q 549 970 544 968 q 575 972 554 972 q 630 1000 615 978 q 644 1064 644 1022 q 649 1073 644 1069 q 658 1076 653 1076 q 673 1072 667 1076 q 679 1058 679 1067 m 403 1103 q 351 1116 371 1103 q 310 1153 331 1129 q 285 1177 294 1169 q 261 1185 275 1185 q 217 1169 235 1185 q 185 1133 200 1154 q 167 1111 171 1111 q 153 1119 161 1111 q 144 1131 146 1128 q 202 1197 175 1181 q 269 1214 229 1214 q 306 1204 292 1214 q 338 1175 321 1194 q 367 1147 353 1157 q 403 1138 382 1138 q 459 1154 439 1138 q 491 1190 479 1171 q 507 1210 503 1210 q 521 1201 515 1210 q 528 1189 526 1192 q 481 1126 508 1150 q 403 1103 454 1103 z "},"Ű":{"ha":672,"x_min":94,"x_max":578,"o":"m 347 -14 q 183 30 238 -14 q 111 142 128 74 q 94 315 94 211 l 94 958 q 99 971 94 969 q 128 972 103 972 l 128 315 q 142 161 128 224 q 205 59 157 99 q 347 19 253 19 q 460 31 403 19 q 544 57 517 43 l 544 960 q 549 971 544 969 q 578 972 554 972 l 578 32 q 482 0 549 14 q 347 -14 415 -14 m 219 1097 q 301 1209 258 1156 q 357 1278 344 1263 l 358 1278 q 372 1267 365 1278 q 381 1251 379 1256 q 328 1185 369 1236 q 238 1079 288 1133 l 219 1097 m 358 1097 q 440 1209 397 1156 q 496 1278 483 1263 l 497 1278 q 511 1267 504 1278 q 519 1251 518 1256 q 467 1185 508 1236 q 376 1079 426 1133 l 358 1097 z "},"Ū":{"ha":672,"x_min":94,"x_max":578,"o":"m 347 -14 q 183 30 238 -14 q 111 142 128 74 q 94 315 94 211 l 94 958 q 99 971 94 969 q 128 972 103 972 l 128 315 q 142 161 128 224 q 205 59 157 99 q 347 19 253 19 q 460 31 403 19 q 544 57 517 43 l 544 960 q 549 971 544 969 q 578 972 554 972 l 578 32 q 482 0 549 14 q 347 -14 415 -14 m 169 1143 q 168 1161 168 1150 q 183 1178 171 1178 l 503 1178 q 504 1160 504 1171 q 489 1143 503 1143 l 169 1143 z "},"Ų":{"ha":672,"x_min":94,"x_max":578,"o":"m 515 -271 q 444 -243 469 -271 q 418 -164 418 -215 q 442 -79 418 -126 q 499 4 465 -32 q 347 -14 431 -14 q 183 30 238 -14 q 111 142 128 74 q 94 315 94 211 l 94 958 q 99 971 94 969 q 128 972 103 972 l 128 315 q 142 161 128 224 q 205 59 157 99 q 347 19 253 19 q 460 31 403 19 q 544 56 517 42 l 544 960 q 549 971 544 969 q 578 972 554 972 l 578 32 q 490 -56 529 3 q 451 -164 451 -115 q 517 -239 451 -239 q 564 -225 540 -239 q 572 -247 572 -239 q 556 -265 572 -258 q 515 -271 539 -271 z "},"Ů":{"ha":672,"x_min":94,"x_max":578,"o":"m 347 -14 q 183 30 238 -14 q 111 142 128 74 q 94 315 94 211 l 94 958 q 99 971 94 969 q 128 972 103 972 l 128 315 q 142 161 128 224 q 205 59 157 99 q 347 19 253 19 q 460 31 403 19 q 544 57 517 43 l 544 960 q 549 971 544 969 q 578 972 554 972 l 578 32 q 482 0 549 14 q 347 -14 415 -14 m 332 1065 q 222 1181 222 1065 q 254 1268 222 1239 q 342 1297 286 1297 q 424 1270 397 1297 q 450 1181 450 1243 q 419 1095 450 1125 q 332 1065 388 1065 m 332 1099 q 417 1182 417 1099 q 399 1245 417 1226 q 343 1264 381 1264 q 277 1244 299 1264 q 256 1176 256 1225 q 275 1119 256 1139 q 332 1099 294 1099 z "},"Ũ":{"ha":672,"x_min":94,"x_max":578,"o":"m 347 -14 q 183 30 238 -14 q 111 142 128 74 q 94 315 94 211 l 94 958 q 99 971 94 969 q 128 972 103 972 l 128 315 q 142 161 128 224 q 205 59 157 99 q 347 19 253 19 q 460 31 403 19 q 544 57 517 43 l 544 960 q 549 971 544 969 q 578 972 554 972 l 578 32 q 482 0 549 14 q 347 -14 415 -14 m 403 1103 q 351 1116 371 1103 q 310 1153 331 1129 q 285 1177 294 1169 q 261 1185 275 1185 q 217 1169 235 1185 q 185 1133 200 1154 q 167 1111 171 1111 q 153 1119 161 1111 q 144 1131 146 1128 q 202 1197 175 1181 q 269 1214 229 1214 q 306 1204 292 1214 q 338 1175 321 1194 q 367 1147 353 1157 q 403 1138 382 1138 q 459 1154 439 1138 q 491 1190 479 1171 q 507 1210 503 1210 q 521 1201 515 1210 q 528 1189 526 1192 q 481 1126 508 1150 q 403 1103 454 1103 z "},"V":{"ha":585,"x_min":7,"x_max":579,"o":"m 293 -14 q 281 10 289 -14 q 264 67 274 33 q 118 576 196 304 q 10 953 40 847 q 7 965 7 961 q 15 972 7 972 l 38 972 l 238 279 q 300 38 274 157 q 358 279 322 144 l 542 953 q 546 967 543 961 q 556 972 549 972 l 579 972 l 311 -12 q 305 -13 310 -12 q 293 -14 300 -14 z "},"W":{"ha":874,"x_min":7,"x_max":869,"o":"m 869 972 l 657 -12 q 651 -14 656 -12 q 639 -15 647 -15 q 619 47 633 -15 l 475 658 l 436 854 l 400 661 l 254 -12 q 248 -13 253 -12 q 235 -14 243 -14 q 224 10 231 -14 q 211 69 218 35 q 106 535 178 221 q 8 953 33 849 l 7 964 q 14 972 7 972 l 38 972 l 197 278 q 242 57 218 186 l 244 57 q 283 278 254 142 l 415 897 q 419 911 417 906 q 429 917 422 917 l 454 917 l 603 278 q 624 180 615 224 q 636 117 632 136 l 646 60 l 649 60 l 661 129 q 688 278 674 213 l 832 953 q 836 967 833 961 q 846 972 839 972 l 869 972 z "},"Ẃ":{"ha":874,"x_min":7,"x_max":869,"o":"m 869 972 l 657 -12 q 651 -14 656 -12 q 639 -15 647 -15 q 619 47 633 -15 l 475 658 l 436 854 l 400 661 l 254 -12 q 248 -13 253 -12 q 235 -14 243 -14 q 224 10 231 -14 q 211 69 218 35 q 106 535 178 221 q 8 953 33 849 l 7 964 q 14 972 7 972 l 38 972 l 197 278 q 242 57 218 186 l 244 57 q 283 278 254 142 l 415 897 q 419 911 417 906 q 429 917 422 917 l 454 917 l 603 278 q 624 180 615 224 q 636 117 632 136 l 646 60 l 649 60 l 661 129 q 688 278 674 213 l 832 953 q 836 967 833 961 q 846 972 839 972 l 869 972 m 332 1104 q 448 1206 389 1158 q 525 1267 507 1254 q 537 1253 532 1267 q 543 1235 542 1240 q 470 1174 528 1221 q 346 1082 413 1128 l 332 1104 z "},"Ŵ":{"ha":874,"x_min":7,"x_max":869,"o":"m 869 972 l 657 -12 q 651 -14 656 -12 q 639 -15 647 -15 q 619 47 633 -15 l 475 658 l 436 854 l 400 661 l 254 -12 q 248 -13 253 -12 q 235 -14 243 -14 q 224 10 231 -14 q 211 69 218 35 q 106 535 178 221 q 8 953 33 849 l 7 964 q 14 972 7 972 l 38 972 l 197 278 q 242 57 218 186 l 244 57 q 283 278 254 142 l 415 897 q 419 911 417 906 q 429 917 422 917 l 454 917 l 603 278 q 624 180 615 224 q 636 117 632 136 l 646 60 l 649 60 l 661 129 q 688 278 674 213 l 832 953 q 836 967 833 961 q 846 972 839 972 l 869 972 m 442 1215 q 367 1140 422 1194 q 306 1085 311 1085 q 286 1092 293 1085 q 279 1103 279 1100 l 432 1246 q 443 1249 435 1249 q 463 1239 453 1249 l 596 1106 q 584 1092 593 1101 q 565 1083 575 1083 l 442 1215 z "},"Ẅ":{"ha":874,"x_min":7,"x_max":869,"o":"m 869 972 l 657 -12 q 651 -14 656 -12 q 639 -15 647 -15 q 619 47 633 -15 l 475 658 l 436 854 l 400 661 l 254 -12 q 248 -13 253 -12 q 235 -14 243 -14 q 224 10 231 -14 q 211 69 218 35 q 106 535 178 221 q 8 953 33 849 l 7 964 q 14 972 7 972 l 38 972 l 197 278 q 242 57 218 186 l 244 57 q 283 278 254 142 l 415 897 q 419 911 417 906 q 429 917 422 917 l 454 917 l 603 278 q 624 180 615 224 q 636 117 632 136 l 646 60 l 649 60 l 661 129 q 688 278 674 213 l 832 953 q 836 967 833 961 q 846 972 839 972 l 869 972 m 367 1131 q 343 1164 343 1132 q 369 1208 343 1208 q 394 1172 394 1208 q 388 1141 394 1151 q 367 1131 382 1131 m 506 1131 q 482 1164 482 1132 q 508 1208 482 1208 q 533 1172 533 1208 q 527 1141 533 1151 q 506 1131 521 1131 z "},"Ẁ":{"ha":874,"x_min":7,"x_max":869,"o":"m 869 972 l 657 -12 q 651 -14 656 -12 q 639 -15 647 -15 q 619 47 633 -15 l 475 658 l 436 854 l 400 661 l 254 -12 q 248 -13 253 -12 q 235 -14 243 -14 q 224 10 231 -14 q 211 69 218 35 q 106 535 178 221 q 8 953 33 849 l 7 964 q 14 972 7 972 l 38 972 l 197 278 q 242 57 218 186 l 244 57 q 283 278 254 142 l 415 897 q 419 911 417 906 q 429 917 422 917 l 454 917 l 603 278 q 624 180 615 224 q 636 117 632 136 l 646 60 l 649 60 l 661 129 q 688 278 674 213 l 832 953 q 836 967 833 961 q 846 972 839 972 l 869 972 m 529 1082 q 405 1174 463 1128 q 332 1235 347 1221 q 338 1253 333 1240 q 350 1267 343 1267 q 427 1206 368 1254 q 543 1104 486 1158 l 529 1082 z "},"X":{"ha":596,"x_min":17,"x_max":581,"o":"m 578 13 q 578 3 581 7 q 571 0 575 0 l 540 0 l 424 235 l 300 482 q 176 236 204 290 l 60 6 q 47 0 56 0 l 17 0 l 278 508 l 54 965 l 51 969 q 60 972 51 971 q 89 972 69 972 l 176 793 q 300 533 275 590 l 425 793 l 508 965 q 519 972 511 971 q 551 972 526 972 l 322 501 l 578 13 z "},"Y":{"ha":496,"x_min":7,"x_max":489,"o":"m 267 399 l 267 14 q 263 2 267 4 q 233 0 258 0 l 233 399 l 8 965 l 7 968 q 16 972 7 971 q 44 972 25 972 l 126 765 q 198 575 158 685 q 250 432 238 465 q 298 562 263 465 q 374 765 333 658 l 450 965 q 460 972 451 971 q 489 972 468 972 l 267 399 z "},"Ý":{"ha":496,"x_min":7,"x_max":489,"o":"m 267 399 l 267 14 q 263 2 267 4 q 233 0 258 0 l 233 399 l 8 965 l 7 968 q 16 972 7 971 q 44 972 25 972 l 126 765 q 198 575 158 685 q 250 432 238 465 q 298 562 263 465 q 374 765 333 658 l 450 965 q 460 972 451 971 q 489 972 468 972 l 267 399 m 143 1104 q 259 1206 200 1158 q 336 1267 318 1254 q 348 1253 343 1267 q 354 1235 353 1240 q 281 1174 339 1221 q 157 1082 224 1128 l 143 1104 z "},"Ŷ":{"ha":496,"x_min":7,"x_max":489,"o":"m 267 399 l 267 14 q 263 2 267 4 q 233 0 258 0 l 233 399 l 8 965 l 7 968 q 16 972 7 971 q 44 972 25 972 l 126 765 q 198 575 158 685 q 250 432 238 465 q 298 562 263 465 q 374 765 333 658 l 450 965 q 460 972 451 971 q 489 972 468 972 l 267 399 m 253 1215 q 178 1140 233 1194 q 117 1085 122 1085 q 97 1092 104 1085 q 90 1103 90 1100 l 243 1246 q 254 1249 246 1249 q 274 1239 264 1249 l 407 1106 q 395 1092 404 1101 q 376 1083 386 1083 l 253 1215 z "},"Ÿ":{"ha":496,"x_min":7,"x_max":489,"o":"m 267 399 l 267 14 q 263 2 267 4 q 233 0 258 0 l 233 399 l 8 965 l 7 968 q 16 972 7 971 q 44 972 25 972 l 126 765 q 198 575 158 685 q 250 432 238 465 q 298 562 263 465 q 374 765 333 658 l 450 965 q 460 972 451 971 q 489 972 468 972 l 267 399 m 178 1131 q 154 1164 154 1132 q 181 1208 154 1208 q 206 1172 206 1208 q 199 1141 206 1151 q 178 1131 193 1131 m 317 1131 q 293 1164 293 1132 q 319 1208 293 1208 q 344 1172 344 1208 q 338 1141 344 1151 q 317 1131 332 1131 z "},"Ỵ":{"ha":496,"x_min":7,"x_max":489,"o":"m 267 399 l 267 14 q 263 2 267 4 q 233 0 258 0 l 233 399 l 8 965 l 7 968 q 16 972 7 971 q 44 972 25 972 l 126 765 q 198 575 158 685 q 250 432 238 465 q 298 562 263 465 q 374 765 333 658 l 450 965 q 460 972 451 971 q 489 972 468 972 l 267 399 m 247 -187 q 224 -154 224 -186 q 250 -110 224 -110 q 275 -146 275 -110 q 269 -178 275 -168 q 247 -187 263 -187 z "},"Ỳ":{"ha":496,"x_min":7,"x_max":489,"o":"m 267 399 l 267 14 q 263 2 267 4 q 233 0 258 0 l 233 399 l 8 965 l 7 968 q 16 972 7 971 q 44 972 25 972 l 126 765 q 198 575 158 685 q 250 432 238 465 q 298 562 263 465 q 374 765 333 658 l 450 965 q 460 972 451 971 q 489 972 468 972 l 267 399 m 340 1082 q 216 1174 274 1128 q 143 1235 158 1221 q 149 1253 144 1240 q 161 1267 154 1267 q 238 1206 179 1254 q 354 1104 297 1158 l 340 1082 z "},"Ỷ":{"ha":496,"x_min":7,"x_max":489,"o":"m 267 399 l 267 14 q 263 2 267 4 q 233 0 258 0 l 233 399 l 8 965 l 7 968 q 16 972 7 971 q 44 972 25 972 l 126 765 q 198 575 158 685 q 250 432 238 465 q 298 562 263 465 q 374 765 333 658 l 450 965 q 460 972 451 971 q 489 972 468 972 l 267 399 m 226 1049 q 226 1053 226 1050 q 225 1063 225 1057 q 229 1083 225 1076 q 254 1108 236 1097 q 276 1128 269 1118 q 283 1158 283 1138 q 228 1217 283 1217 q 174 1200 196 1217 l 174 1233 q 190 1246 174 1239 q 226 1253 206 1253 q 322 1158 322 1253 q 309 1114 322 1129 q 281 1090 296 1099 q 263 1078 267 1081 q 255 1063 257 1072 q 253 1050 253 1053 q 238 1047 250 1047 l 226 1049 z "},"Ỹ":{"ha":496,"x_min":7,"x_max":489,"o":"m 267 399 l 267 14 q 263 2 267 4 q 233 0 258 0 l 233 399 l 8 965 l 7 968 q 16 972 7 971 q 44 972 25 972 l 126 765 q 198 575 158 685 q 250 432 238 465 q 298 562 263 465 q 374 765 333 658 l 450 965 q 460 972 451 971 q 489 972 468 972 l 267 399 m 315 1103 q 263 1116 283 1103 q 222 1153 243 1129 q 197 1177 207 1169 q 174 1185 188 1185 q 130 1169 147 1185 q 98 1133 113 1154 q 79 1111 83 1111 q 66 1119 74 1111 q 57 1131 58 1128 q 115 1197 88 1181 q 182 1214 142 1214 q 219 1204 204 1214 q 250 1175 233 1194 q 280 1147 265 1157 q 315 1138 294 1138 q 372 1154 351 1138 q 403 1190 392 1171 q 419 1210 415 1210 q 433 1201 428 1210 q 440 1189 439 1192 q 394 1126 421 1150 q 315 1103 367 1103 z "},"Z":{"ha":558,"x_min":43,"x_max":511,"o":"m 53 0 q 43 15 43 3 q 49 38 43 24 l 468 939 l 132 939 l 79 939 l 79 958 q 93 972 79 972 l 506 972 q 511 957 511 967 q 506 935 511 947 l 83 33 l 449 33 q 511 38 497 33 l 511 14 q 497 0 511 0 l 53 0 z "},"Ź":{"ha":558,"x_min":43,"x_max":511,"o":"m 53 0 q 43 15 43 3 q 49 38 43 24 l 468 939 l 132 939 l 79 939 l 79 958 q 93 972 79 972 l 506 972 q 511 957 511 967 q 506 935 511 947 l 83 33 l 449 33 q 511 38 497 33 l 511 14 q 497 0 511 0 l 53 0 m 174 1104 q 290 1206 231 1158 q 367 1267 349 1254 q 378 1253 374 1267 q 385 1235 383 1240 q 312 1174 369 1221 q 188 1082 254 1128 l 174 1104 z "},"Ž":{"ha":558,"x_min":43,"x_max":511,"o":"m 53 0 q 43 15 43 3 q 49 38 43 24 l 468 939 l 132 939 l 79 939 l 79 958 q 93 972 79 972 l 506 972 q 511 957 511 967 q 506 935 511 947 l 83 33 l 449 33 q 511 38 497 33 l 511 14 q 497 0 511 0 l 53 0 m 290 1092 q 211 1160 279 1092 q 119 1253 143 1228 q 128 1264 121 1256 q 143 1272 135 1272 q 209 1210 150 1272 q 289 1126 268 1149 q 372 1224 333 1181 q 422 1281 410 1267 q 439 1258 439 1268 q 370 1170 439 1249 q 290 1092 301 1092 z "},"Ż":{"ha":558,"x_min":43,"x_max":511,"o":"m 53 0 q 43 15 43 3 q 49 38 43 24 l 468 939 l 132 939 l 79 939 l 79 958 q 93 972 79 972 l 506 972 q 511 957 511 967 q 506 935 511 947 l 83 33 l 449 33 q 511 38 497 33 l 511 14 q 497 0 511 0 l 53 0 m 278 1131 q 254 1164 254 1132 q 281 1208 254 1208 q 306 1172 306 1208 q 299 1141 306 1151 q 278 1131 293 1131 z "},"a":{"ha":532,"x_min":61,"x_max":454,"o":"m 264 -14 q 161 -3 204 -15 q 90 55 118 10 q 63 188 63 100 q 125 367 63 322 q 294 413 188 413 q 421 399 374 413 l 421 535 q 385 646 421 617 q 283 675 350 675 q 152 664 210 675 q 67 639 94 653 q 61 657 61 649 q 68 675 61 672 q 157 698 93 688 q 290 708 221 708 q 413 669 371 708 q 454 540 454 631 l 454 449 q 446 39 454 261 q 371 1 411 17 q 264 -14 331 -14 m 274 19 q 356 33 317 19 q 413 60 396 46 q 421 367 421 171 q 301 382 367 382 q 194 369 238 382 q 124 315 151 357 q 96 189 96 272 q 119 74 96 111 q 179 28 143 38 q 274 19 215 19 z "},"á":{"ha":532,"x_min":61,"x_max":454,"o":"m 264 -14 q 161 -3 204 -15 q 90 55 118 10 q 63 188 63 100 q 125 367 63 322 q 294 413 188 413 q 421 399 374 413 l 421 535 q 385 646 421 617 q 283 675 350 675 q 152 664 210 675 q 67 639 94 653 q 61 657 61 649 q 68 675 61 672 q 157 698 93 688 q 290 708 221 708 q 413 669 371 708 q 454 540 454 631 l 454 449 q 446 39 454 261 q 371 1 411 17 q 264 -14 331 -14 m 274 19 q 356 33 317 19 q 413 60 396 46 q 421 367 421 171 q 301 382 367 382 q 194 369 238 382 q 124 315 151 357 q 96 189 96 272 q 119 74 96 111 q 179 28 143 38 q 274 19 215 19 m 151 826 q 267 928 208 881 q 344 989 326 976 q 356 976 351 989 q 363 957 361 963 q 290 897 347 943 q 165 804 232 850 l 151 826 z "},"ă":{"ha":532,"x_min":61,"x_max":454,"o":"m 264 -14 q 161 -3 204 -15 q 90 55 118 10 q 63 188 63 100 q 125 367 63 322 q 294 413 188 413 q 421 399 374 413 l 421 535 q 385 646 421 617 q 283 675 350 675 q 152 664 210 675 q 67 639 94 653 q 61 657 61 649 q 68 675 61 672 q 157 698 93 688 q 290 708 221 708 q 413 669 371 708 q 454 540 454 631 l 454 449 q 446 39 454 261 q 371 1 411 17 q 264 -14 331 -14 m 274 19 q 356 33 317 19 q 413 60 396 46 q 421 367 421 171 q 301 382 367 382 q 194 369 238 382 q 124 315 151 357 q 96 189 96 272 q 119 74 96 111 q 179 28 143 38 q 274 19 215 19 m 256 813 q 171 842 207 813 q 116 910 135 872 q 97 964 97 947 q 104 977 97 974 q 124 982 111 981 q 172 886 142 926 q 257 846 203 846 q 334 878 308 846 q 381 968 360 911 q 396 979 385 979 q 408 974 403 979 q 415 963 414 969 q 360 858 399 903 q 256 813 322 813 z "},"ắ":{"ha":532,"x_min":61,"x_max":454,"o":"m 264 -14 q 161 -3 204 -15 q 90 55 118 10 q 63 188 63 100 q 125 367 63 322 q 294 413 188 413 q 421 399 374 413 l 421 535 q 385 646 421 617 q 283 675 350 675 q 152 664 210 675 q 67 639 94 653 q 61 657 61 649 q 68 675 61 672 q 157 698 93 688 q 290 708 221 708 q 413 669 371 708 q 454 540 454 631 l 454 449 q 446 39 454 261 q 371 1 411 17 q 264 -14 331 -14 m 274 19 q 356 33 317 19 q 413 60 396 46 q 421 367 421 171 q 301 382 367 382 q 194 369 238 382 q 124 315 151 357 q 96 189 96 272 q 119 74 96 111 q 179 28 143 38 q 274 19 215 19 m 256 813 q 171 842 207 813 q 116 910 135 872 q 97 964 97 947 q 104 977 97 974 q 124 982 111 981 q 172 886 142 926 q 257 846 203 846 q 334 878 308 846 q 381 968 360 911 q 396 979 385 979 q 408 974 403 979 q 415 963 414 969 q 360 858 399 903 q 256 813 322 813 m 240 1036 q 356 1138 297 1090 q 433 1199 415 1186 q 445 1185 440 1199 q 451 1167 450 1172 q 378 1106 436 1153 q 254 1014 321 1060 l 240 1036 z "},"ặ":{"ha":532,"x_min":61,"x_max":454,"o":"m 264 -14 q 161 -3 204 -15 q 90 55 118 10 q 63 188 63 100 q 125 367 63 322 q 294 413 188 413 q 421 399 374 413 l 421 535 q 385 646 421 617 q 283 675 350 675 q 152 664 210 675 q 67 639 94 653 q 61 657 61 649 q 68 675 61 672 q 157 698 93 688 q 290 708 221 708 q 413 669 371 708 q 454 540 454 631 l 454 449 q 446 39 454 261 q 371 1 411 17 q 264 -14 331 -14 m 274 19 q 356 33 317 19 q 413 60 396 46 q 421 367 421 171 q 301 382 367 382 q 194 369 238 382 q 124 315 151 357 q 96 189 96 272 q 119 74 96 111 q 179 28 143 38 q 274 19 215 19 m 265 -187 q 242 -154 242 -186 q 268 -110 242 -110 q 293 -146 293 -110 q 287 -178 293 -168 q 265 -187 281 -187 m 256 813 q 171 842 207 813 q 116 910 135 872 q 97 964 97 947 q 104 977 97 974 q 124 982 111 981 q 172 886 142 926 q 257 846 203 846 q 334 878 308 846 q 381 968 360 911 q 396 979 385 979 q 408 974 403 979 q 415 963 414 969 q 360 858 399 903 q 256 813 322 813 z "},"ằ":{"ha":532,"x_min":61,"x_max":454,"o":"m 264 -14 q 161 -3 204 -15 q 90 55 118 10 q 63 188 63 100 q 125 367 63 322 q 294 413 188 413 q 421 399 374 413 l 421 535 q 385 646 421 617 q 283 675 350 675 q 152 664 210 675 q 67 639 94 653 q 61 657 61 649 q 68 675 61 672 q 157 698 93 688 q 290 708 221 708 q 413 669 371 708 q 454 540 454 631 l 454 449 q 446 39 454 261 q 371 1 411 17 q 264 -14 331 -14 m 274 19 q 356 33 317 19 q 413 60 396 46 q 421 367 421 171 q 301 382 367 382 q 194 369 238 382 q 124 315 151 357 q 96 189 96 272 q 119 74 96 111 q 179 28 143 38 q 274 19 215 19 m 256 813 q 171 842 207 813 q 116 910 135 872 q 97 964 97 947 q 104 977 97 974 q 124 982 111 981 q 172 886 142 926 q 257 846 203 846 q 334 878 308 846 q 381 968 360 911 q 396 979 385 979 q 408 974 403 979 q 415 963 414 969 q 360 858 399 903 q 256 813 322 813 m 274 1003 q 149 1095 207 1049 q 76 1156 92 1142 q 83 1174 78 1161 q 94 1188 88 1188 q 172 1127 113 1175 q 288 1025 231 1079 l 274 1003 z "},"ẳ":{"ha":532,"x_min":61,"x_max":454,"o":"m 264 -14 q 161 -3 204 -15 q 90 55 118 10 q 63 188 63 100 q 125 367 63 322 q 294 413 188 413 q 421 399 374 413 l 421 535 q 385 646 421 617 q 283 675 350 675 q 152 664 210 675 q 67 639 94 653 q 61 657 61 649 q 68 675 61 672 q 157 698 93 688 q 290 708 221 708 q 413 669 371 708 q 454 540 454 631 l 454 449 q 446 39 454 261 q 371 1 411 17 q 264 -14 331 -14 m 274 19 q 356 33 317 19 q 413 60 396 46 q 421 367 421 171 q 301 382 367 382 q 194 369 238 382 q 124 315 151 357 q 96 189 96 272 q 119 74 96 111 q 179 28 143 38 q 274 19 215 19 m 256 813 q 171 842 207 813 q 116 910 135 872 q 97 964 97 947 q 104 977 97 974 q 124 982 111 981 q 172 886 142 926 q 257 846 203 846 q 334 878 308 846 q 381 968 360 911 q 396 979 385 979 q 408 974 403 979 q 415 963 414 969 q 360 858 399 903 q 256 813 322 813 m 235 990 q 234 995 235 992 q 233 1004 233 999 q 238 1025 233 1018 q 263 1050 244 1039 q 285 1069 278 1060 q 292 1100 292 1079 q 236 1158 292 1158 q 182 1142 204 1158 l 182 1175 q 198 1188 182 1181 q 235 1194 214 1194 q 331 1100 331 1194 q 317 1056 331 1071 q 290 1031 304 1040 q 271 1019 275 1022 q 263 1004 265 1014 q 261 992 261 994 q 246 989 258 989 l 235 990 z "},"ẵ":{"ha":532,"x_min":61,"x_max":454,"o":"m 264 -14 q 161 -3 204 -15 q 90 55 118 10 q 63 188 63 100 q 125 367 63 322 q 294 413 188 413 q 421 399 374 413 l 421 535 q 385 646 421 617 q 283 675 350 675 q 152 664 210 675 q 67 639 94 653 q 61 657 61 649 q 68 675 61 672 q 157 698 93 688 q 290 708 221 708 q 413 669 371 708 q 454 540 454 631 l 454 449 q 446 39 454 261 q 371 1 411 17 q 264 -14 331 -14 m 274 19 q 356 33 317 19 q 413 60 396 46 q 421 367 421 171 q 301 382 367 382 q 194 369 238 382 q 124 315 151 357 q 96 189 96 272 q 119 74 96 111 q 179 28 143 38 q 274 19 215 19 m 256 813 q 171 842 207 813 q 116 910 135 872 q 97 964 97 947 q 104 977 97 974 q 124 982 111 981 q 172 886 142 926 q 257 846 203 846 q 334 878 308 846 q 381 968 360 911 q 396 979 385 979 q 408 974 403 979 q 415 963 414 969 q 360 858 399 903 q 256 813 322 813 m 324 1029 q 272 1042 292 1029 q 231 1079 251 1056 q 206 1103 215 1096 q 182 1111 196 1111 q 138 1096 156 1111 q 106 1059 121 1081 q 88 1038 92 1038 q 74 1046 82 1038 q 65 1057 67 1054 q 123 1124 96 1107 q 190 1140 150 1140 q 227 1131 213 1140 q 258 1101 242 1121 q 288 1074 274 1083 q 324 1064 303 1064 q 380 1081 360 1064 q 412 1117 400 1097 q 428 1136 424 1136 q 442 1127 436 1136 q 449 1115 447 1118 q 402 1053 429 1076 q 324 1029 375 1029 z "},"â":{"ha":532,"x_min":61,"x_max":454,"o":"m 264 -14 q 161 -3 204 -15 q 90 55 118 10 q 63 188 63 100 q 125 367 63 322 q 294 413 188 413 q 421 399 374 413 l 421 535 q 385 646 421 617 q 283 675 350 675 q 152 664 210 675 q 67 639 94 653 q 61 657 61 649 q 68 675 61 672 q 157 698 93 688 q 290 708 221 708 q 413 669 371 708 q 454 540 454 631 l 454 449 q 446 39 454 261 q 371 1 411 17 q 264 -14 331 -14 m 274 19 q 356 33 317 19 q 413 60 396 46 q 421 367 421 171 q 301 382 367 382 q 194 369 238 382 q 124 315 151 357 q 96 189 96 272 q 119 74 96 111 q 179 28 143 38 q 274 19 215 19 m 261 938 q 186 862 242 917 q 125 807 131 807 q 106 815 113 807 q 99 825 99 822 l 251 968 q 263 971 254 971 q 282 961 272 971 l 415 828 q 403 815 413 824 q 385 806 394 806 l 261 938 z "},"ấ":{"ha":532,"x_min":61,"x_max":619,"o":"m 264 -14 q 161 -3 204 -15 q 90 55 118 10 q 63 188 63 100 q 125 367 63 322 q 294 413 188 413 q 421 399 374 413 l 421 535 q 385 646 421 617 q 283 675 350 675 q 152 664 210 675 q 67 639 94 653 q 61 657 61 649 q 68 675 61 672 q 157 698 93 688 q 290 708 221 708 q 413 669 371 708 q 454 540 454 631 l 454 449 q 446 39 454 261 q 371 1 411 17 q 264 -14 331 -14 m 274 19 q 356 33 317 19 q 413 60 396 46 q 421 367 421 171 q 301 382 367 382 q 194 369 238 382 q 124 315 151 357 q 96 189 96 272 q 119 74 96 111 q 179 28 143 38 q 274 19 215 19 m 261 938 q 186 862 242 917 q 125 807 131 807 q 106 815 113 807 q 99 825 99 822 l 251 968 q 263 971 254 971 q 282 961 272 971 l 415 828 q 403 815 413 824 q 385 806 394 806 l 261 938 m 408 944 q 524 1047 465 999 q 601 1107 583 1094 q 613 1094 608 1107 q 619 1075 618 1081 q 547 1015 604 1061 q 422 922 489 968 l 408 944 z "},"ậ":{"ha":532,"x_min":61,"x_max":454,"o":"m 264 -14 q 161 -3 204 -15 q 90 55 118 10 q 63 188 63 100 q 125 367 63 322 q 294 413 188 413 q 421 399 374 413 l 421 535 q 385 646 421 617 q 283 675 350 675 q 152 664 210 675 q 67 639 94 653 q 61 657 61 649 q 68 675 61 672 q 157 698 93 688 q 290 708 221 708 q 413 669 371 708 q 454 540 454 631 l 454 449 q 446 39 454 261 q 371 1 411 17 q 264 -14 331 -14 m 274 19 q 356 33 317 19 q 413 60 396 46 q 421 367 421 171 q 301 382 367 382 q 194 369 238 382 q 124 315 151 357 q 96 189 96 272 q 119 74 96 111 q 179 28 143 38 q 274 19 215 19 m 265 -187 q 242 -154 242 -186 q 268 -110 242 -110 q 293 -146 293 -110 q 287 -178 293 -168 q 265 -187 281 -187 m 261 938 q 186 862 242 917 q 125 807 131 807 q 106 815 113 807 q 99 825 99 822 l 251 968 q 263 971 254 971 q 282 961 272 971 l 415 828 q 403 815 413 824 q 385 806 394 806 l 261 938 z "},"ầ":{"ha":532,"x_min":61,"x_max":454,"o":"m 264 -14 q 161 -3 204 -15 q 90 55 118 10 q 63 188 63 100 q 125 367 63 322 q 294 413 188 413 q 421 399 374 413 l 421 535 q 385 646 421 617 q 283 675 350 675 q 152 664 210 675 q 67 639 94 653 q 61 657 61 649 q 68 675 61 672 q 157 698 93 688 q 290 708 221 708 q 413 669 371 708 q 454 540 454 631 l 454 449 q 446 39 454 261 q 371 1 411 17 q 264 -14 331 -14 m 274 19 q 356 33 317 19 q 413 60 396 46 q 421 367 421 171 q 301 382 367 382 q 194 369 238 382 q 124 315 151 357 q 96 189 96 272 q 119 74 96 111 q 179 28 143 38 q 274 19 215 19 m 261 938 q 186 862 242 917 q 125 807 131 807 q 106 815 113 807 q 99 825 99 822 l 251 968 q 263 971 254 971 q 282 961 272 971 l 415 828 q 403 815 413 824 q 385 806 394 806 l 261 938 m 383 974 q 259 1066 317 1019 q 186 1126 201 1113 q 192 1145 188 1132 q 204 1158 197 1158 q 281 1098 222 1146 q 397 996 340 1050 l 383 974 z "},"ẩ":{"ha":532,"x_min":61,"x_max":499,"o":"m 264 -14 q 161 -3 204 -15 q 90 55 118 10 q 63 188 63 100 q 125 367 63 322 q 294 413 188 413 q 421 399 374 413 l 421 535 q 385 646 421 617 q 283 675 350 675 q 152 664 210 675 q 67 639 94 653 q 61 657 61 649 q 68 675 61 672 q 157 698 93 688 q 290 708 221 708 q 413 669 371 708 q 454 540 454 631 l 454 449 q 446 39 454 261 q 371 1 411 17 q 264 -14 331 -14 m 274 19 q 356 33 317 19 q 413 60 396 46 q 421 367 421 171 q 301 382 367 382 q 194 369 238 382 q 124 315 151 357 q 96 189 96 272 q 119 74 96 111 q 179 28 143 38 q 274 19 215 19 m 261 938 q 186 862 242 917 q 125 807 131 807 q 106 815 113 807 q 99 825 99 822 l 251 968 q 263 971 254 971 q 282 961 272 971 l 415 828 q 403 815 413 824 q 385 806 394 806 l 261 938 m 403 936 q 402 941 403 938 q 401 950 401 944 q 406 971 401 964 q 431 996 413 985 q 453 1015 446 1006 q 460 1046 460 1025 q 404 1104 460 1104 q 350 1088 372 1104 l 350 1121 q 366 1133 350 1126 q 403 1140 382 1140 q 499 1046 499 1140 q 485 1001 499 1017 q 458 977 472 986 q 439 965 443 968 q 431 950 433 960 q 429 938 429 940 q 414 935 426 935 l 403 936 z "},"ẫ":{"ha":532,"x_min":61,"x_max":469,"o":"m 264 -14 q 161 -3 204 -15 q 90 55 118 10 q 63 188 63 100 q 125 367 63 322 q 294 413 188 413 q 421 399 374 413 l 421 535 q 385 646 421 617 q 283 675 350 675 q 152 664 210 675 q 67 639 94 653 q 61 657 61 649 q 68 675 61 672 q 157 698 93 688 q 290 708 221 708 q 413 669 371 708 q 454 540 454 631 l 454 449 q 446 39 454 261 q 371 1 411 17 q 264 -14 331 -14 m 274 19 q 356 33 317 19 q 413 60 396 46 q 421 367 421 171 q 301 382 367 382 q 194 369 238 382 q 124 315 151 357 q 96 189 96 272 q 119 74 96 111 q 179 28 143 38 q 274 19 215 19 m 261 938 q 186 862 242 917 q 125 807 131 807 q 106 815 113 807 q 99 825 99 822 l 251 968 q 263 971 254 971 q 282 961 272 971 l 415 828 q 403 815 413 824 q 385 806 394 806 l 261 938 m 344 1006 q 292 1019 313 1006 q 251 1056 272 1032 q 226 1080 236 1072 q 203 1088 217 1088 q 159 1072 176 1088 q 127 1035 142 1057 q 108 1014 113 1014 q 95 1022 103 1014 q 86 1033 88 1031 q 144 1100 117 1083 q 211 1117 171 1117 q 248 1107 233 1117 q 279 1078 263 1097 q 309 1050 294 1060 q 344 1040 324 1040 q 401 1057 381 1040 q 433 1093 421 1074 q 449 1113 444 1113 q 463 1103 457 1113 q 469 1092 468 1094 q 423 1029 450 1053 q 344 1006 396 1006 z "},"ä":{"ha":532,"x_min":61,"x_max":454,"o":"m 264 -14 q 161 -3 204 -15 q 90 55 118 10 q 63 188 63 100 q 125 367 63 322 q 294 413 188 413 q 421 399 374 413 l 421 535 q 385 646 421 617 q 283 675 350 675 q 152 664 210 675 q 67 639 94 653 q 61 657 61 649 q 68 675 61 672 q 157 698 93 688 q 290 708 221 708 q 413 669 371 708 q 454 540 454 631 l 454 449 q 446 39 454 261 q 371 1 411 17 q 264 -14 331 -14 m 274 19 q 356 33 317 19 q 413 60 396 46 q 421 367 421 171 q 301 382 367 382 q 194 369 238 382 q 124 315 151 357 q 96 189 96 272 q 119 74 96 111 q 179 28 143 38 q 274 19 215 19 m 186 853 q 163 886 163 854 q 189 931 163 931 q 214 894 214 931 q 208 863 214 874 q 186 853 201 853 m 325 853 q 301 886 301 854 q 328 931 301 931 q 353 894 353 931 q 347 863 353 874 q 325 853 340 853 z "},"ạ":{"ha":532,"x_min":61,"x_max":454,"o":"m 264 -14 q 161 -3 204 -15 q 90 55 118 10 q 63 188 63 100 q 125 367 63 322 q 294 413 188 413 q 421 399 374 413 l 421 535 q 385 646 421 617 q 283 675 350 675 q 152 664 210 675 q 67 639 94 653 q 61 657 61 649 q 68 675 61 672 q 157 698 93 688 q 290 708 221 708 q 413 669 371 708 q 454 540 454 631 l 454 449 q 446 39 454 261 q 371 1 411 17 q 264 -14 331 -14 m 274 19 q 356 33 317 19 q 413 60 396 46 q 421 367 421 171 q 301 382 367 382 q 194 369 238 382 q 124 315 151 357 q 96 189 96 272 q 119 74 96 111 q 179 28 143 38 q 274 19 215 19 m 265 -187 q 242 -154 242 -186 q 268 -110 242 -110 q 293 -146 293 -110 q 287 -178 293 -168 q 265 -187 281 -187 z "},"à":{"ha":532,"x_min":61,"x_max":454,"o":"m 264 -14 q 161 -3 204 -15 q 90 55 118 10 q 63 188 63 100 q 125 367 63 322 q 294 413 188 413 q 421 399 374 413 l 421 535 q 385 646 421 617 q 283 675 350 675 q 152 664 210 675 q 67 639 94 653 q 61 657 61 649 q 68 675 61 672 q 157 698 93 688 q 290 708 221 708 q 413 669 371 708 q 454 540 454 631 l 454 449 q 446 39 454 261 q 371 1 411 17 q 264 -14 331 -14 m 274 19 q 356 33 317 19 q 413 60 396 46 q 421 367 421 171 q 301 382 367 382 q 194 369 238 382 q 124 315 151 357 q 96 189 96 272 q 119 74 96 111 q 179 28 143 38 q 274 19 215 19 m 349 804 q 224 897 282 850 q 151 957 167 943 q 158 976 153 963 q 169 989 163 989 q 247 928 188 976 q 363 826 306 881 l 349 804 z "},"ả":{"ha":532,"x_min":61,"x_max":454,"o":"m 264 -14 q 161 -3 204 -15 q 90 55 118 10 q 63 188 63 100 q 125 367 63 322 q 294 413 188 413 q 421 399 374 413 l 421 535 q 385 646 421 617 q 283 675 350 675 q 152 664 210 675 q 67 639 94 653 q 61 657 61 649 q 68 675 61 672 q 157 698 93 688 q 290 708 221 708 q 413 669 371 708 q 454 540 454 631 l 454 449 q 446 39 454 261 q 371 1 411 17 q 264 -14 331 -14 m 274 19 q 356 33 317 19 q 413 60 396 46 q 421 367 421 171 q 301 382 367 382 q 194 369 238 382 q 124 315 151 357 q 96 189 96 272 q 119 74 96 111 q 179 28 143 38 q 274 19 215 19 m 235 771 q 234 776 235 772 q 233 785 233 779 q 238 806 233 799 q 263 831 244 819 q 285 850 278 840 q 292 881 292 860 q 236 939 292 939 q 182 922 204 939 l 182 956 q 198 968 182 961 q 235 975 214 975 q 331 881 331 975 q 317 836 331 851 q 290 812 304 821 q 271 800 275 803 q 263 785 265 794 q 261 772 261 775 q 246 769 258 769 l 235 771 z "},"ā":{"ha":532,"x_min":61,"x_max":454,"o":"m 264 -14 q 161 -3 204 -15 q 90 55 118 10 q 63 188 63 100 q 125 367 63 322 q 294 413 188 413 q 421 399 374 413 l 421 535 q 385 646 421 617 q 283 675 350 675 q 152 664 210 675 q 67 639 94 653 q 61 657 61 649 q 68 675 61 672 q 157 698 93 688 q 290 708 221 708 q 413 669 371 708 q 454 540 454 631 l 454 449 q 446 39 454 261 q 371 1 411 17 q 264 -14 331 -14 m 274 19 q 356 33 317 19 q 413 60 396 46 q 421 367 421 171 q 301 382 367 382 q 194 369 238 382 q 124 315 151 357 q 96 189 96 272 q 119 74 96 111 q 179 28 143 38 q 274 19 215 19 m 90 865 q 89 883 89 872 q 104 900 92 900 l 424 900 q 425 882 425 893 q 410 865 424 865 l 90 865 z "},"ą":{"ha":532,"x_min":61,"x_max":454,"o":"m 392 -271 q 319 -240 344 -271 q 294 -150 294 -208 q 350 -4 294 -78 q 247 -14 311 -14 q 113 27 163 -14 q 63 188 63 68 q 125 367 63 322 q 294 413 188 413 q 421 399 374 413 l 421 535 q 385 646 421 617 q 283 675 350 675 q 152 664 210 675 q 67 639 94 653 q 61 657 61 649 q 68 675 61 672 q 157 698 93 688 q 290 708 221 708 q 413 669 371 708 q 454 540 454 631 l 454 449 q 446 39 454 261 q 358 -50 388 -1 q 328 -150 328 -99 q 343 -216 328 -194 q 393 -237 358 -237 q 440 -225 415 -237 q 446 -235 444 -229 l 449 -246 q 433 -265 449 -258 q 392 -271 417 -271 m 274 19 q 356 33 317 19 q 413 60 396 46 q 421 367 421 171 q 301 382 367 382 q 194 369 238 382 q 124 315 151 357 q 96 189 96 272 q 119 74 96 111 q 179 28 143 38 q 274 19 215 19 z "},"å":{"ha":532,"x_min":61,"x_max":454,"o":"m 264 -14 q 161 -3 204 -15 q 90 55 118 10 q 63 188 63 100 q 125 367 63 322 q 294 413 188 413 q 421 399 374 413 l 421 535 q 385 646 421 617 q 283 675 350 675 q 152 664 210 675 q 67 639 94 653 q 61 657 61 649 q 68 675 61 672 q 157 698 93 688 q 290 708 221 708 q 413 669 371 708 q 454 540 454 631 l 454 449 q 446 39 454 261 q 371 1 411 17 q 264 -14 331 -14 m 274 19 q 356 33 317 19 q 413 60 396 46 q 421 367 421 171 q 301 382 367 382 q 194 369 238 382 q 124 315 151 357 q 96 189 96 272 q 119 74 96 111 q 179 28 143 38 q 274 19 215 19 m 253 788 q 143 903 143 788 q 175 990 143 961 q 263 1019 207 1019 q 344 992 318 1019 q 371 903 371 965 q 340 817 371 847 q 253 788 308 788 m 253 821 q 338 904 338 821 q 319 967 338 949 q 264 986 301 986 q 198 967 219 986 q 176 899 176 947 q 196 841 176 861 q 253 821 215 821 z "},"ã":{"ha":532,"x_min":61,"x_max":454,"o":"m 264 -14 q 161 -3 204 -15 q 90 55 118 10 q 63 188 63 100 q 125 367 63 322 q 294 413 188 413 q 421 399 374 413 l 421 535 q 385 646 421 617 q 283 675 350 675 q 152 664 210 675 q 67 639 94 653 q 61 657 61 649 q 68 675 61 672 q 157 698 93 688 q 290 708 221 708 q 413 669 371 708 q 454 540 454 631 l 454 449 q 446 39 454 261 q 371 1 411 17 q 264 -14 331 -14 m 274 19 q 356 33 317 19 q 413 60 396 46 q 421 367 421 171 q 301 382 367 382 q 194 369 238 382 q 124 315 151 357 q 96 189 96 272 q 119 74 96 111 q 179 28 143 38 q 274 19 215 19 m 324 825 q 272 838 292 825 q 231 875 251 851 q 206 899 215 892 q 182 907 196 907 q 138 892 156 907 q 106 855 121 876 q 88 833 92 833 q 74 842 82 833 q 65 853 67 850 q 123 919 96 903 q 190 936 150 936 q 227 926 213 936 q 258 897 242 917 q 288 869 274 879 q 324 860 303 860 q 380 876 360 860 q 412 913 400 893 q 428 932 424 932 q 442 923 436 932 q 449 911 447 914 q 402 849 429 872 q 324 825 375 825 z "},"æ":{"ha":925,"x_min":63,"x_max":847,"o":"m 657 22 q 756 35 708 22 q 835 74 804 49 q 842 40 842 60 q 815 21 842 33 q 745 -1 788 8 q 658 -11 703 -11 q 530 10 579 -11 q 454 99 481 32 l 454 31 q 381 2 431 15 q 264 -11 332 -11 q 161 -1 204 -12 q 90 56 118 11 q 63 188 63 100 q 125 367 63 322 q 294 413 188 413 q 421 399 374 413 l 421 535 q 384 647 421 618 q 275 675 347 675 q 158 663 211 675 q 72 633 104 651 q 68 653 68 644 q 72 664 68 658 q 79 672 75 669 q 159 698 106 688 q 286 708 213 708 q 410 672 368 708 q 454 551 451 636 q 542 678 486 647 q 674 708 597 708 q 847 499 847 708 q 838 342 847 400 q 713 332 781 332 q 458 358 597 332 q 457 301 457 340 q 483 119 457 179 q 549 40 508 58 q 657 22 590 22 m 675 675 q 579 659 621 675 q 503 580 538 643 q 460 390 469 517 q 545 376 468 389 q 711 363 622 363 q 808 371 764 363 q 814 482 814 426 q 781 628 811 581 q 675 675 751 675 m 421 367 q 301 382 367 382 q 194 369 238 382 q 124 313 151 357 q 96 182 96 269 q 120 74 96 110 q 181 29 144 39 q 274 19 217 19 q 363 31 319 19 q 421 57 406 42 l 421 367 z "},"b":{"ha":586,"x_min":97,"x_max":528,"o":"m 257 -14 q 97 28 151 -14 l 97 1000 q 104 1017 97 1014 q 131 1021 111 1021 l 131 643 q 219 692 172 675 q 333 708 267 708 q 476 647 425 707 q 528 450 528 588 q 449 81 528 175 q 257 -14 369 -14 m 258 19 q 494 432 494 19 q 453 622 494 568 q 321 675 413 675 q 131 601 208 675 l 131 51 q 258 19 171 19 z "},"c":{"ha":489,"x_min":69,"x_max":442,"o":"m 279 -14 q 169 11 214 -14 q 97 112 124 36 q 69 332 69 188 q 141 632 69 556 q 322 708 213 708 q 403 693 367 708 q 439 661 439 678 q 431 636 439 647 q 313 675 383 675 q 163 605 222 675 q 103 325 103 535 q 126 133 103 200 q 188 42 149 65 q 285 18 226 18 q 373 35 335 18 q 433 74 411 51 q 442 49 442 64 q 420 22 442 38 q 361 -3 399 7 q 279 -14 324 -14 z "},"ć":{"ha":489,"x_min":69,"x_max":442,"o":"m 279 -14 q 169 11 214 -14 q 97 112 124 36 q 69 332 69 188 q 141 632 69 556 q 322 708 213 708 q 403 693 367 708 q 439 661 439 678 q 431 636 439 647 q 313 675 383 675 q 163 605 222 675 q 103 325 103 535 q 126 133 103 200 q 188 42 149 65 q 285 18 226 18 q 373 35 335 18 q 433 74 411 51 q 442 49 442 64 q 420 22 442 38 q 361 -3 399 7 q 279 -14 324 -14 m 176 826 q 292 928 233 881 q 369 989 351 976 q 381 976 376 989 q 388 957 386 963 q 315 897 372 943 q 190 804 257 850 l 176 826 z "},"č":{"ha":489,"x_min":69,"x_max":442,"o":"m 279 -14 q 169 11 214 -14 q 97 112 124 36 q 69 332 69 188 q 141 632 69 556 q 322 708 213 708 q 403 693 367 708 q 439 661 439 678 q 431 636 439 647 q 313 675 383 675 q 163 605 222 675 q 103 325 103 535 q 126 133 103 200 q 188 42 149 65 q 285 18 226 18 q 373 35 335 18 q 433 74 411 51 q 442 49 442 64 q 420 22 442 38 q 361 -3 399 7 q 279 -14 324 -14 m 293 814 q 214 882 282 814 q 122 975 146 950 q 131 986 124 978 q 146 994 138 994 q 212 933 153 994 q 292 849 271 871 q 374 946 336 903 q 425 1003 413 989 q 442 981 442 990 q 373 892 442 971 q 293 814 304 814 z "},"ç":{"ha":489,"x_min":69,"x_max":442,"o":"m 442 49 q 424 25 442 39 q 376 1 407 11 q 306 -12 344 -10 l 290 -85 q 299 -83 292 -85 q 317 -82 306 -82 q 363 -99 343 -82 q 382 -153 382 -117 q 356 -226 382 -206 q 296 -246 331 -246 q 253 -242 274 -246 q 228 -237 233 -239 q 231 -217 228 -231 q 244 -203 235 -203 q 266 -208 249 -203 q 296 -214 283 -214 q 349 -161 349 -214 q 335 -121 349 -131 q 297 -111 321 -111 q 268 -114 283 -111 q 249 -118 253 -117 l 271 -14 q 165 14 208 -12 q 96 116 122 40 q 69 332 69 192 q 141 632 69 556 q 322 708 213 708 q 403 693 367 708 q 439 661 439 678 q 431 636 439 647 q 313 675 383 675 q 163 605 222 675 q 103 325 103 535 q 126 133 103 200 q 188 42 149 65 q 285 18 226 18 q 373 35 335 18 q 433 74 411 51 q 442 49 442 64 z "},"d":{"ha":586,"x_min":69,"x_max":489,"o":"m 296 -14 q 175 10 222 -14 q 99 110 128 33 q 69 335 69 186 q 103 542 69 458 q 195 667 138 626 q 324 708 253 708 q 397 701 365 708 q 454 675 428 693 l 454 1000 q 461 1017 454 1014 q 489 1021 468 1021 l 489 28 q 403 -3 454 8 q 296 -14 353 -14 m 306 19 q 456 54 400 19 l 454 636 q 400 667 426 658 q 328 675 374 675 q 213 636 264 675 q 133 520 163 597 q 103 335 103 443 q 128 129 103 197 q 194 41 153 61 q 306 19 236 21 z "},"ð":{"ha":625,"x_min":65,"x_max":565,"o":"m 396 915 q 524 694 483 819 q 565 401 565 568 q 514 98 565 210 q 318 -14 463 -14 q 129 76 193 -14 q 65 356 65 165 q 131 617 65 529 q 321 706 196 706 q 430 684 381 706 q 511 618 479 663 q 363 901 472 783 l 232 849 q 224 876 224 869 q 232 886 224 882 l 336 929 q 232 1013 290 972 q 239 1027 233 1022 q 251 1032 244 1032 q 269 1025 258 1032 q 369 942 326 985 l 486 989 q 494 961 494 967 q 486 951 494 956 l 396 915 m 318 19 q 490 127 447 19 q 532 417 532 235 q 524 543 532 483 q 322 672 453 672 q 157 593 215 672 q 99 356 99 514 q 318 19 99 19 z "},"ď":{"ha":626,"x_min":69,"x_max":635,"o":"m 296 -14 q 175 10 222 -14 q 99 110 128 33 q 69 335 69 186 q 103 542 69 458 q 195 667 138 626 q 324 708 253 708 q 397 701 365 708 q 454 675 428 693 l 454 1000 q 461 1017 454 1014 q 489 1021 468 1021 l 489 28 q 403 -3 454 8 q 296 -14 353 -14 m 306 19 q 456 54 400 19 l 454 636 q 400 667 426 658 q 328 675 374 675 q 213 636 264 675 q 133 520 163 597 q 103 335 103 443 q 128 129 103 197 q 194 41 153 61 q 306 19 236 21 m 574 693 q 563 699 568 693 q 556 710 557 704 q 578 800 571 744 q 585 896 586 856 q 570 913 576 901 q 564 936 564 924 q 574 965 564 954 q 600 975 583 975 q 626 965 618 975 q 635 928 635 956 q 624 835 635 892 q 598 736 613 779 q 574 693 583 693 z "},"đ":{"ha":553,"x_min":69,"x_max":564,"o":"m 563 886 q 564 868 564 879 q 549 851 563 851 l 489 851 l 489 28 q 403 -3 454 8 q 296 -14 353 -14 q 175 10 222 -14 q 99 110 128 33 q 69 335 69 186 q 103 542 69 458 q 195 667 138 626 q 324 708 253 708 q 397 701 365 708 q 454 675 428 693 l 454 851 l 229 851 q 228 869 228 858 q 243 886 231 886 l 454 886 l 454 1000 q 461 1017 454 1014 q 489 1021 468 1021 l 489 886 l 563 886 m 306 19 q 456 54 400 19 l 454 636 q 400 667 426 658 q 328 675 374 675 q 213 636 264 675 q 133 520 163 597 q 103 335 103 443 q 128 129 103 197 q 194 41 153 61 q 306 19 236 21 z "},"e":{"ha":542,"x_min":65,"x_max":489,"o":"m 299 19 q 398 33 350 19 q 476 71 446 46 q 483 44 483 57 q 457 19 483 33 q 388 -4 431 6 q 300 -14 346 -14 q 173 8 222 -14 q 94 101 124 31 q 65 307 65 171 q 103 566 65 478 q 194 681 140 654 q 315 708 247 708 q 447 651 406 708 q 489 492 489 593 q 479 342 489 400 q 153 315 346 315 l 99 317 l 99 301 q 124 118 99 179 q 192 38 150 57 q 299 19 233 19 m 317 675 q 216 656 260 675 q 139 566 172 638 q 100 350 106 494 l 161 349 q 450 371 344 349 q 456 475 456 426 q 423 625 453 575 q 317 675 393 675 z "},"é":{"ha":542,"x_min":65,"x_max":489,"o":"m 299 19 q 398 33 350 19 q 476 71 446 46 q 483 44 483 57 q 457 19 483 33 q 388 -4 431 6 q 300 -14 346 -14 q 173 8 222 -14 q 94 101 124 31 q 65 307 65 171 q 103 566 65 478 q 194 681 140 654 q 315 708 247 708 q 447 651 406 708 q 489 492 489 593 q 479 342 489 400 q 153 315 346 315 l 99 317 l 99 301 q 124 118 99 179 q 192 38 150 57 q 299 19 233 19 m 317 675 q 216 656 260 675 q 139 566 172 638 q 100 350 106 494 l 161 349 q 450 371 344 349 q 456 475 456 426 q 423 625 453 575 q 317 675 393 675 m 200 826 q 316 928 257 881 q 393 989 375 976 q 405 976 400 989 q 411 957 410 963 q 338 897 396 943 q 214 804 281 850 l 200 826 z "},"ě":{"ha":542,"x_min":65,"x_max":489,"o":"m 299 19 q 398 33 350 19 q 476 71 446 46 q 483 44 483 57 q 457 19 483 33 q 388 -4 431 6 q 300 -14 346 -14 q 173 8 222 -14 q 94 101 124 31 q 65 307 65 171 q 103 566 65 478 q 194 681 140 654 q 315 708 247 708 q 447 651 406 708 q 489 492 489 593 q 479 342 489 400 q 153 315 346 315 l 99 317 l 99 301 q 124 118 99 179 q 192 38 150 57 q 299 19 233 19 m 317 675 q 216 656 260 675 q 139 566 172 638 q 100 350 106 494 l 161 349 q 450 371 344 349 q 456 475 456 426 q 423 625 453 575 q 317 675 393 675 m 317 814 q 238 882 306 814 q 146 975 169 950 q 154 986 147 978 q 169 994 161 994 q 235 933 176 994 q 315 849 294 871 q 398 946 360 903 q 449 1003 436 989 q 465 981 465 990 q 397 892 465 971 q 317 814 328 814 z "},"ê":{"ha":542,"x_min":65,"x_max":489,"o":"m 299 19 q 398 33 350 19 q 476 71 446 46 q 483 44 483 57 q 457 19 483 33 q 388 -4 431 6 q 300 -14 346 -14 q 173 8 222 -14 q 94 101 124 31 q 65 307 65 171 q 103 566 65 478 q 194 681 140 654 q 315 708 247 708 q 447 651 406 708 q 489 492 489 593 q 479 342 489 400 q 153 315 346 315 l 99 317 l 99 301 q 124 118 99 179 q 192 38 150 57 q 299 19 233 19 m 317 675 q 216 656 260 675 q 139 566 172 638 q 100 350 106 494 l 161 349 q 450 371 344 349 q 456 475 456 426 q 423 625 453 575 q 317 675 393 675 m 310 938 q 235 862 290 917 q 174 807 179 807 q 154 815 161 807 q 147 825 147 822 l 300 968 q 311 971 303 971 q 331 961 321 971 l 464 828 q 452 815 461 824 q 433 806 443 806 l 310 938 z "},"ế":{"ha":542,"x_min":65,"x_max":668,"o":"m 299 19 q 398 33 350 19 q 476 71 446 46 q 483 44 483 57 q 457 19 483 33 q 388 -4 431 6 q 300 -14 346 -14 q 173 8 222 -14 q 94 101 124 31 q 65 307 65 171 q 103 566 65 478 q 194 681 140 654 q 315 708 247 708 q 447 651 406 708 q 489 492 489 593 q 479 342 489 400 q 153 315 346 315 l 99 317 l 99 301 q 124 118 99 179 q 192 38 150 57 q 299 19 233 19 m 317 675 q 216 656 260 675 q 139 566 172 638 q 100 350 106 494 l 161 349 q 450 371 344 349 q 456 475 456 426 q 423 625 453 575 q 317 675 393 675 m 310 938 q 235 862 290 917 q 174 807 179 807 q 154 815 161 807 q 147 825 147 822 l 300 968 q 311 971 303 971 q 331 961 321 971 l 464 828 q 452 815 461 824 q 433 806 443 806 l 310 938 m 457 944 q 573 1047 514 999 q 650 1107 632 1094 q 662 1094 657 1107 q 668 1075 667 1081 q 595 1015 653 1061 q 471 922 538 968 l 457 944 z "},"ệ":{"ha":542,"x_min":65,"x_max":489,"o":"m 299 19 q 398 33 350 19 q 476 71 446 46 q 483 44 483 57 q 457 19 483 33 q 388 -4 431 6 q 300 -14 346 -14 q 173 8 222 -14 q 94 101 124 31 q 65 307 65 171 q 103 566 65 478 q 194 681 140 654 q 315 708 247 708 q 447 651 406 708 q 489 492 489 593 q 479 342 489 400 q 153 315 346 315 l 99 317 l 99 301 q 124 118 99 179 q 192 38 150 57 q 299 19 233 19 m 317 675 q 216 656 260 675 q 139 566 172 638 q 100 350 106 494 l 161 349 q 450 371 344 349 q 456 475 456 426 q 423 625 453 575 q 317 675 393 675 m 269 -187 q 246 -154 246 -186 q 272 -110 246 -110 q 297 -146 297 -110 q 291 -178 297 -168 q 269 -187 285 -187 m 310 938 q 235 862 290 917 q 174 807 179 807 q 154 815 161 807 q 147 825 147 822 l 300 968 q 311 971 303 971 q 331 961 321 971 l 464 828 q 452 815 461 824 q 433 806 443 806 l 310 938 z "},"ề":{"ha":542,"x_min":65,"x_max":489,"o":"m 299 19 q 398 33 350 19 q 476 71 446 46 q 483 44 483 57 q 457 19 483 33 q 388 -4 431 6 q 300 -14 346 -14 q 173 8 222 -14 q 94 101 124 31 q 65 307 65 171 q 103 566 65 478 q 194 681 140 654 q 315 708 247 708 q 447 651 406 708 q 489 492 489 593 q 479 342 489 400 q 153 315 346 315 l 99 317 l 99 301 q 124 118 99 179 q 192 38 150 57 q 299 19 233 19 m 317 675 q 216 656 260 675 q 139 566 172 638 q 100 350 106 494 l 161 349 q 450 371 344 349 q 456 475 456 426 q 423 625 453 575 q 317 675 393 675 m 310 938 q 235 862 290 917 q 174 807 179 807 q 154 815 161 807 q 147 825 147 822 l 300 968 q 311 971 303 971 q 331 961 321 971 l 464 828 q 452 815 461 824 q 433 806 443 806 l 310 938 m 432 974 q 308 1066 365 1019 q 235 1126 250 1113 q 241 1145 236 1132 q 253 1158 246 1158 q 330 1098 271 1146 q 446 996 389 1050 l 432 974 z "},"ể":{"ha":542,"x_min":65,"x_max":547,"o":"m 299 19 q 398 33 350 19 q 476 71 446 46 q 483 44 483 57 q 457 19 483 33 q 388 -4 431 6 q 300 -14 346 -14 q 173 8 222 -14 q 94 101 124 31 q 65 307 65 171 q 103 566 65 478 q 194 681 140 654 q 315 708 247 708 q 447 651 406 708 q 489 492 489 593 q 479 342 489 400 q 153 315 346 315 l 99 317 l 99 301 q 124 118 99 179 q 192 38 150 57 q 299 19 233 19 m 317 675 q 216 656 260 675 q 139 566 172 638 q 100 350 106 494 l 161 349 q 450 371 344 349 q 456 475 456 426 q 423 625 453 575 q 317 675 393 675 m 310 938 q 235 862 290 917 q 174 807 179 807 q 154 815 161 807 q 147 825 147 822 l 300 968 q 311 971 303 971 q 331 961 321 971 l 464 828 q 452 815 461 824 q 433 806 443 806 l 310 938 m 451 936 q 451 941 451 938 q 450 950 450 944 q 454 971 450 964 q 479 996 461 985 q 501 1015 494 1006 q 508 1046 508 1025 q 453 1104 508 1104 q 399 1088 421 1104 l 399 1121 q 415 1133 399 1126 q 451 1140 431 1140 q 547 1046 547 1140 q 534 1001 547 1017 q 506 977 521 986 q 488 965 492 968 q 480 950 482 960 q 478 938 478 940 q 463 935 475 935 l 451 936 z "},"ễ":{"ha":542,"x_min":65,"x_max":518,"o":"m 299 19 q 398 33 350 19 q 476 71 446 46 q 483 44 483 57 q 457 19 483 33 q 388 -4 431 6 q 300 -14 346 -14 q 173 8 222 -14 q 94 101 124 31 q 65 307 65 171 q 103 566 65 478 q 194 681 140 654 q 315 708 247 708 q 447 651 406 708 q 489 492 489 593 q 479 342 489 400 q 153 315 346 315 l 99 317 l 99 301 q 124 118 99 179 q 192 38 150 57 q 299 19 233 19 m 317 675 q 216 656 260 675 q 139 566 172 638 q 100 350 106 494 l 161 349 q 450 371 344 349 q 456 475 456 426 q 423 625 453 575 q 317 675 393 675 m 310 938 q 235 862 290 917 q 174 807 179 807 q 154 815 161 807 q 147 825 147 822 l 300 968 q 311 971 303 971 q 331 961 321 971 l 464 828 q 452 815 461 824 q 433 806 443 806 l 310 938 m 393 1006 q 341 1019 361 1006 q 300 1056 321 1032 q 275 1080 285 1072 q 251 1088 265 1088 q 208 1072 225 1088 q 176 1035 190 1057 q 157 1014 161 1014 q 144 1022 151 1014 q 135 1033 136 1031 q 192 1100 165 1083 q 260 1117 219 1117 q 297 1107 282 1117 q 328 1078 311 1097 q 358 1050 343 1060 q 393 1040 372 1040 q 449 1057 429 1040 q 481 1093 469 1074 q 497 1113 493 1113 q 511 1103 506 1113 q 518 1092 517 1094 q 472 1029 499 1053 q 393 1006 444 1006 z "},"ë":{"ha":542,"x_min":65,"x_max":489,"o":"m 299 19 q 398 33 350 19 q 476 71 446 46 q 483 44 483 57 q 457 19 483 33 q 388 -4 431 6 q 300 -14 346 -14 q 173 8 222 -14 q 94 101 124 31 q 65 307 65 171 q 103 566 65 478 q 194 681 140 654 q 315 708 247 708 q 447 651 406 708 q 489 492 489 593 q 479 342 489 400 q 153 315 346 315 l 99 317 l 99 301 q 124 118 99 179 q 192 38 150 57 q 299 19 233 19 m 317 675 q 216 656 260 675 q 139 566 172 638 q 100 350 106 494 l 161 349 q 450 371 344 349 q 456 475 456 426 q 423 625 453 575 q 317 675 393 675 m 235 853 q 211 886 211 854 q 238 931 211 931 q 263 894 263 931 q 256 863 263 874 q 235 853 250 853 m 374 853 q 350 886 350 854 q 376 931 350 931 q 401 894 401 931 q 395 863 401 874 q 374 853 389 853 z "},"ė":{"ha":542,"x_min":65,"x_max":489,"o":"m 299 19 q 398 33 350 19 q 476 71 446 46 q 483 44 483 57 q 457 19 483 33 q 388 -4 431 6 q 300 -14 346 -14 q 173 8 222 -14 q 94 101 124 31 q 65 307 65 171 q 103 566 65 478 q 194 681 140 654 q 315 708 247 708 q 447 651 406 708 q 489 492 489 593 q 479 342 489 400 q 153 315 346 315 l 99 317 l 99 301 q 124 118 99 179 q 192 38 150 57 q 299 19 233 19 m 317 675 q 216 656 260 675 q 139 566 172 638 q 100 350 106 494 l 161 349 q 450 371 344 349 q 456 475 456 426 q 423 625 453 575 q 317 675 393 675 m 304 853 q 281 886 281 854 q 307 931 281 931 q 332 894 332 931 q 326 863 332 874 q 304 853 319 853 z "},"ẹ":{"ha":542,"x_min":65,"x_max":489,"o":"m 299 19 q 398 33 350 19 q 476 71 446 46 q 483 44 483 57 q 457 19 483 33 q 388 -4 431 6 q 300 -14 346 -14 q 173 8 222 -14 q 94 101 124 31 q 65 307 65 171 q 103 566 65 478 q 194 681 140 654 q 315 708 247 708 q 447 651 406 708 q 489 492 489 593 q 479 342 489 400 q 153 315 346 315 l 99 317 l 99 301 q 124 118 99 179 q 192 38 150 57 q 299 19 233 19 m 317 675 q 216 656 260 675 q 139 566 172 638 q 100 350 106 494 l 161 349 q 450 371 344 349 q 456 475 456 426 q 423 625 453 575 q 317 675 393 675 m 269 -187 q 246 -154 246 -186 q 272 -110 246 -110 q 297 -146 297 -110 q 291 -178 297 -168 q 269 -187 285 -187 z "},"è":{"ha":542,"x_min":65,"x_max":489,"o":"m 299 19 q 398 33 350 19 q 476 71 446 46 q 483 44 483 57 q 457 19 483 33 q 388 -4 431 6 q 300 -14 346 -14 q 173 8 222 -14 q 94 101 124 31 q 65 307 65 171 q 103 566 65 478 q 194 681 140 654 q 315 708 247 708 q 447 651 406 708 q 489 492 489 593 q 479 342 489 400 q 153 315 346 315 l 99 317 l 99 301 q 124 118 99 179 q 192 38 150 57 q 299 19 233 19 m 317 675 q 216 656 260 675 q 139 566 172 638 q 100 350 106 494 l 161 349 q 450 371 344 349 q 456 475 456 426 q 423 625 453 575 q 317 675 393 675 m 397 804 q 273 897 331 850 q 200 957 215 943 q 206 976 201 963 q 218 989 211 989 q 295 928 236 976 q 411 826 354 881 l 397 804 z "},"ẻ":{"ha":542,"x_min":65,"x_max":489,"o":"m 299 19 q 398 33 350 19 q 476 71 446 46 q 483 44 483 57 q 457 19 483 33 q 388 -4 431 6 q 300 -14 346 -14 q 173 8 222 -14 q 94 101 124 31 q 65 307 65 171 q 103 566 65 478 q 194 681 140 654 q 315 708 247 708 q 447 651 406 708 q 489 492 489 593 q 479 342 489 400 q 153 315 346 315 l 99 317 l 99 301 q 124 118 99 179 q 192 38 150 57 q 299 19 233 19 m 317 675 q 216 656 260 675 q 139 566 172 638 q 100 350 106 494 l 161 349 q 450 371 344 349 q 456 475 456 426 q 423 625 453 575 q 317 675 393 675 m 283 771 q 283 776 283 772 q 282 785 282 779 q 286 806 282 799 q 311 831 293 819 q 333 850 326 840 q 340 881 340 860 q 285 939 340 939 q 231 922 253 939 l 231 956 q 247 968 231 961 q 283 975 263 975 q 379 881 379 975 q 366 836 379 851 q 338 812 353 821 q 319 800 324 803 q 312 785 314 794 q 310 772 310 775 q 294 769 307 769 l 283 771 z "},"ē":{"ha":542,"x_min":65,"x_max":489,"o":"m 299 19 q 398 33 350 19 q 476 71 446 46 q 483 44 483 57 q 457 19 483 33 q 388 -4 431 6 q 300 -14 346 -14 q 173 8 222 -14 q 94 101 124 31 q 65 307 65 171 q 103 566 65 478 q 194 681 140 654 q 315 708 247 708 q 447 651 406 708 q 489 492 489 593 q 479 342 489 400 q 153 315 346 315 l 99 317 l 99 301 q 124 118 99 179 q 192 38 150 57 q 299 19 233 19 m 317 675 q 216 656 260 675 q 139 566 172 638 q 100 350 106 494 l 161 349 q 450 371 344 349 q 456 475 456 426 q 423 625 453 575 q 317 675 393 675 m 139 865 q 138 883 138 872 q 153 900 140 900 l 472 900 q 474 882 474 893 q 458 865 472 865 l 139 865 z "},"ę":{"ha":542,"x_min":65,"x_max":489,"o":"m 431 -271 q 358 -244 383 -271 q 333 -164 333 -217 q 351 -80 333 -122 q 397 -1 369 -37 q 300 -14 347 -14 q 173 8 222 -14 q 94 101 124 31 q 65 307 65 171 q 103 566 65 478 q 194 681 140 654 q 315 708 247 708 q 447 651 406 708 q 489 492 489 593 q 479 342 489 400 q 153 315 346 315 l 99 317 q 124 120 99 185 q 192 38 150 56 q 299 19 233 19 q 398 33 350 19 q 476 71 446 46 q 483 44 483 57 q 474 31 483 39 q 463 22 464 24 q 396 -58 425 -4 q 367 -164 367 -111 q 382 -219 367 -201 q 432 -237 397 -237 q 479 -225 454 -237 q 485 -235 483 -229 l 488 -246 q 472 -265 488 -258 q 431 -271 456 -271 m 161 349 q 450 371 344 349 q 456 475 456 426 q 423 625 453 575 q 317 675 393 675 q 216 656 260 675 q 139 566 172 638 q 100 350 106 494 l 161 349 z "},"ẽ":{"ha":542,"x_min":65,"x_max":497,"o":"m 299 19 q 398 33 350 19 q 476 71 446 46 q 483 44 483 57 q 457 19 483 33 q 388 -4 431 6 q 300 -14 346 -14 q 173 8 222 -14 q 94 101 124 31 q 65 307 65 171 q 103 566 65 478 q 194 681 140 654 q 315 708 247 708 q 447 651 406 708 q 489 492 489 593 q 479 342 489 400 q 153 315 346 315 l 99 317 l 99 301 q 124 118 99 179 q 192 38 150 57 q 299 19 233 19 m 317 675 q 216 656 260 675 q 139 566 172 638 q 100 350 106 494 l 161 349 q 450 371 344 349 q 456 475 456 426 q 423 625 453 575 q 317 675 393 675 m 372 825 q 320 838 340 825 q 279 875 300 851 q 254 899 264 892 q 231 907 244 907 q 187 892 204 907 q 155 855 169 876 q 136 833 140 833 q 123 842 131 833 q 114 853 115 850 q 172 919 144 903 q 239 936 199 936 q 276 926 261 936 q 307 897 290 917 q 337 869 322 879 q 372 860 351 860 q 428 876 408 860 q 460 913 449 893 q 476 932 472 932 q 490 923 485 932 q 497 911 496 914 q 451 849 478 872 q 372 825 424 825 z "},"f":{"ha":335,"x_min":24,"x_max":469,"o":"m 142 661 l 24 661 q 26 690 24 685 q 38 694 28 694 l 142 694 l 142 788 q 204 979 142 931 q 360 1028 267 1028 q 442 1019 415 1028 q 469 1000 469 1010 q 464 979 469 993 q 357 994 411 994 q 267 981 306 994 q 202 921 229 968 q 175 782 175 874 l 175 694 l 344 694 q 342 666 344 671 q 331 661 340 661 l 175 661 l 175 14 q 161 0 175 0 l 142 0 l 142 661 z "},"g":{"ha":575,"x_min":63,"x_max":551,"o":"m 365 56 q 502 16 453 46 q 551 -87 551 -14 q 521 -178 551 -135 q 428 -248 490 -221 q 281 -275 367 -275 q 109 -236 156 -275 q 63 -131 63 -197 q 100 -32 63 -83 q 186 54 138 19 q 86 124 86 82 q 113 182 86 149 q 176 243 140 215 q 105 328 125 272 q 85 461 85 385 q 115 594 85 539 q 197 679 146 650 q 310 708 249 708 q 371 701 332 708 l 546 701 q 547 697 546 700 q 549 689 549 694 q 526 671 549 671 q 421 674 479 671 q 499 607 471 656 q 526 486 526 558 q 471 292 526 371 q 301 214 415 214 q 206 229 247 214 q 146 176 172 206 q 119 126 119 146 q 187 86 119 104 q 365 56 254 68 m 118 458 q 156 306 118 364 q 306 247 194 247 q 410 282 368 247 q 472 372 451 317 q 493 486 493 426 q 444 627 493 579 q 310 675 396 675 q 173 619 228 675 q 118 458 118 563 m 281 -242 q 409 -220 356 -242 q 490 -164 463 -199 q 518 -89 518 -129 q 476 -6 518 -28 q 363 25 435 17 q 225 46 283 33 q 136 -36 176 15 q 96 -131 96 -87 q 134 -212 96 -183 q 281 -242 172 -242 z "},"ğ":{"ha":575,"x_min":63,"x_max":551,"o":"m 365 56 q 502 16 453 46 q 551 -87 551 -14 q 521 -178 551 -135 q 428 -248 490 -221 q 281 -275 367 -275 q 109 -236 156 -275 q 63 -131 63 -197 q 100 -32 63 -83 q 186 54 138 19 q 86 124 86 82 q 113 182 86 149 q 176 243 140 215 q 105 328 125 272 q 85 461 85 385 q 115 594 85 539 q 197 679 146 650 q 310 708 249 708 q 371 701 332 708 l 546 701 q 547 697 546 700 q 549 689 549 694 q 526 671 549 671 q 421 674 479 671 q 499 607 471 656 q 526 486 526 558 q 471 292 526 371 q 301 214 415 214 q 206 229 247 214 q 146 176 172 206 q 119 126 119 146 q 187 86 119 104 q 365 56 254 68 m 118 458 q 156 306 118 364 q 306 247 194 247 q 410 282 368 247 q 472 372 451 317 q 493 486 493 426 q 444 627 493 579 q 310 675 396 675 q 173 619 228 675 q 118 458 118 563 m 281 -242 q 409 -220 356 -242 q 490 -164 463 -199 q 518 -89 518 -129 q 476 -6 518 -28 q 363 25 435 17 q 225 46 283 33 q 136 -36 176 15 q 96 -131 96 -87 q 134 -212 96 -183 q 281 -242 172 -242 m 300 813 q 215 842 251 813 q 160 910 179 872 q 142 964 142 947 q 149 977 142 974 q 168 982 156 981 q 217 886 186 926 q 301 846 247 846 q 378 878 353 846 q 425 968 404 911 q 440 979 429 979 q 453 974 447 979 q 460 963 458 969 q 405 858 443 903 q 300 813 367 813 z "},"ģ":{"ha":575,"x_min":63,"x_max":551,"o":"m 290 781 q 264 790 272 781 q 256 828 256 800 q 270 908 256 863 q 303 987 285 953 q 331 1021 321 1021 q 342 1015 336 1021 q 349 1004 347 1010 q 306 860 304 928 q 320 843 314 854 q 326 819 326 832 q 317 791 326 801 q 290 781 307 781 m 365 56 q 502 16 453 46 q 551 -87 551 -14 q 521 -178 551 -135 q 428 -248 490 -221 q 281 -275 367 -275 q 109 -236 156 -275 q 63 -131 63 -197 q 100 -32 63 -83 q 186 54 138 19 q 86 124 86 82 q 113 182 86 149 q 176 243 140 215 q 105 328 125 272 q 85 461 85 385 q 115 594 85 539 q 197 679 146 650 q 310 708 249 708 q 371 701 332 708 l 546 701 q 547 697 546 700 q 549 689 549 694 q 526 671 549 671 q 421 674 479 671 q 499 607 471 656 q 526 486 526 558 q 471 292 526 371 q 301 214 415 214 q 206 229 247 214 q 146 176 172 206 q 119 126 119 146 q 187 86 119 104 q 365 56 254 68 m 118 458 q 156 306 118 364 q 306 247 194 247 q 410 282 368 247 q 472 372 451 317 q 493 486 493 426 q 444 627 493 579 q 310 675 396 675 q 173 619 228 675 q 118 458 118 563 m 281 -242 q 409 -220 356 -242 q 490 -164 463 -199 q 518 -89 518 -129 q 476 -6 518 -28 q 363 25 435 17 q 225 46 283 33 q 136 -36 176 15 q 96 -131 96 -87 q 134 -212 96 -183 q 281 -242 172 -242 z "},"h":{"ha":576,"x_min":92,"x_max":501,"o":"m 92 1000 q 98 1018 92 1015 q 125 1021 104 1021 l 125 643 q 325 708 214 708 q 464 660 426 708 q 501 518 501 613 l 501 14 q 497 2 501 4 q 468 0 493 0 l 468 518 q 437 635 468 596 q 322 675 406 675 q 219 656 274 675 q 125 597 165 638 l 125 14 q 120 2 125 4 q 92 0 115 0 l 92 1000 z "},"i":{"ha":231,"x_min":90,"x_max":142,"o":"m 99 674 q 105 692 99 689 q 132 694 111 694 l 132 14 q 128 2 132 4 q 99 0 124 0 l 99 674 m 114 853 q 90 886 90 854 q 117 931 90 931 q 142 894 142 931 q 135 863 142 874 q 114 853 129 853 z "},"ı":{"ha":231,"x_min":99,"x_max":132,"o":"m 99 674 q 105 692 99 689 q 132 694 111 694 l 132 14 q 128 2 132 4 q 99 0 124 0 l 99 674 z "},"í":{"ha":231,"x_min":10,"x_max":221,"o":"m 99 674 q 105 692 99 689 q 132 694 111 694 l 132 14 q 128 2 132 4 q 99 0 124 0 l 99 674 m 10 826 q 126 928 67 881 q 203 989 185 976 q 215 976 210 989 q 221 957 219 963 q 148 897 206 943 q 24 804 90 850 l 10 826 z "},"î":{"ha":231,"x_min":-43,"x_max":274,"o":"m 99 674 q 105 692 99 689 q 132 694 111 694 l 132 14 q 128 2 132 4 q 99 0 124 0 l 99 674 m 119 938 q 44 862 100 917 q -17 807 -11 807 q -36 815 -29 807 q -43 825 -43 822 l 110 968 q 121 971 113 971 q 140 961 131 971 l 274 828 q 262 815 271 824 q 243 806 253 806 l 119 938 z "},"ï":{"ha":231,"x_min":21,"x_max":211,"o":"m 99 674 q 105 692 99 689 q 132 694 111 694 l 132 14 q 128 2 132 4 q 99 0 124 0 l 99 674 m 44 853 q 21 886 21 854 q 47 931 21 931 q 72 894 72 931 q 66 863 72 874 q 44 853 60 853 m 183 853 q 160 886 160 854 q 186 931 160 931 q 211 894 211 931 q 205 863 211 874 q 183 853 199 853 z "},"ị":{"ha":231,"x_min":90,"x_max":142,"o":"m 99 674 q 105 692 99 689 q 132 694 111 694 l 132 14 q 128 2 132 4 q 99 0 124 0 l 99 674 m 114 853 q 90 886 90 854 q 117 931 90 931 q 142 894 142 931 q 135 863 142 874 q 114 853 129 853 m 114 -187 q 90 -154 90 -186 q 117 -110 90 -110 q 142 -146 142 -110 q 135 -178 142 -168 q 114 -187 129 -187 z "},"ì":{"ha":231,"x_min":10,"x_max":221,"o":"m 99 674 q 105 692 99 689 q 132 694 111 694 l 132 14 q 128 2 132 4 q 99 0 124 0 l 99 674 m 207 804 q 83 897 140 850 q 10 957 25 943 q 16 976 11 963 q 28 989 21 989 q 105 928 46 976 q 221 826 164 881 l 207 804 z "},"ỉ":{"ha":231,"x_min":40,"x_max":189,"o":"m 99 674 q 105 692 99 689 q 132 694 111 694 l 132 14 q 128 2 132 4 q 99 0 124 0 l 99 674 m 93 771 q 92 776 93 772 q 92 785 92 779 q 96 806 92 799 q 121 831 103 819 q 143 850 136 840 q 150 881 150 860 q 94 939 150 939 q 40 922 63 939 l 40 956 q 56 968 40 961 q 93 975 72 975 q 189 881 189 975 q 176 836 189 851 q 148 812 163 821 q 129 800 133 803 q 122 785 124 794 q 119 772 119 775 q 104 769 117 769 l 93 771 z "},"ĳ":{"ha":479,"x_min":57,"x_max":382,"o":"m 99 674 q 105 692 99 689 q 132 694 111 694 l 132 14 q 128 2 132 4 q 99 0 124 0 l 99 674 m 114 853 q 90 886 90 854 q 117 931 90 931 q 142 894 142 931 q 135 863 142 874 q 114 853 129 853 m 211 -269 q 131 -260 167 -269 q 76 -239 96 -251 q 57 -215 57 -226 q 65 -190 57 -201 q 215 -236 125 -236 q 294 -214 268 -236 q 329 -151 321 -192 q 338 -39 338 -110 l 338 674 q 343 692 338 689 q 371 694 349 694 l 371 -51 q 338 -215 371 -161 q 211 -269 306 -269 m 354 853 q 331 886 331 854 q 357 931 331 931 q 382 894 382 931 q 376 863 382 874 q 354 853 369 853 z "},"ī":{"ha":231,"x_min":3,"x_max":228,"o":"m 99 674 q 105 692 99 689 q 132 694 111 694 l 132 14 q 128 2 132 4 q 99 0 124 0 l 99 674 m 4 865 q 3 883 3 872 q 18 900 3 900 l 226 900 q 228 882 228 893 q 213 865 228 865 l 4 865 z "},"į":{"ha":231,"x_min":-4,"x_max":151,"o":"m 114 853 q 90 886 90 854 q 117 931 90 931 q 142 894 142 931 q 135 863 142 874 q 114 853 129 853 m 94 -271 q 21 -244 46 -271 q -4 -168 -4 -217 q 97 17 -4 -69 l 97 672 q 102 692 97 689 q 133 694 107 694 l 133 14 q 129 3 133 7 q 121 -4 125 -1 q 115 -8 117 -7 q 55 -80 81 -36 q 29 -169 29 -124 q 94 -237 29 -237 q 142 -225 117 -237 q 148 -235 146 -229 q 150 -246 150 -240 q 135 -264 151 -257 q 94 -271 119 -271 z "},"ĩ":{"ha":231,"x_min":-76,"x_max":307,"o":"m 99 674 q 105 692 99 689 q 132 694 111 694 l 132 14 q 128 2 132 4 q 99 0 124 0 l 99 674 m 182 825 q 130 838 150 825 q 89 875 110 851 q 64 899 74 892 q 40 907 54 907 q -3 892 14 907 q -35 855 -21 876 q -54 833 -50 833 q -67 842 -60 833 q -76 853 -75 850 q -19 919 -46 903 q 49 936 8 936 q 85 926 71 936 q 117 897 100 917 q 147 869 132 879 q 182 860 161 860 q 238 876 218 860 q 270 913 258 893 q 286 932 282 932 q 300 923 294 932 q 307 911 306 914 q 260 849 288 872 q 182 825 233 825 z "},"j":{"ha":249,"x_min":-174,"x_max":151,"o":"m -19 -269 q -99 -260 -64 -269 q -154 -239 -135 -251 q -174 -215 -174 -226 q -165 -190 -174 -201 q -15 -236 -106 -236 q 64 -214 38 -236 q 99 -151 90 -192 q 107 -39 107 -110 l 107 674 q 113 692 107 689 q 140 694 118 694 l 140 -51 q 108 -215 140 -161 q -19 -269 75 -269 m 124 853 q 100 886 100 854 q 126 931 100 931 q 151 894 151 931 q 145 863 151 874 q 124 853 139 853 z "},"ȷ":{"ha":249,"x_min":-174,"x_max":140,"o":"m -19 -269 q -99 -260 -64 -269 q -154 -239 -135 -251 q -174 -215 -174 -226 q -165 -190 -174 -201 q -15 -236 -106 -236 q 64 -214 38 -236 q 99 -151 90 -192 q 107 -39 107 -110 l 107 674 q 113 692 107 689 q 140 694 118 694 l 140 -51 q 108 -215 140 -161 q -19 -269 75 -269 z "},"k":{"ha":561,"x_min":97,"x_max":511,"o":"m 97 1000 q 103 1018 97 1015 q 131 1021 110 1021 l 131 599 q 239 679 175 650 q 353 708 303 708 q 448 678 418 708 q 478 585 478 647 q 416 440 478 497 q 297 361 354 383 q 318 364 311 364 q 390 345 353 364 q 460 285 428 326 q 504 178 492 243 q 511 99 511 139 q 506 18 511 57 q 499 2 503 4 q 469 0 496 0 q 476 94 476 58 q 454 226 476 174 q 385 309 429 285 q 290 333 340 333 q 236 326 260 333 q 175 306 207 318 q 131 289 143 293 l 131 14 l 131 10 q 126 1 131 3 q 97 0 122 0 l 97 1000 m 131 325 q 358 433 272 368 q 444 585 444 497 q 350 675 444 675 q 240 647 297 675 q 131 558 183 618 l 131 325 z "},"ķ":{"ha":561,"x_min":97,"x_max":511,"o":"m 97 1000 q 103 1018 97 1015 q 131 1021 110 1021 l 131 599 q 239 679 175 650 q 353 708 303 708 q 448 678 418 708 q 478 585 478 647 q 416 440 478 497 q 297 361 354 383 q 318 364 311 364 q 390 345 353 364 q 460 285 428 326 q 504 178 492 243 q 511 99 511 139 q 506 18 511 57 q 499 2 503 4 q 469 0 496 0 q 476 94 476 58 q 454 226 476 174 q 385 309 429 285 q 290 333 340 333 q 236 326 260 333 q 175 306 207 318 q 131 289 143 293 l 131 14 l 131 10 q 126 1 131 3 q 97 0 122 0 l 97 1000 m 131 325 q 358 433 272 368 q 444 585 444 497 q 350 675 444 675 q 240 647 297 675 q 131 558 183 618 l 131 325 m 251 -326 q 240 -321 246 -326 q 233 -310 235 -315 q 276 -165 278 -233 q 262 -149 268 -160 q 256 -125 256 -137 q 265 -97 256 -107 q 292 -86 275 -86 q 318 -96 310 -86 q 326 -133 326 -106 q 312 -213 326 -168 q 279 -292 297 -258 q 251 -326 261 -326 z "},"l":{"ha":229,"x_min":97,"x_max":131,"o":"m 97 1000 q 103 1018 97 1015 q 131 1021 110 1021 l 131 14 q 126 2 131 4 q 97 0 122 0 l 97 1000 z "},"ĺ":{"ha":229,"x_min":10,"x_max":221,"o":"m 97 1000 q 103 1018 97 1015 q 131 1021 110 1021 l 131 14 q 126 2 131 4 q 97 0 122 0 l 97 1000 m 10 1153 q 126 1255 67 1207 q 203 1315 185 1303 q 215 1302 210 1315 q 221 1283 219 1289 q 148 1223 206 1269 q 24 1131 90 1176 l 10 1153 z "},"ľ":{"ha":229,"x_min":97,"x_max":131,"o":"m 97 1000 q 103 1018 97 1015 q 131 1021 110 1021 l 131 14 q 126 2 131 4 q 97 0 122 0 l 97 1000 z "},"ļ":{"ha":229,"x_min":68,"x_max":161,"o":"m 97 1000 q 103 1018 97 1015 q 131 1021 110 1021 l 131 14 q 126 2 131 4 q 97 0 122 0 l 97 1000 m 86 -326 q 75 -321 81 -326 q 68 -310 69 -315 q 111 -165 113 -233 q 97 -149 103 -160 q 90 -125 90 -137 q 100 -97 90 -107 q 126 -86 110 -86 q 153 -96 144 -86 q 161 -133 161 -106 q 147 -213 161 -168 q 114 -292 132 -258 q 86 -326 96 -326 z "},"ŀ":{"ha":228,"x_min":97,"x_max":263,"o":"m 97 1000 q 103 1018 97 1015 q 131 1021 110 1021 l 131 14 q 126 2 131 4 q 97 0 122 0 l 97 1000 m 222 332 q 194 344 204 332 q 185 375 185 356 q 195 405 185 393 q 222 417 206 417 q 251 404 239 417 q 263 375 263 392 q 251 344 263 356 q 222 332 240 332 z "},"ł":{"ha":229,"x_min":4,"x_max":224,"o":"m 215 696 q 224 668 224 674 q 215 658 224 663 l 131 624 l 131 14 l 131 10 q 126 1 131 3 q 97 0 122 0 l 97 611 l 13 576 q 4 604 4 597 q 13 614 4 610 l 97 649 l 97 1000 q 103 1018 97 1015 q 131 1021 110 1021 l 131 661 l 215 696 z "},"m":{"ha":868,"x_min":97,"x_max":779,"o":"m 625 708 q 724 685 690 708 q 768 619 757 663 q 779 500 779 575 l 779 14 q 775 2 779 4 q 746 0 771 0 l 746 510 q 737 606 746 571 q 702 658 728 640 q 626 675 676 675 q 457 624 533 675 l 457 513 l 457 511 l 457 14 q 453 2 457 4 q 425 0 449 0 l 424 0 l 424 510 l 424 511 q 417 608 424 576 q 385 657 411 639 q 300 675 360 675 q 131 638 213 675 l 131 14 q 126 2 131 4 q 97 0 121 0 l 97 663 q 299 708 204 708 q 390 695 357 708 q 438 654 422 682 q 625 708 529 708 z "},"n":{"ha":586,"x_min":93,"x_max":508,"o":"m 93 658 q 322 708 215 708 q 438 686 397 708 q 494 622 479 664 q 508 511 508 579 l 508 14 q 504 2 508 4 q 475 0 500 0 l 475 506 q 463 603 475 567 q 417 657 450 639 q 324 675 385 675 q 223 665 279 675 q 126 635 167 654 l 126 14 q 122 2 126 4 q 93 0 118 0 l 93 658 z "},"ń":{"ha":586,"x_min":93,"x_max":508,"o":"m 93 658 q 322 708 215 708 q 438 686 397 708 q 494 622 479 664 q 508 511 508 579 l 508 14 q 504 2 508 4 q 475 0 500 0 l 475 506 q 463 603 475 567 q 417 657 450 639 q 324 675 385 675 q 223 665 279 675 q 126 635 167 654 l 126 14 q 122 2 126 4 q 93 0 118 0 l 93 658 m 188 826 q 303 928 244 881 q 381 989 363 976 q 392 976 388 989 q 399 957 397 963 q 326 897 383 943 q 201 804 268 850 l 188 826 z "},"ŉ":{"ha":586,"x_min":93,"x_max":508,"o":"m 93 658 q 322 708 215 708 q 438 686 397 708 q 494 622 479 664 q 508 511 508 579 l 508 14 q 504 2 508 4 q 475 0 500 0 l 475 506 q 463 603 475 567 q 417 657 450 639 q 324 675 385 675 q 223 665 279 675 q 126 635 167 654 l 126 14 q 122 2 126 4 q 93 0 118 0 l 93 658 m 122 799 q 111 804 117 799 q 104 815 106 810 q 127 906 119 850 q 133 1001 135 961 q 119 1018 125 1007 q 113 1042 113 1029 q 122 1070 113 1060 q 149 1081 132 1081 q 175 1071 167 1081 q 183 1033 183 1061 q 172 941 183 997 q 147 842 161 885 q 122 799 132 799 z "},"ň":{"ha":586,"x_min":93,"x_max":508,"o":"m 93 658 q 322 708 215 708 q 438 686 397 708 q 494 622 479 664 q 508 511 508 579 l 508 14 q 504 2 508 4 q 475 0 500 0 l 475 506 q 463 603 475 567 q 417 657 450 639 q 324 675 385 675 q 223 665 279 675 q 126 635 167 654 l 126 14 q 122 2 126 4 q 93 0 118 0 l 93 658 m 304 814 q 225 882 293 814 q 133 975 157 950 q 142 986 135 978 q 157 994 149 994 q 223 933 164 994 q 303 849 282 871 q 385 946 347 903 q 436 1003 424 989 q 453 981 453 990 q 384 892 453 971 q 304 814 315 814 z "},"ņ":{"ha":586,"x_min":93,"x_max":508,"o":"m 93 658 q 322 708 215 708 q 438 686 397 708 q 494 622 479 664 q 508 511 508 579 l 508 14 q 504 2 508 4 q 475 0 500 0 l 475 506 q 463 603 475 567 q 417 657 450 639 q 324 675 385 675 q 223 665 279 675 q 126 635 167 654 l 126 14 q 122 2 126 4 q 93 0 118 0 l 93 658 m 264 -326 q 253 -321 258 -326 q 246 -310 247 -315 q 289 -165 290 -233 q 274 -149 281 -160 q 268 -125 268 -137 q 278 -97 268 -107 q 304 -86 288 -86 q 331 -96 322 -86 q 339 -133 339 -106 q 324 -213 339 -168 q 292 -292 310 -258 q 264 -326 274 -326 z "},"ñ":{"ha":586,"x_min":93,"x_max":508,"o":"m 93 658 q 322 708 215 708 q 438 686 397 708 q 494 622 479 664 q 508 511 508 579 l 508 14 q 504 2 508 4 q 475 0 500 0 l 475 506 q 463 603 475 567 q 417 657 450 639 q 324 675 385 675 q 223 665 279 675 q 126 635 167 654 l 126 14 q 122 2 126 4 q 93 0 118 0 l 93 658 m 360 825 q 308 838 328 825 q 267 875 288 851 q 242 899 251 892 q 218 907 232 907 q 174 892 192 907 q 142 855 157 876 q 124 833 128 833 q 110 842 118 833 q 101 853 103 850 q 159 919 132 903 q 226 936 186 936 q 263 926 249 936 q 294 897 278 917 q 324 869 310 879 q 360 860 339 860 q 416 876 396 860 q 448 913 436 893 q 464 932 460 932 q 478 923 472 932 q 485 911 483 914 q 438 849 465 872 q 360 825 411 825 z "},"o":{"ha":557,"x_min":56,"x_max":501,"o":"m 271 -14 q 153 12 199 -14 q 81 115 107 38 q 56 344 56 193 q 288 708 56 708 q 408 676 361 708 q 478 564 454 643 q 501 344 501 485 q 442 76 501 167 q 271 -14 382 -14 m 272 19 q 417 103 365 19 q 468 350 468 188 q 447 548 468 476 q 385 647 425 619 q 286 675 346 675 q 140 595 192 675 q 89 335 89 515 q 110 142 89 211 q 170 47 131 74 q 272 19 210 19 z "},"ó":{"ha":557,"x_min":56,"x_max":501,"o":"m 271 -14 q 153 12 199 -14 q 81 115 107 38 q 56 344 56 193 q 288 708 56 708 q 408 676 361 708 q 478 564 454 643 q 501 344 501 485 q 442 76 501 167 q 271 -14 382 -14 m 272 19 q 417 103 365 19 q 468 350 468 188 q 447 548 468 476 q 385 647 425 619 q 286 675 346 675 q 140 595 192 675 q 89 335 89 515 q 110 142 89 211 q 170 47 131 74 q 272 19 210 19 m 181 826 q 297 928 238 881 q 374 989 356 976 q 385 976 381 989 q 392 957 390 963 q 319 897 376 943 q 194 804 261 850 l 181 826 z "},"ô":{"ha":557,"x_min":56,"x_max":501,"o":"m 271 -14 q 153 12 199 -14 q 81 115 107 38 q 56 344 56 193 q 288 708 56 708 q 408 676 361 708 q 478 564 454 643 q 501 344 501 485 q 442 76 501 167 q 271 -14 382 -14 m 272 19 q 417 103 365 19 q 468 350 468 188 q 447 548 468 476 q 385 647 425 619 q 286 675 346 675 q 140 595 192 675 q 89 335 89 515 q 110 142 89 211 q 170 47 131 74 q 272 19 210 19 m 290 938 q 215 862 271 917 q 154 807 160 807 q 135 815 142 807 q 128 825 128 822 l 281 968 q 292 971 283 971 q 311 961 301 971 l 444 828 q 433 815 442 824 q 414 806 424 806 l 290 938 z "},"ố":{"ha":557,"x_min":56,"x_max":649,"o":"m 271 -14 q 153 12 199 -14 q 81 115 107 38 q 56 344 56 193 q 288 708 56 708 q 408 676 361 708 q 478 564 454 643 q 501 344 501 485 q 442 76 501 167 q 271 -14 382 -14 m 272 19 q 417 103 365 19 q 468 350 468 188 q 447 548 468 476 q 385 647 425 619 q 286 675 346 675 q 140 595 192 675 q 89 335 89 515 q 110 142 89 211 q 170 47 131 74 q 272 19 210 19 m 290 938 q 215 862 271 917 q 154 807 160 807 q 135 815 142 807 q 128 825 128 822 l 281 968 q 292 971 283 971 q 311 961 301 971 l 444 828 q 433 815 442 824 q 414 806 424 806 l 290 938 m 438 944 q 553 1047 494 999 q 631 1107 613 1094 q 642 1094 638 1107 q 649 1075 647 1081 q 576 1015 633 1061 q 451 922 518 968 l 438 944 z "},"ộ":{"ha":557,"x_min":56,"x_max":501,"o":"m 271 -14 q 153 12 199 -14 q 81 115 107 38 q 56 344 56 193 q 288 708 56 708 q 408 676 361 708 q 478 564 454 643 q 501 344 501 485 q 442 76 501 167 q 271 -14 382 -14 m 272 19 q 417 103 365 19 q 468 350 468 188 q 447 548 468 476 q 385 647 425 619 q 286 675 346 675 q 140 595 192 675 q 89 335 89 515 q 110 142 89 211 q 170 47 131 74 q 272 19 210 19 m 278 -187 q 254 -154 254 -186 q 281 -110 254 -110 q 306 -146 306 -110 q 299 -178 306 -168 q 278 -187 293 -187 m 290 938 q 215 862 271 917 q 154 807 160 807 q 135 815 142 807 q 128 825 128 822 l 281 968 q 292 971 283 971 q 311 961 301 971 l 444 828 q 433 815 442 824 q 414 806 424 806 l 290 938 z "},"ồ":{"ha":557,"x_min":56,"x_max":501,"o":"m 271 -14 q 153 12 199 -14 q 81 115 107 38 q 56 344 56 193 q 288 708 56 708 q 408 676 361 708 q 478 564 454 643 q 501 344 501 485 q 442 76 501 167 q 271 -14 382 -14 m 272 19 q 417 103 365 19 q 468 350 468 188 q 447 548 468 476 q 385 647 425 619 q 286 675 346 675 q 140 595 192 675 q 89 335 89 515 q 110 142 89 211 q 170 47 131 74 q 272 19 210 19 m 290 938 q 215 862 271 917 q 154 807 160 807 q 135 815 142 807 q 128 825 128 822 l 281 968 q 292 971 283 971 q 311 961 301 971 l 444 828 q 433 815 442 824 q 414 806 424 806 l 290 938 m 413 974 q 288 1066 346 1019 q 215 1126 231 1113 q 222 1145 217 1132 q 233 1158 226 1158 q 310 1098 251 1146 q 426 996 369 1050 l 413 974 z "},"ổ":{"ha":557,"x_min":56,"x_max":528,"o":"m 271 -14 q 153 12 199 -14 q 81 115 107 38 q 56 344 56 193 q 288 708 56 708 q 408 676 361 708 q 478 564 454 643 q 501 344 501 485 q 442 76 501 167 q 271 -14 382 -14 m 272 19 q 417 103 365 19 q 468 350 468 188 q 447 548 468 476 q 385 647 425 619 q 286 675 346 675 q 140 595 192 675 q 89 335 89 515 q 110 142 89 211 q 170 47 131 74 q 272 19 210 19 m 290 938 q 215 862 271 917 q 154 807 160 807 q 135 815 142 807 q 128 825 128 822 l 281 968 q 292 971 283 971 q 311 961 301 971 l 444 828 q 433 815 442 824 q 414 806 424 806 l 290 938 m 432 936 q 431 941 432 938 q 431 950 431 944 q 435 971 431 964 q 460 996 442 985 q 482 1015 475 1006 q 489 1046 489 1025 q 433 1104 489 1104 q 379 1088 401 1104 l 379 1121 q 395 1133 379 1126 q 432 1140 411 1140 q 528 1046 528 1140 q 515 1001 528 1017 q 487 977 501 986 q 468 965 472 968 q 460 950 463 960 q 458 938 458 940 q 443 935 456 935 l 432 936 z "},"ỗ":{"ha":557,"x_min":56,"x_max":501,"o":"m 271 -14 q 153 12 199 -14 q 81 115 107 38 q 56 344 56 193 q 288 708 56 708 q 408 676 361 708 q 478 564 454 643 q 501 344 501 485 q 442 76 501 167 q 271 -14 382 -14 m 272 19 q 417 103 365 19 q 468 350 468 188 q 447 548 468 476 q 385 647 425 619 q 286 675 346 675 q 140 595 192 675 q 89 335 89 515 q 110 142 89 211 q 170 47 131 74 q 272 19 210 19 m 290 938 q 215 862 271 917 q 154 807 160 807 q 135 815 142 807 q 128 825 128 822 l 281 968 q 292 971 283 971 q 311 961 301 971 l 444 828 q 433 815 442 824 q 414 806 424 806 l 290 938 m 374 1006 q 322 1019 342 1006 q 281 1056 301 1032 q 256 1080 265 1072 q 232 1088 246 1088 q 188 1072 206 1088 q 156 1035 171 1057 q 138 1014 142 1014 q 124 1022 132 1014 q 115 1033 117 1031 q 173 1100 146 1083 q 240 1117 200 1117 q 277 1107 263 1117 q 308 1078 292 1097 q 338 1050 324 1060 q 374 1040 353 1040 q 430 1057 410 1040 q 462 1093 450 1074 q 478 1113 474 1113 q 492 1103 486 1113 q 499 1092 497 1094 q 452 1029 479 1053 q 374 1006 425 1006 z "},"ö":{"ha":557,"x_min":56,"x_max":501,"o":"m 271 -14 q 153 12 199 -14 q 81 115 107 38 q 56 344 56 193 q 288 708 56 708 q 408 676 361 708 q 478 564 454 643 q 501 344 501 485 q 442 76 501 167 q 271 -14 382 -14 m 272 19 q 417 103 365 19 q 468 350 468 188 q 447 548 468 476 q 385 647 425 619 q 286 675 346 675 q 140 595 192 675 q 89 335 89 515 q 110 142 89 211 q 170 47 131 74 q 272 19 210 19 m 215 853 q 192 886 192 854 q 218 931 192 931 q 243 894 243 931 q 237 863 243 874 q 215 853 231 853 m 354 853 q 331 886 331 854 q 357 931 331 931 q 382 894 382 931 q 376 863 382 874 q 354 853 369 853 z "},"ọ":{"ha":557,"x_min":56,"x_max":501,"o":"m 271 -14 q 153 12 199 -14 q 81 115 107 38 q 56 344 56 193 q 288 708 56 708 q 408 676 361 708 q 478 564 454 643 q 501 344 501 485 q 442 76 501 167 q 271 -14 382 -14 m 272 19 q 417 103 365 19 q 468 350 468 188 q 447 548 468 476 q 385 647 425 619 q 286 675 346 675 q 140 595 192 675 q 89 335 89 515 q 110 142 89 211 q 170 47 131 74 q 272 19 210 19 m 278 -187 q 254 -154 254 -186 q 281 -110 254 -110 q 306 -146 306 -110 q 299 -178 306 -168 q 278 -187 293 -187 z "},"ò":{"ha":557,"x_min":56,"x_max":501,"o":"m 271 -14 q 153 12 199 -14 q 81 115 107 38 q 56 344 56 193 q 288 708 56 708 q 408 676 361 708 q 478 564 454 643 q 501 344 501 485 q 442 76 501 167 q 271 -14 382 -14 m 272 19 q 417 103 365 19 q 468 350 468 188 q 447 548 468 476 q 385 647 425 619 q 286 675 346 675 q 140 595 192 675 q 89 335 89 515 q 110 142 89 211 q 170 47 131 74 q 272 19 210 19 m 378 804 q 253 897 311 850 q 181 957 196 943 q 187 976 182 963 q 199 989 192 989 q 276 928 217 976 q 392 826 335 881 l 378 804 z "},"ỏ":{"ha":557,"x_min":56,"x_max":501,"o":"m 271 -14 q 153 12 199 -14 q 81 115 107 38 q 56 344 56 193 q 288 708 56 708 q 408 676 361 708 q 478 564 454 643 q 501 344 501 485 q 442 76 501 167 q 271 -14 382 -14 m 272 19 q 417 103 365 19 q 468 350 468 188 q 447 548 468 476 q 385 647 425 619 q 286 675 346 675 q 140 595 192 675 q 89 335 89 515 q 110 142 89 211 q 170 47 131 74 q 272 19 210 19 m 264 771 q 263 776 264 772 q 263 785 263 779 q 267 806 263 799 q 292 831 274 819 q 314 850 307 840 q 321 881 321 860 q 265 939 321 939 q 211 922 233 939 l 211 956 q 227 968 211 961 q 264 975 243 975 q 360 881 360 975 q 347 836 360 851 q 319 812 333 821 q 300 800 304 803 q 292 785 294 794 q 290 772 290 775 q 275 769 288 769 l 264 771 z "},"ơ":{"ha":557,"x_min":56,"x_max":501,"o":"m 419 667 q 481 552 461 629 q 501 344 501 475 q 442 76 501 167 q 271 -14 382 -14 q 153 12 199 -14 q 81 115 107 38 q 56 344 56 193 q 288 708 56 708 q 376 693 340 708 q 442 718 425 694 q 460 786 460 742 q 464 795 460 792 q 474 799 468 799 q 488 794 482 799 q 494 781 494 789 q 479 710 497 742 q 419 667 461 679 m 272 19 q 417 103 365 19 q 468 350 468 188 q 447 548 468 476 q 385 647 425 619 q 286 675 346 675 q 140 595 192 675 q 89 335 89 515 q 110 142 89 211 q 170 47 131 74 q 272 19 210 19 z "},"ớ":{"ha":557,"x_min":56,"x_max":501,"o":"m 419 667 q 481 552 461 629 q 501 344 501 475 q 442 76 501 167 q 271 -14 382 -14 q 153 12 199 -14 q 81 115 107 38 q 56 344 56 193 q 288 708 56 708 q 376 693 340 708 q 442 718 425 694 q 460 786 460 742 q 464 795 460 792 q 474 799 468 799 q 488 794 482 799 q 494 781 494 789 q 479 710 497 742 q 419 667 461 679 m 272 19 q 417 103 365 19 q 468 350 468 188 q 447 548 468 476 q 385 647 425 619 q 286 675 346 675 q 140 595 192 675 q 89 335 89 515 q 110 142 89 211 q 170 47 131 74 q 272 19 210 19 m 181 826 q 297 928 238 881 q 374 989 356 976 q 385 976 381 989 q 392 957 390 963 q 319 897 376 943 q 194 804 261 850 l 181 826 z "},"ợ":{"ha":557,"x_min":56,"x_max":501,"o":"m 419 667 q 481 552 461 629 q 501 344 501 475 q 442 76 501 167 q 271 -14 382 -14 q 153 12 199 -14 q 81 115 107 38 q 56 344 56 193 q 288 708 56 708 q 376 693 340 708 q 442 718 425 694 q 460 786 460 742 q 464 795 460 792 q 474 799 468 799 q 488 794 482 799 q 494 781 494 789 q 479 710 497 742 q 419 667 461 679 m 272 19 q 417 103 365 19 q 468 350 468 188 q 447 548 468 476 q 385 647 425 619 q 286 675 346 675 q 140 595 192 675 q 89 335 89 515 q 110 142 89 211 q 170 47 131 74 q 272 19 210 19 m 278 -187 q 254 -154 254 -186 q 281 -110 254 -110 q 306 -146 306 -110 q 299 -178 306 -168 q 278 -187 293 -187 z "},"ờ":{"ha":557,"x_min":56,"x_max":501,"o":"m 419 667 q 481 552 461 629 q 501 344 501 475 q 442 76 501 167 q 271 -14 382 -14 q 153 12 199 -14 q 81 115 107 38 q 56 344 56 193 q 288 708 56 708 q 376 693 340 708 q 442 718 425 694 q 460 786 460 742 q 464 795 460 792 q 474 799 468 799 q 488 794 482 799 q 494 781 494 789 q 479 710 497 742 q 419 667 461 679 m 272 19 q 417 103 365 19 q 468 350 468 188 q 447 548 468 476 q 385 647 425 619 q 286 675 346 675 q 140 595 192 675 q 89 335 89 515 q 110 142 89 211 q 170 47 131 74 q 272 19 210 19 m 336 804 q 212 897 269 850 q 139 957 154 943 q 145 976 140 963 q 157 989 150 989 q 234 928 175 976 q 350 826 293 881 l 336 804 z "},"ở":{"ha":557,"x_min":56,"x_max":501,"o":"m 419 667 q 481 552 461 629 q 501 344 501 475 q 442 76 501 167 q 271 -14 382 -14 q 153 12 199 -14 q 81 115 107 38 q 56 344 56 193 q 288 708 56 708 q 376 693 340 708 q 442 718 425 694 q 460 786 460 742 q 464 795 460 792 q 474 799 468 799 q 488 794 482 799 q 494 781 494 789 q 479 710 497 742 q 419 667 461 679 m 272 19 q 417 103 365 19 q 468 350 468 188 q 447 548 468 476 q 385 647 425 619 q 286 675 346 675 q 140 595 192 675 q 89 335 89 515 q 110 142 89 211 q 170 47 131 74 q 272 19 210 19 m 264 771 q 263 776 264 772 q 263 785 263 779 q 267 806 263 799 q 292 831 274 819 q 314 850 307 840 q 321 881 321 860 q 265 939 321 939 q 211 922 233 939 l 211 956 q 227 968 211 961 q 264 975 243 975 q 360 881 360 975 q 347 836 360 851 q 319 812 333 821 q 300 800 304 803 q 292 785 294 794 q 290 772 290 775 q 275 769 288 769 l 264 771 z "},"ỡ":{"ha":557,"x_min":56,"x_max":501,"o":"m 419 667 q 481 552 461 629 q 501 344 501 475 q 442 76 501 167 q 271 -14 382 -14 q 153 12 199 -14 q 81 115 107 38 q 56 344 56 193 q 288 708 56 708 q 376 693 340 708 q 442 718 425 694 q 460 786 460 742 q 464 795 460 792 q 474 799 468 799 q 488 794 482 799 q 494 781 494 789 q 479 710 497 742 q 419 667 461 679 m 272 19 q 417 103 365 19 q 468 350 468 188 q 447 548 468 476 q 385 647 425 619 q 286 675 346 675 q 140 595 192 675 q 89 335 89 515 q 110 142 89 211 q 170 47 131 74 q 272 19 210 19 m 353 825 q 301 838 321 825 q 260 875 281 851 q 235 899 244 892 q 211 907 225 907 q 167 892 185 907 q 135 855 150 876 q 117 833 121 833 q 103 842 111 833 q 94 853 96 850 q 152 919 125 903 q 219 936 179 936 q 256 926 242 936 q 288 897 271 917 q 317 869 303 879 q 353 860 332 860 q 409 876 389 860 q 441 913 429 893 q 457 932 453 932 q 471 923 465 932 q 478 911 476 914 q 431 849 458 872 q 353 825 404 825 z "},"ő":{"ha":557,"x_min":56,"x_max":501,"o":"m 271 -14 q 153 12 199 -14 q 81 115 107 38 q 56 344 56 193 q 288 708 56 708 q 408 676 361 708 q 478 564 454 643 q 501 344 501 485 q 442 76 501 167 q 271 -14 382 -14 m 272 19 q 417 103 365 19 q 468 350 468 188 q 447 548 468 476 q 385 647 425 619 q 286 675 346 675 q 140 595 192 675 q 89 335 89 515 q 110 142 89 211 q 170 47 131 74 q 272 19 210 19 m 169 819 q 251 931 208 878 q 307 1000 294 985 l 308 1000 q 322 989 315 1000 q 331 974 329 978 q 278 907 319 958 q 188 801 238 856 l 169 819 m 308 819 q 390 931 347 878 q 446 1000 433 985 l 447 1000 q 461 989 454 1000 q 469 974 468 978 q 417 907 458 958 q 326 801 376 856 l 308 819 z "},"ō":{"ha":557,"x_min":56,"x_max":501,"o":"m 271 -14 q 153 12 199 -14 q 81 115 107 38 q 56 344 56 193 q 288 708 56 708 q 408 676 361 708 q 478 564 454 643 q 501 344 501 485 q 442 76 501 167 q 271 -14 382 -14 m 272 19 q 417 103 365 19 q 468 350 468 188 q 447 548 468 476 q 385 647 425 619 q 286 675 346 675 q 140 595 192 675 q 89 335 89 515 q 110 142 89 211 q 170 47 131 74 q 272 19 210 19 m 119 865 q 118 883 118 872 q 133 900 121 900 l 453 900 q 454 882 454 893 q 439 865 453 865 l 119 865 z "},"ø":{"ha":608,"x_min":58,"x_max":553,"o":"m 493 613 q 536 344 536 524 q 478 76 536 167 q 315 -14 421 -14 q 209 3 251 -14 q 139 67 167 19 l 82 -25 q 65 -22 71 -25 q 58 -7 58 -18 q 89 42 68 8 q 124 97 110 76 q 90 344 90 179 q 319 708 90 708 q 475 640 426 708 l 529 725 q 543 720 533 725 q 553 707 553 715 l 493 613 m 321 675 q 175 595 226 675 q 124 335 124 515 q 150 125 124 201 l 453 613 q 397 660 429 646 q 321 675 365 675 m 307 19 q 451 103 400 19 q 503 350 503 188 q 468 583 503 506 l 165 93 q 222 36 188 53 q 307 19 257 19 z "},"õ":{"ha":557,"x_min":56,"x_max":501,"o":"m 271 -14 q 153 12 199 -14 q 81 115 107 38 q 56 344 56 193 q 288 708 56 708 q 408 676 361 708 q 478 564 454 643 q 501 344 501 485 q 442 76 501 167 q 271 -14 382 -14 m 272 19 q 417 103 365 19 q 468 350 468 188 q 447 548 468 476 q 385 647 425 619 q 286 675 346 675 q 140 595 192 675 q 89 335 89 515 q 110 142 89 211 q 170 47 131 74 q 272 19 210 19 m 353 825 q 301 838 321 825 q 260 875 281 851 q 235 899 244 892 q 211 907 225 907 q 167 892 185 907 q 135 855 150 876 q 117 833 121 833 q 103 842 111 833 q 94 853 96 850 q 152 919 125 903 q 219 936 179 936 q 256 926 242 936 q 288 897 271 917 q 317 869 303 879 q 353 860 332 860 q 409 876 389 860 q 441 913 429 893 q 457 932 453 932 q 471 923 465 932 q 478 911 476 914 q 431 849 458 872 q 353 825 404 825 z "},"œ":{"ha":944,"x_min":56,"x_max":892,"o":"m 701 19 q 801 33 753 19 q 879 71 849 46 q 886 38 886 57 q 859 18 886 31 q 790 -4 832 6 q 703 -14 747 -14 q 599 -1 642 -14 q 526 51 557 13 q 481 163 494 89 q 404 31 456 75 q 281 -14 353 -14 q 156 12 203 -14 q 82 115 108 38 q 56 344 56 193 q 285 708 56 708 q 418 665 368 708 q 488 518 468 622 q 544 644 507 601 q 622 697 581 686 q 718 708 663 708 q 892 499 892 708 q 882 342 892 400 q 556 315 749 315 l 501 317 l 501 301 q 527 118 501 179 q 594 38 553 57 q 701 19 636 19 m 272 19 q 417 103 365 19 q 468 350 468 188 q 447 548 468 476 q 385 647 425 619 q 286 675 346 675 q 140 595 192 675 q 89 335 89 515 q 110 142 89 211 q 170 47 131 74 q 272 19 210 19 m 719 675 q 617 658 658 675 q 541 571 575 642 q 503 350 507 500 l 564 349 q 853 371 747 349 q 858 482 858 426 q 826 628 856 581 q 719 675 796 675 z "},"p":{"ha":582,"x_min":97,"x_max":526,"o":"m 113 -274 q 97 -261 97 -274 l 97 651 q 190 694 143 681 q 294 708 238 708 q 469 640 411 708 q 526 408 526 572 q 447 74 526 161 q 274 -14 368 -14 q 185 6 225 -14 q 131 49 146 25 l 131 -271 q 113 -274 117 -274 m 271 19 q 424 96 354 21 q 493 390 493 171 q 471 563 493 500 q 405 650 449 625 q 293 675 361 675 q 131 631 200 675 l 131 104 q 192 41 154 63 q 271 19 231 19 z "},"þ":{"ha":582,"x_min":97,"x_max":526,"o":"m 294 707 q 469 638 411 707 q 526 399 526 569 q 443 73 526 158 q 263 -12 360 -12 q 182 3 215 -12 q 131 40 149 18 l 131 -276 q 113 -278 124 -278 q 101 -276 104 -278 q 97 -268 97 -275 l 97 1000 q 103 1018 97 1015 q 131 1021 110 1021 l 131 672 q 294 707 200 707 m 260 21 q 360 51 308 22 q 453 161 413 79 q 493 390 493 243 q 443 611 493 549 q 297 674 393 674 q 131 629 200 674 l 131 88 q 260 21 175 21 z "},"q":{"ha":597,"x_min":68,"x_max":499,"o":"m 465 -275 l 465 74 q 388 9 435 32 q 282 -14 342 -14 q 68 311 68 -14 q 141 607 68 506 q 344 708 214 708 q 499 664 438 708 l 499 -261 q 496 -273 499 -271 q 476 -275 493 -275 l 465 -275 m 296 19 q 393 47 346 19 q 465 129 440 74 l 465 644 q 415 666 449 657 q 342 675 381 675 q 163 583 225 675 q 101 306 101 490 q 158 75 101 131 q 296 19 215 19 z "},"r":{"ha":401,"x_min":93,"x_max":379,"o":"m 93 647 q 275 708 181 708 q 350 697 321 708 q 379 671 379 686 q 376 658 379 664 q 371 649 374 651 q 278 675 326 675 q 126 626 189 675 l 126 14 q 122 2 126 4 q 93 0 117 0 l 93 647 z "},"ŕ":{"ha":401,"x_min":93,"x_max":379,"o":"m 93 647 q 275 708 181 708 q 350 697 321 708 q 379 671 379 686 q 376 658 379 664 q 371 649 374 651 q 278 675 326 675 q 126 626 189 675 l 126 14 q 122 2 126 4 q 93 0 117 0 l 93 647 m 131 826 q 247 928 188 881 q 324 989 306 976 q 335 976 331 989 q 342 957 340 963 q 269 897 326 943 q 144 804 211 850 l 131 826 z "},"ř":{"ha":401,"x_min":76,"x_max":396,"o":"m 93 647 q 275 708 181 708 q 350 697 321 708 q 379 671 379 686 q 376 658 379 664 q 371 649 374 651 q 278 675 326 675 q 126 626 189 675 l 126 14 q 122 2 126 4 q 93 0 117 0 l 93 647 m 247 814 q 168 882 236 814 q 76 975 100 950 q 85 986 78 978 q 100 994 92 994 q 166 933 107 994 q 246 849 225 871 q 328 946 290 903 q 379 1003 367 989 q 396 981 396 990 q 327 892 396 971 q 247 814 258 814 z "},"ŗ":{"ha":401,"x_min":65,"x_max":379,"o":"m 93 647 q 275 708 181 708 q 350 697 321 708 q 379 671 379 686 q 376 658 379 664 q 371 649 374 651 q 278 675 326 675 q 126 626 189 675 l 126 14 q 122 2 126 4 q 93 0 117 0 l 93 647 m 83 -326 q 72 -321 78 -326 q 65 -310 67 -315 q 108 -165 110 -233 q 94 -149 100 -160 q 88 -125 88 -137 q 97 -97 88 -107 q 124 -86 107 -86 q 150 -96 142 -86 q 158 -133 158 -106 q 144 -213 158 -168 q 111 -292 129 -258 q 83 -326 93 -326 z "},"s":{"ha":549,"x_min":69,"x_max":479,"o":"m 251 -14 q 156 -6 197 -14 q 92 13 114 1 q 69 35 69 25 q 81 60 69 51 q 152 29 114 39 q 250 19 190 19 q 390 53 339 19 q 442 154 442 86 q 417 244 442 206 q 339 319 392 283 l 179 413 q 95 481 115 450 q 75 558 75 513 q 138 669 75 629 q 299 708 201 708 q 394 697 353 708 q 457 672 435 686 q 479 649 479 657 q 467 624 479 639 q 388 663 426 650 q 299 675 350 675 q 163 644 217 675 q 108 560 108 614 q 126 501 108 526 q 192 446 143 475 l 368 339 q 449 260 422 301 q 475 167 475 218 q 417 32 475 78 q 251 -14 360 -14 z "},"ś":{"ha":549,"x_min":69,"x_max":479,"o":"m 251 -14 q 156 -6 197 -14 q 92 13 114 1 q 69 35 69 25 q 81 60 69 51 q 152 29 114 39 q 250 19 190 19 q 390 53 339 19 q 442 154 442 86 q 417 244 442 206 q 339 319 392 283 l 179 413 q 95 481 115 450 q 75 558 75 513 q 138 669 75 629 q 299 708 201 708 q 394 697 353 708 q 457 672 435 686 q 479 649 479 657 q 467 624 479 639 q 388 663 426 650 q 299 675 350 675 q 163 644 217 675 q 108 560 108 614 q 126 501 108 526 q 192 446 143 475 l 368 339 q 449 260 422 301 q 475 167 475 218 q 417 32 475 78 q 251 -14 360 -14 m 169 826 q 285 928 226 881 q 363 989 344 976 q 374 976 369 989 q 381 957 379 963 q 308 897 365 943 q 183 804 250 850 l 169 826 z "},"š":{"ha":549,"x_min":69,"x_max":479,"o":"m 251 -14 q 156 -6 197 -14 q 92 13 114 1 q 69 35 69 25 q 81 60 69 51 q 152 29 114 39 q 250 19 190 19 q 390 53 339 19 q 442 154 442 86 q 417 244 442 206 q 339 319 392 283 l 179 413 q 95 481 115 450 q 75 558 75 513 q 138 669 75 629 q 299 708 201 708 q 394 697 353 708 q 457 672 435 686 q 479 649 479 657 q 467 624 479 639 q 388 663 426 650 q 299 675 350 675 q 163 644 217 675 q 108 560 108 614 q 126 501 108 526 q 192 446 143 475 l 368 339 q 449 260 422 301 q 475 167 475 218 q 417 32 475 78 q 251 -14 360 -14 m 286 814 q 207 882 275 814 q 115 975 139 950 q 124 986 117 978 q 139 994 131 994 q 205 933 146 994 q 285 849 264 871 q 367 946 329 903 q 418 1003 406 989 q 435 981 435 990 q 366 892 435 971 q 286 814 297 814 z "},"ş":{"ha":549,"x_min":69,"x_max":479,"o":"m 368 339 q 449 260 422 301 q 475 167 475 218 q 427 40 475 86 q 289 -12 379 -6 l 274 -85 q 282 -83 275 -85 q 300 -82 289 -82 q 346 -99 326 -82 q 365 -153 365 -117 q 340 -226 365 -206 q 279 -246 314 -246 q 237 -242 257 -246 q 211 -237 217 -239 q 215 -217 211 -231 q 228 -203 218 -203 q 249 -208 232 -203 q 279 -214 267 -214 q 332 -161 332 -214 q 318 -121 332 -131 q 281 -111 304 -111 q 251 -114 267 -111 q 232 -118 236 -117 l 254 -14 l 251 -14 q 156 -6 197 -14 q 92 13 114 1 q 69 35 69 25 q 81 60 69 51 q 152 29 114 39 q 250 19 190 19 q 390 53 339 19 q 442 154 442 86 q 417 244 442 206 q 339 319 392 283 l 179 413 q 95 481 115 450 q 75 558 75 513 q 138 669 75 629 q 299 708 201 708 q 394 697 353 708 q 457 672 435 686 q 479 649 479 657 q 467 624 479 639 q 388 663 426 650 q 299 675 350 675 q 163 644 217 675 q 108 560 108 614 q 126 501 108 526 q 192 446 143 475 l 368 339 z "},"ș":{"ha":549,"x_min":69,"x_max":479,"o":"m 251 -14 q 156 -6 197 -14 q 92 13 114 1 q 69 35 69 25 q 81 60 69 51 q 152 29 114 39 q 250 19 190 19 q 390 53 339 19 q 442 154 442 86 q 417 244 442 206 q 339 319 392 283 l 179 413 q 95 481 115 450 q 75 558 75 513 q 138 669 75 629 q 299 708 201 708 q 394 697 353 708 q 457 672 435 686 q 479 649 479 657 q 467 624 479 639 q 388 663 426 650 q 299 675 350 675 q 163 644 217 675 q 108 560 108 614 q 126 501 108 526 q 192 446 143 475 l 368 339 q 449 260 422 301 q 475 167 475 218 q 417 32 475 78 q 251 -14 360 -14 m 246 -326 q 235 -321 240 -326 q 228 -310 229 -315 q 271 -165 272 -233 q 256 -149 263 -160 q 250 -125 250 -137 q 260 -97 250 -107 q 286 -86 269 -86 q 313 -96 304 -86 q 321 -133 321 -106 q 306 -213 321 -168 q 274 -292 292 -258 q 246 -326 256 -326 z "},"ß":{"ha":663,"x_min":86,"x_max":635,"o":"m 108 -11 q 94 -7 100 -11 q 86 -1 88 -3 q 91 13 88 1 q 94 42 94 25 l 94 763 q 149 928 94 878 q 306 978 204 978 q 456 946 397 978 q 540 869 514 914 q 567 783 567 824 q 537 708 567 738 q 451 644 507 678 q 379 592 403 614 q 356 539 356 571 q 381 482 356 507 q 463 421 407 457 q 552 356 518 385 q 610 285 586 328 q 635 185 635 242 q 578 38 635 88 q 424 -12 521 -12 q 341 -3 378 -12 q 283 21 304 7 q 263 43 263 35 q 267 59 263 51 q 275 69 272 67 q 338 31 304 43 q 425 19 372 19 q 553 60 503 19 q 603 182 603 100 q 562 295 603 250 q 444 392 521 340 q 352 466 382 435 q 322 538 322 497 q 350 609 322 581 q 433 671 378 638 q 508 723 482 699 q 533 782 533 747 q 510 857 533 819 q 436 920 486 894 q 311 946 386 946 q 173 899 218 946 q 128 740 128 851 l 128 11 q 108 -11 128 -11 z "},"ſ":{"ha":240,"x_min":94,"x_max":479,"o":"m 117 -11 q 102 -7 108 -11 q 94 -1 96 -3 q 99 17 96 1 q 103 61 103 32 l 103 815 q 158 978 103 931 q 319 1025 214 1025 q 400 1016 364 1025 q 458 995 436 1007 q 479 976 479 983 q 475 960 479 969 q 469 947 471 950 q 410 978 450 964 q 319 992 371 992 q 180 951 224 992 q 136 803 136 911 l 136 6 q 132 -8 136 -4 q 117 -11 128 -11 z "},"t":{"ha":424,"x_min":50,"x_max":394,"o":"m 276 -14 q 200 15 224 -14 q 171 87 176 43 q 165 213 165 131 l 165 661 l 50 661 q 52 689 50 683 q 61 694 54 694 l 165 694 l 165 924 q 170 942 165 939 q 199 944 175 944 l 199 694 l 394 694 q 393 667 394 672 q 386 661 392 661 l 199 661 l 199 208 q 203 103 199 142 q 224 42 207 65 q 279 19 242 19 q 329 25 310 19 q 378 44 349 31 q 382 24 382 35 q 351 -3 382 8 q 276 -14 319 -14 z "},"ť":{"ha":424,"x_min":50,"x_max":413,"o":"m 276 -14 q 200 15 224 -14 q 171 87 176 43 q 165 213 165 131 l 165 661 l 50 661 q 52 689 50 683 q 61 694 54 694 l 165 694 l 165 924 q 170 942 165 939 q 199 944 175 944 l 199 694 l 394 694 q 393 667 394 672 q 386 661 392 661 l 199 661 l 199 208 q 203 103 199 142 q 224 42 207 65 q 279 19 242 19 q 329 25 310 19 q 378 44 349 31 q 382 24 382 35 q 351 -3 382 8 q 276 -14 319 -14 m 351 744 q 340 750 346 744 q 333 761 335 756 q 356 851 349 796 q 363 947 364 907 q 348 964 354 953 q 342 988 342 975 q 351 1016 342 1006 q 378 1026 361 1026 q 404 1017 396 1026 q 413 979 413 1007 q 401 887 413 943 q 376 788 390 831 q 351 744 361 744 z "},"ţ":{"ha":424,"x_min":50,"x_max":394,"o":"m 394 694 q 393 667 394 672 q 386 661 392 661 l 199 661 l 199 208 q 203 103 199 142 q 224 42 207 65 q 279 19 242 19 q 329 25 310 19 q 378 44 349 31 q 382 24 382 35 q 354 -1 382 10 q 286 -14 326 -12 l 271 -85 q 279 -83 272 -85 q 297 -82 286 -82 q 343 -99 324 -82 q 363 -153 363 -117 q 337 -226 363 -206 q 276 -246 311 -246 q 234 -242 254 -246 q 208 -237 214 -239 q 212 -217 208 -231 q 225 -203 215 -203 q 247 -208 229 -203 q 276 -214 264 -214 q 329 -161 329 -214 q 315 -121 329 -131 q 278 -111 301 -111 q 249 -114 264 -111 q 229 -118 233 -117 l 251 -12 q 192 24 211 -6 q 169 94 174 53 q 165 213 165 136 l 165 661 l 50 661 q 52 689 50 683 q 61 694 54 694 l 165 694 l 165 924 q 170 942 165 939 q 199 944 175 944 l 199 694 l 394 694 z "},"ț":{"ha":424,"x_min":50,"x_max":394,"o":"m 276 -14 q 200 15 224 -14 q 171 87 176 43 q 165 213 165 131 l 165 661 l 50 661 q 52 689 50 683 q 61 694 54 694 l 165 694 l 165 924 q 170 942 165 939 q 199 944 175 944 l 199 694 l 394 694 q 393 667 394 672 q 386 661 392 661 l 199 661 l 199 208 q 203 103 199 142 q 224 42 207 65 q 279 19 242 19 q 329 25 310 19 q 378 44 349 31 q 382 24 382 35 q 351 -3 382 8 q 276 -14 319 -14 m 243 -326 q 232 -321 238 -326 q 225 -310 226 -315 q 268 -165 269 -233 q 253 -149 260 -160 q 247 -125 247 -137 q 257 -97 247 -107 q 283 -86 267 -86 q 310 -96 301 -86 q 318 -133 318 -106 q 303 -213 318 -168 q 271 -292 289 -258 q 243 -326 253 -326 z "},"u":{"ha":618,"x_min":101,"x_max":517,"o":"m 304 -14 q 180 12 224 -14 q 119 95 136 38 q 101 257 101 153 l 101 681 q 106 693 101 692 q 135 694 110 694 l 135 247 q 150 108 135 156 q 203 40 165 60 q 315 19 242 19 q 399 28 351 19 q 483 58 446 38 l 483 681 q 489 692 483 690 q 517 694 494 694 l 517 32 q 412 -3 468 8 q 304 -14 356 -14 z "},"ú":{"ha":618,"x_min":101,"x_max":517,"o":"m 304 -14 q 180 12 224 -14 q 119 95 136 38 q 101 257 101 153 l 101 681 q 106 693 101 692 q 135 694 110 694 l 135 247 q 150 108 135 156 q 203 40 165 60 q 315 19 242 19 q 399 28 351 19 q 483 58 446 38 l 483 681 q 489 692 483 690 q 517 694 494 694 l 517 32 q 412 -3 468 8 q 304 -14 356 -14 m 204 826 q 320 928 261 881 q 397 989 379 976 q 409 976 404 989 q 415 957 414 963 q 342 897 400 943 q 218 804 285 850 l 204 826 z "},"û":{"ha":618,"x_min":101,"x_max":517,"o":"m 304 -14 q 180 12 224 -14 q 119 95 136 38 q 101 257 101 153 l 101 681 q 106 693 101 692 q 135 694 110 694 l 135 247 q 150 108 135 156 q 203 40 165 60 q 315 19 242 19 q 399 28 351 19 q 483 58 446 38 l 483 681 q 489 692 483 690 q 517 694 494 694 l 517 32 q 412 -3 468 8 q 304 -14 356 -14 m 314 938 q 239 862 294 917 q 178 807 183 807 q 158 815 165 807 q 151 825 151 822 l 304 968 q 315 971 307 971 q 335 961 325 971 l 468 828 q 456 815 465 824 q 438 806 447 806 l 314 938 z "},"ü":{"ha":618,"x_min":101,"x_max":517,"o":"m 304 -14 q 180 12 224 -14 q 119 95 136 38 q 101 257 101 153 l 101 681 q 106 693 101 692 q 135 694 110 694 l 135 247 q 150 108 135 156 q 203 40 165 60 q 315 19 242 19 q 399 28 351 19 q 483 58 446 38 l 483 681 q 489 692 483 690 q 517 694 494 694 l 517 32 q 412 -3 468 8 q 304 -14 356 -14 m 239 853 q 215 886 215 854 q 242 931 215 931 q 267 894 267 931 q 260 863 267 874 q 239 853 254 853 m 378 853 q 354 886 354 854 q 381 931 354 931 q 406 894 406 931 q 399 863 406 874 q 378 853 393 853 z "},"ụ":{"ha":618,"x_min":101,"x_max":517,"o":"m 304 -14 q 180 12 224 -14 q 119 95 136 38 q 101 257 101 153 l 101 681 q 106 693 101 692 q 135 694 110 694 l 135 247 q 150 108 135 156 q 203 40 165 60 q 315 19 242 19 q 399 28 351 19 q 483 58 446 38 l 483 681 q 489 692 483 690 q 517 694 494 694 l 517 32 q 412 -3 468 8 q 304 -14 356 -14 m 308 -187 q 285 -154 285 -186 q 311 -110 285 -110 q 336 -146 336 -110 q 330 -178 336 -168 q 308 -187 324 -187 z "},"ù":{"ha":618,"x_min":101,"x_max":517,"o":"m 304 -14 q 180 12 224 -14 q 119 95 136 38 q 101 257 101 153 l 101 681 q 106 693 101 692 q 135 694 110 694 l 135 247 q 150 108 135 156 q 203 40 165 60 q 315 19 242 19 q 399 28 351 19 q 483 58 446 38 l 483 681 q 489 692 483 690 q 517 694 494 694 l 517 32 q 412 -3 468 8 q 304 -14 356 -14 m 401 804 q 277 897 335 850 q 204 957 219 943 q 210 976 206 963 q 222 989 215 989 q 299 928 240 976 q 415 826 358 881 l 401 804 z "},"ủ":{"ha":618,"x_min":101,"x_max":517,"o":"m 304 -14 q 180 12 224 -14 q 119 95 136 38 q 101 257 101 153 l 101 681 q 106 693 101 692 q 135 694 110 694 l 135 247 q 150 108 135 156 q 203 40 165 60 q 315 19 242 19 q 399 28 351 19 q 483 58 446 38 l 483 681 q 489 692 483 690 q 517 694 494 694 l 517 32 q 412 -3 468 8 q 304 -14 356 -14 m 288 771 q 287 776 288 772 q 286 785 286 779 q 290 806 286 799 q 315 831 297 819 q 338 850 331 840 q 344 881 344 860 q 289 939 344 939 q 235 922 257 939 l 235 956 q 251 968 235 961 q 288 975 267 975 q 383 881 383 975 q 370 836 383 851 q 342 812 357 821 q 324 800 328 803 q 316 785 318 794 q 314 772 314 775 q 299 769 311 769 l 288 771 z "},"ư":{"ha":618,"x_min":101,"x_max":631,"o":"m 628 781 q 604 699 631 733 q 517 660 578 664 l 517 32 q 412 -3 468 8 q 304 -14 356 -14 q 180 12 224 -14 q 119 95 136 38 q 101 257 101 153 l 101 681 q 106 693 101 692 q 135 694 110 694 l 135 247 q 150 108 135 156 q 203 40 165 60 q 315 19 242 19 q 399 28 351 19 q 483 58 446 38 l 483 681 q 489 692 483 690 q 517 694 494 694 l 517 693 q 577 720 561 697 q 593 786 593 743 q 597 795 593 792 q 607 799 601 799 q 622 794 615 799 q 628 781 628 789 z "},"ứ":{"ha":618,"x_min":101,"x_max":628,"o":"m 628 781 q 604 699 631 733 q 517 660 578 664 l 517 32 q 412 -3 468 8 q 304 -14 356 -14 q 180 12 224 -14 q 119 95 136 38 q 101 257 101 153 l 101 681 q 106 693 101 692 q 135 694 110 694 l 135 247 q 150 108 135 156 q 203 40 165 60 q 315 19 242 19 q 399 28 351 19 q 483 58 446 38 l 483 681 q 489 692 483 690 q 517 694 494 694 l 517 693 q 577 720 561 697 q 593 786 593 743 q 597 795 593 792 q 607 799 601 799 q 622 794 615 799 q 628 781 628 789 m 204 826 q 320 928 261 881 q 397 989 379 976 q 409 976 404 989 q 415 957 414 963 q 342 897 400 943 q 218 804 285 850 l 204 826 z "},"ự":{"ha":618,"x_min":101,"x_max":628,"o":"m 628 781 q 604 699 631 733 q 517 660 578 664 l 517 32 q 412 -3 468 8 q 304 -14 356 -14 q 180 12 224 -14 q 119 95 136 38 q 101 257 101 153 l 101 681 q 106 693 101 692 q 135 694 110 694 l 135 247 q 150 108 135 156 q 203 40 165 60 q 315 19 242 19 q 399 28 351 19 q 483 58 446 38 l 483 681 q 489 692 483 690 q 517 694 494 694 l 517 693 q 577 720 561 697 q 593 786 593 743 q 597 795 593 792 q 607 799 601 799 q 622 794 615 799 q 628 781 628 789 m 308 -187 q 285 -154 285 -186 q 311 -110 285 -110 q 336 -146 336 -110 q 330 -178 336 -168 q 308 -187 324 -187 z "},"ừ":{"ha":618,"x_min":101,"x_max":628,"o":"m 628 781 q 604 699 631 733 q 517 660 578 664 l 517 32 q 412 -3 468 8 q 304 -14 356 -14 q 180 12 224 -14 q 119 95 136 38 q 101 257 101 153 l 101 681 q 106 693 101 692 q 135 694 110 694 l 135 247 q 150 108 135 156 q 203 40 165 60 q 315 19 242 19 q 399 28 351 19 q 483 58 446 38 l 483 681 q 489 692 483 690 q 517 694 494 694 l 517 693 q 577 720 561 697 q 593 786 593 743 q 597 795 593 792 q 607 799 601 799 q 622 794 615 799 q 628 781 628 789 m 360 804 q 235 897 293 850 q 163 957 178 943 q 169 976 164 963 q 181 989 174 989 q 258 928 199 976 q 374 826 317 881 l 360 804 z "},"ử":{"ha":618,"x_min":101,"x_max":628,"o":"m 628 781 q 604 699 631 733 q 517 660 578 664 l 517 32 q 412 -3 468 8 q 304 -14 356 -14 q 180 12 224 -14 q 119 95 136 38 q 101 257 101 153 l 101 681 q 106 693 101 692 q 135 694 110 694 l 135 247 q 150 108 135 156 q 203 40 165 60 q 315 19 242 19 q 399 28 351 19 q 483 58 446 38 l 483 681 q 489 692 483 690 q 517 694 494 694 l 517 693 q 577 720 561 697 q 593 786 593 743 q 597 795 593 792 q 607 799 601 799 q 622 794 615 799 q 628 781 628 789 m 288 771 q 287 776 288 772 q 286 785 286 779 q 290 806 286 799 q 315 831 297 819 q 338 850 331 840 q 344 881 344 860 q 289 939 344 939 q 235 922 257 939 l 235 956 q 251 968 235 961 q 288 975 267 975 q 383 881 383 975 q 370 836 383 851 q 342 812 357 821 q 324 800 328 803 q 316 785 318 794 q 314 772 314 775 q 299 769 311 769 l 288 771 z "},"ữ":{"ha":618,"x_min":101,"x_max":628,"o":"m 628 781 q 604 699 631 733 q 517 660 578 664 l 517 32 q 412 -3 468 8 q 304 -14 356 -14 q 180 12 224 -14 q 119 95 136 38 q 101 257 101 153 l 101 681 q 106 693 101 692 q 135 694 110 694 l 135 247 q 150 108 135 156 q 203 40 165 60 q 315 19 242 19 q 399 28 351 19 q 483 58 446 38 l 483 681 q 489 692 483 690 q 517 694 494 694 l 517 693 q 577 720 561 697 q 593 786 593 743 q 597 795 593 792 q 607 799 601 799 q 622 794 615 799 q 628 781 628 789 m 376 825 q 324 838 344 825 q 283 875 304 851 q 258 899 268 892 q 235 907 249 907 q 191 892 208 907 q 159 855 174 876 q 140 833 144 833 q 127 842 135 833 q 118 853 119 850 q 176 919 149 903 q 243 936 203 936 q 280 926 265 936 q 311 897 294 917 q 341 869 326 879 q 376 860 356 860 q 433 876 413 860 q 465 913 453 893 q 481 932 476 932 q 494 923 489 932 q 501 911 500 914 q 455 849 482 872 q 376 825 428 825 z "},"ű":{"ha":618,"x_min":101,"x_max":517,"o":"m 304 -14 q 180 12 224 -14 q 119 95 136 38 q 101 257 101 153 l 101 681 q 106 693 101 692 q 135 694 110 694 l 135 247 q 150 108 135 156 q 203 40 165 60 q 315 19 242 19 q 399 28 351 19 q 483 58 446 38 l 483 681 q 489 692 483 690 q 517 694 494 694 l 517 32 q 412 -3 468 8 q 304 -14 356 -14 m 193 819 q 275 931 232 878 q 331 1000 318 985 l 332 1000 q 346 989 339 1000 q 354 974 353 978 q 302 907 343 958 q 211 801 261 856 l 193 819 m 332 819 q 414 931 371 878 q 469 1000 457 985 l 471 1000 q 485 989 478 1000 q 493 974 492 978 q 441 907 482 958 q 350 801 400 856 l 332 819 z "},"ū":{"ha":618,"x_min":101,"x_max":517,"o":"m 304 -14 q 180 12 224 -14 q 119 95 136 38 q 101 257 101 153 l 101 681 q 106 693 101 692 q 135 694 110 694 l 135 247 q 150 108 135 156 q 203 40 165 60 q 315 19 242 19 q 399 28 351 19 q 483 58 446 38 l 483 681 q 489 692 483 690 q 517 694 494 694 l 517 32 q 412 -3 468 8 q 304 -14 356 -14 m 143 865 q 142 883 142 872 q 157 900 144 900 l 476 900 q 478 882 478 893 q 463 865 476 865 l 143 865 z "},"ų":{"ha":618,"x_min":101,"x_max":518,"o":"m 463 -271 q 389 -244 414 -271 q 364 -167 364 -217 q 383 -83 364 -122 q 433 1 401 -43 q 303 -14 369 -14 q 179 12 222 -14 q 119 95 136 38 q 101 257 101 153 l 101 681 q 106 693 101 692 q 135 694 110 694 l 135 247 q 149 111 135 160 q 201 41 164 63 q 306 19 238 19 q 483 58 413 19 l 483 681 q 489 692 483 690 q 517 694 494 694 l 517 32 q 433 -51 468 4 q 397 -165 397 -107 q 463 -237 397 -237 q 510 -225 485 -237 q 515 -235 514 -229 l 518 -246 q 502 -265 518 -258 q 463 -271 486 -271 z "},"ů":{"ha":618,"x_min":101,"x_max":517,"o":"m 304 -14 q 180 12 224 -14 q 119 95 136 38 q 101 257 101 153 l 101 681 q 106 693 101 692 q 135 694 110 694 l 135 247 q 150 108 135 156 q 203 40 165 60 q 315 19 242 19 q 399 28 351 19 q 483 58 446 38 l 483 681 q 489 692 483 690 q 517 694 494 694 l 517 32 q 412 -3 468 8 q 304 -14 356 -14 m 306 788 q 196 903 196 788 q 228 990 196 961 q 315 1019 260 1019 q 397 992 371 1019 q 424 903 424 965 q 392 817 424 847 q 306 788 361 788 m 306 821 q 390 904 390 821 q 372 967 390 949 q 317 986 354 986 q 251 967 272 986 q 229 899 229 947 q 249 841 229 861 q 306 821 268 821 z "},"ũ":{"ha":618,"x_min":101,"x_max":517,"o":"m 304 -14 q 180 12 224 -14 q 119 95 136 38 q 101 257 101 153 l 101 681 q 106 693 101 692 q 135 694 110 694 l 135 247 q 150 108 135 156 q 203 40 165 60 q 315 19 242 19 q 399 28 351 19 q 483 58 446 38 l 483 681 q 489 692 483 690 q 517 694 494 694 l 517 32 q 412 -3 468 8 q 304 -14 356 -14 m 376 825 q 324 838 344 825 q 283 875 304 851 q 258 899 268 892 q 235 907 249 907 q 191 892 208 907 q 159 855 174 876 q 140 833 144 833 q 127 842 135 833 q 118 853 119 850 q 176 919 149 903 q 243 936 203 936 q 280 926 265 936 q 311 897 294 917 q 341 869 326 879 q 376 860 356 860 q 433 876 413 860 q 465 913 453 893 q 481 932 476 932 q 494 923 489 932 q 501 911 500 914 q 455 849 482 872 q 376 825 428 825 z "},"v":{"ha":514,"x_min":46,"x_max":468,"o":"m 232 56 l 47 681 l 46 686 q 54 693 46 692 q 76 694 63 694 l 156 431 q 222 194 192 311 q 261 44 253 78 l 263 44 q 299 195 269 78 q 363 433 328 313 l 433 681 q 441 692 436 690 q 468 694 446 694 l 269 -12 l 251 -12 l 232 56 z "},"w":{"ha":788,"x_min":44,"x_max":742,"o":"m 703 681 q 710 692 704 690 q 742 694 715 694 l 572 -12 l 554 -12 q 547 14 553 -7 q 532 67 540 35 l 506 164 q 392 590 421 476 q 288 163 332 338 l 243 -12 l 224 -12 q 217 10 222 -8 q 206 56 213 28 q 122 388 179 168 q 46 681 65 608 l 44 688 q 53 694 44 693 q 78 694 61 694 l 149 410 q 204 179 182 274 q 233 57 226 85 l 235 57 l 271 213 q 318 413 290 290 l 372 653 q 386 667 375 667 l 407 667 l 474 407 q 532 179 508 274 q 563 57 556 85 l 564 57 q 640 410 578 138 l 703 681 z "},"ẃ":{"ha":788,"x_min":44,"x_max":742,"o":"m 703 681 q 710 692 704 690 q 742 694 715 694 l 572 -12 l 554 -12 q 547 14 553 -7 q 532 67 540 35 l 506 164 q 392 590 421 476 q 288 163 332 338 l 243 -12 l 224 -12 q 217 10 222 -8 q 206 56 213 28 q 122 388 179 168 q 46 681 65 608 l 44 688 q 53 694 44 693 q 78 694 61 694 l 149 410 q 204 179 182 274 q 233 57 226 85 l 235 57 l 271 213 q 318 413 290 290 l 372 653 q 386 667 375 667 l 407 667 l 474 407 q 532 179 508 274 q 563 57 556 85 l 564 57 q 640 410 578 138 l 703 681 m 289 826 q 405 928 346 881 q 482 989 464 976 q 494 976 489 989 q 500 957 499 963 q 427 897 485 943 q 303 804 369 850 l 289 826 z "},"ŵ":{"ha":788,"x_min":44,"x_max":742,"o":"m 703 681 q 710 692 704 690 q 742 694 715 694 l 572 -12 l 554 -12 q 547 14 553 -7 q 532 67 540 35 l 506 164 q 392 590 421 476 q 288 163 332 338 l 243 -12 l 224 -12 q 217 10 222 -8 q 206 56 213 28 q 122 388 179 168 q 46 681 65 608 l 44 688 q 53 694 44 693 q 78 694 61 694 l 149 410 q 204 179 182 274 q 233 57 226 85 l 235 57 l 271 213 q 318 413 290 290 l 372 653 q 386 667 375 667 l 407 667 l 474 407 q 532 179 508 274 q 563 57 556 85 l 564 57 q 640 410 578 138 l 703 681 m 399 938 q 324 862 379 917 q 263 807 268 807 q 243 815 250 807 q 236 825 236 822 l 389 968 q 400 971 392 971 q 419 961 410 971 l 553 828 q 541 815 550 824 q 522 806 532 806 l 399 938 z "},"ẅ":{"ha":788,"x_min":44,"x_max":742,"o":"m 703 681 q 710 692 704 690 q 742 694 715 694 l 572 -12 l 554 -12 q 547 14 553 -7 q 532 67 540 35 l 506 164 q 392 590 421 476 q 288 163 332 338 l 243 -12 l 224 -12 q 217 10 222 -8 q 206 56 213 28 q 122 388 179 168 q 46 681 65 608 l 44 688 q 53 694 44 693 q 78 694 61 694 l 149 410 q 204 179 182 274 q 233 57 226 85 l 235 57 l 271 213 q 318 413 290 290 l 372 653 q 386 667 375 667 l 407 667 l 474 407 q 532 179 508 274 q 563 57 556 85 l 564 57 q 640 410 578 138 l 703 681 m 324 853 q 300 886 300 854 q 326 931 300 931 q 351 894 351 931 q 345 863 351 874 q 324 853 339 853 m 463 853 q 439 886 439 854 q 465 931 439 931 q 490 894 490 931 q 484 863 490 874 q 463 853 478 853 z "},"ẁ":{"ha":788,"x_min":44,"x_max":742,"o":"m 703 681 q 710 692 704 690 q 742 694 715 694 l 572 -12 l 554 -12 q 547 14 553 -7 q 532 67 540 35 l 506 164 q 392 590 421 476 q 288 163 332 338 l 243 -12 l 224 -12 q 217 10 222 -8 q 206 56 213 28 q 122 388 179 168 q 46 681 65 608 l 44 688 q 53 694 44 693 q 78 694 61 694 l 149 410 q 204 179 182 274 q 233 57 226 85 l 235 57 l 271 213 q 318 413 290 290 l 372 653 q 386 667 375 667 l 407 667 l 474 407 q 532 179 508 274 q 563 57 556 85 l 564 57 q 640 410 578 138 l 703 681 m 486 804 q 362 897 419 850 q 289 957 304 943 q 295 976 290 963 q 307 989 300 989 q 384 928 325 976 q 500 826 443 881 l 486 804 z "},"x":{"ha":650,"x_min":42,"x_max":608,"o":"m 608 4 q 598 1 608 1 q 569 0 588 0 l 474 136 l 326 344 l 176 133 l 89 8 q 78 1 85 3 q 42 0 71 0 l 304 369 l 81 688 l 79 690 q 115 694 79 694 l 207 565 l 311 419 l 328 394 l 450 568 l 535 688 q 547 694 539 693 q 579 694 556 694 l 349 371 l 604 13 l 608 4 z "},"y":{"ha":536,"x_min":11,"x_max":483,"o":"m 99 -268 q 35 -261 60 -268 q 11 -242 11 -254 q 15 -228 11 -236 q 22 -218 18 -221 q 62 -231 39 -226 q 100 -235 85 -235 q 258 -22 204 -235 l 63 681 q 61 689 61 683 q 69 694 61 693 q 93 694 78 694 l 232 196 q 260 83 247 139 q 275 13 272 28 q 290 83 278 28 q 317 199 301 139 l 444 681 q 452 693 447 692 q 483 694 457 694 l 285 -49 q 207 -217 253 -167 q 99 -268 161 -268 z "},"ý":{"ha":536,"x_min":11,"x_max":483,"o":"m 99 -268 q 35 -261 60 -268 q 11 -242 11 -254 q 15 -228 11 -236 q 22 -218 18 -221 q 62 -231 39 -226 q 100 -235 85 -235 q 258 -22 204 -235 l 63 681 q 61 689 61 683 q 69 694 61 693 q 93 694 78 694 l 232 196 q 260 83 247 139 q 275 13 272 28 q 290 83 278 28 q 317 199 301 139 l 444 681 q 452 693 447 692 q 483 694 457 694 l 285 -49 q 207 -217 253 -167 q 99 -268 161 -268 m 163 826 q 278 928 219 881 q 356 989 338 976 q 367 976 363 989 q 374 957 372 963 q 301 897 358 943 q 176 804 243 850 l 163 826 z "},"ŷ":{"ha":536,"x_min":11,"x_max":483,"o":"m 99 -268 q 35 -261 60 -268 q 11 -242 11 -254 q 15 -228 11 -236 q 22 -218 18 -221 q 62 -231 39 -226 q 100 -235 85 -235 q 258 -22 204 -235 l 63 681 q 61 689 61 683 q 69 694 61 693 q 93 694 78 694 l 232 196 q 260 83 247 139 q 275 13 272 28 q 290 83 278 28 q 317 199 301 139 l 444 681 q 452 693 447 692 q 483 694 457 694 l 285 -49 q 207 -217 253 -167 q 99 -268 161 -268 m 272 938 q 197 862 253 917 q 136 807 142 807 q 117 815 124 807 q 110 825 110 822 l 263 968 q 274 971 265 971 q 293 961 283 971 l 426 828 q 415 815 424 824 q 396 806 406 806 l 272 938 z "},"ÿ":{"ha":536,"x_min":11,"x_max":483,"o":"m 99 -268 q 35 -261 60 -268 q 11 -242 11 -254 q 15 -228 11 -236 q 22 -218 18 -221 q 62 -231 39 -226 q 100 -235 85 -235 q 258 -22 204 -235 l 63 681 q 61 689 61 683 q 69 694 61 693 q 93 694 78 694 l 232 196 q 260 83 247 139 q 275 13 272 28 q 290 83 278 28 q 317 199 301 139 l 444 681 q 452 693 447 692 q 483 694 457 694 l 285 -49 q 207 -217 253 -167 q 99 -268 161 -268 m 197 853 q 174 886 174 854 q 200 931 174 931 q 225 894 225 931 q 219 863 225 874 q 197 853 213 853 m 336 853 q 313 886 313 854 q 339 931 313 931 q 364 894 364 931 q 358 863 364 874 q 336 853 351 853 z "},"ỵ":{"ha":536,"x_min":11,"x_max":483,"o":"m 99 -268 q 35 -261 60 -268 q 11 -242 11 -254 q 15 -228 11 -236 q 22 -218 18 -221 q 62 -231 39 -226 q 100 -235 85 -235 q 258 -22 204 -235 l 63 681 q 61 689 61 683 q 69 694 61 693 q 93 694 78 694 l 232 196 q 260 83 247 139 q 275 13 272 28 q 290 83 278 28 q 317 199 301 139 l 444 681 q 452 693 447 692 q 483 694 457 694 l 285 -49 q 207 -217 253 -167 q 99 -268 161 -268 m 363 -187 q 339 -154 339 -186 q 365 -110 339 -110 q 390 -146 390 -110 q 384 -178 390 -168 q 363 -187 378 -187 z "},"ỳ":{"ha":536,"x_min":11,"x_max":483,"o":"m 99 -268 q 35 -261 60 -268 q 11 -242 11 -254 q 15 -228 11 -236 q 22 -218 18 -221 q 62 -231 39 -226 q 100 -235 85 -235 q 258 -22 204 -235 l 63 681 q 61 689 61 683 q 69 694 61 693 q 93 694 78 694 l 232 196 q 260 83 247 139 q 275 13 272 28 q 290 83 278 28 q 317 199 301 139 l 444 681 q 452 693 447 692 q 483 694 457 694 l 285 -49 q 207 -217 253 -167 q 99 -268 161 -268 m 360 804 q 235 897 293 850 q 163 957 178 943 q 169 976 164 963 q 181 989 174 989 q 258 928 199 976 q 374 826 317 881 l 360 804 z "},"ỷ":{"ha":536,"x_min":11,"x_max":483,"o":"m 99 -268 q 35 -261 60 -268 q 11 -242 11 -254 q 15 -228 11 -236 q 22 -218 18 -221 q 62 -231 39 -226 q 100 -235 85 -235 q 258 -22 204 -235 l 63 681 q 61 689 61 683 q 69 694 61 693 q 93 694 78 694 l 232 196 q 260 83 247 139 q 275 13 272 28 q 290 83 278 28 q 317 199 301 139 l 444 681 q 452 693 447 692 q 483 694 457 694 l 285 -49 q 207 -217 253 -167 q 99 -268 161 -268 m 246 771 q 245 776 246 772 q 244 785 244 779 q 249 806 244 799 q 274 831 256 819 q 296 850 289 840 q 303 881 303 860 q 247 939 303 939 q 193 922 215 939 l 193 956 q 209 968 193 961 q 246 975 225 975 q 342 881 342 975 q 328 836 342 851 q 301 812 315 821 q 282 800 286 803 q 274 785 276 794 q 272 772 272 775 q 257 769 269 769 l 246 771 z "},"ỹ":{"ha":536,"x_min":11,"x_max":483,"o":"m 99 -268 q 35 -261 60 -268 q 11 -242 11 -254 q 15 -228 11 -236 q 22 -218 18 -221 q 62 -231 39 -226 q 100 -235 85 -235 q 258 -22 204 -235 l 63 681 q 61 689 61 683 q 69 694 61 693 q 93 694 78 694 l 232 196 q 260 83 247 139 q 275 13 272 28 q 290 83 278 28 q 317 199 301 139 l 444 681 q 452 693 447 692 q 483 694 457 694 l 285 -49 q 207 -217 253 -167 q 99 -268 161 -268 m 335 825 q 283 838 303 825 q 242 875 263 851 q 217 899 226 892 q 193 907 207 907 q 149 892 167 907 q 117 855 132 876 q 99 833 103 833 q 85 842 93 833 q 76 853 78 850 q 134 919 107 903 q 201 936 161 936 q 238 926 224 936 q 269 897 253 917 q 299 869 285 879 q 335 860 314 860 q 391 876 371 860 q 423 913 411 893 q 439 932 435 932 q 453 923 447 932 q 460 911 458 914 q 413 849 440 872 q 335 825 386 825 z "},"z":{"ha":553,"x_min":56,"x_max":497,"o":"m 61 0 q 58 6 60 1 q 56 18 56 11 q 60 36 56 31 l 453 661 l 256 661 q 64 656 115 661 l 63 675 q 66 689 63 683 q 75 694 69 694 l 492 694 q 495 690 493 693 q 497 681 497 686 q 492 658 497 668 l 96 33 l 303 33 q 494 40 436 33 l 494 21 q 492 5 494 10 q 482 0 489 0 l 61 0 z "},"ź":{"ha":553,"x_min":56,"x_max":497,"o":"m 61 0 q 58 6 60 1 q 56 18 56 11 q 60 36 56 31 l 453 661 l 256 661 q 64 656 115 661 l 63 675 q 66 689 63 683 q 75 694 69 694 l 492 694 q 495 690 493 693 q 497 681 497 686 q 492 658 497 668 l 96 33 l 303 33 q 494 40 436 33 l 494 21 q 492 5 494 10 q 482 0 489 0 l 61 0 m 171 826 q 287 928 228 881 q 364 989 346 976 q 376 976 371 989 q 382 957 381 963 q 309 897 367 943 q 185 804 251 850 l 171 826 z "},"ž":{"ha":553,"x_min":56,"x_max":497,"o":"m 61 0 q 58 6 60 1 q 56 18 56 11 q 60 36 56 31 l 453 661 l 256 661 q 64 656 115 661 l 63 675 q 66 689 63 683 q 75 694 69 694 l 492 694 q 495 690 493 693 q 497 681 497 686 q 492 658 497 668 l 96 33 l 303 33 q 494 40 436 33 l 494 21 q 492 5 494 10 q 482 0 489 0 l 61 0 m 288 814 q 208 882 276 814 q 117 975 140 950 q 125 986 118 978 q 140 994 132 994 q 206 933 147 994 q 286 849 265 871 q 369 946 331 903 q 419 1003 407 989 q 436 981 436 990 q 367 892 436 971 q 288 814 299 814 z "},"ż":{"ha":553,"x_min":56,"x_max":497,"o":"m 61 0 q 58 6 60 1 q 56 18 56 11 q 60 36 56 31 l 453 661 l 256 661 q 64 656 115 661 l 63 675 q 66 689 63 683 q 75 694 69 694 l 492 694 q 495 690 493 693 q 497 681 497 686 q 492 658 497 668 l 96 33 l 303 33 q 494 40 436 33 l 494 21 q 492 5 494 10 q 482 0 489 0 l 61 0 m 275 853 q 251 886 251 854 q 278 931 251 931 q 303 894 303 931 q 297 863 303 874 q 275 853 290 853 z "},"ﬁ":{"ha":542,"x_min":15,"x_max":469,"o":"m 133 661 l 15 661 q 17 690 15 685 q 29 694 19 694 l 133 694 l 133 788 q 166 946 133 893 q 244 1013 199 999 q 351 1028 290 1028 q 436 1019 403 1028 q 469 997 469 1010 q 464 976 469 990 q 349 994 410 994 q 259 981 297 994 q 194 921 221 968 q 167 782 167 874 l 167 694 l 308 694 q 306 666 308 671 q 294 661 304 661 l 167 661 l 167 14 q 164 6 167 11 q 153 0 161 0 l 133 0 l 133 661 m 413 674 q 419 692 413 689 q 446 694 425 694 l 446 14 l 446 11 q 442 1 446 3 q 413 0 438 0 l 413 674 z "},"ﬂ":{"ha":556,"x_min":14,"x_max":458,"o":"m 326 1025 q 458 997 403 1025 l 458 14 q 456 6 458 11 q 444 0 453 0 l 425 0 l 425 975 q 324 992 381 992 q 248 981 281 992 q 190 924 215 969 q 165 782 165 878 l 165 694 l 335 694 q 333 666 335 671 q 321 661 331 661 l 165 661 l 165 14 q 163 6 165 11 q 151 0 160 0 l 132 0 l 132 661 l 14 661 q 16 690 14 685 q 28 694 18 694 l 132 694 l 132 788 q 163 945 132 893 q 235 1011 194 997 q 326 1025 276 1025 z "},"ª":{"ha":485,"x_min":83,"x_max":401,"o":"m 240 401 q 125 434 167 401 q 83 565 83 467 q 129 697 83 664 q 260 729 175 729 q 368 713 315 729 l 368 854 q 335 933 368 914 q 250 953 303 953 q 165 941 204 953 q 100 914 126 929 q 90 935 90 921 q 94 946 90 944 q 162 974 119 963 q 261 986 204 986 q 362 958 322 986 q 401 861 401 931 l 401 440 q 336 415 382 428 q 240 401 290 401 m 250 433 q 317 442 282 433 q 368 460 351 450 l 368 679 q 317 691 346 686 q 268 696 288 696 q 184 688 215 696 q 134 651 153 681 q 115 560 115 621 q 151 459 115 485 q 250 433 186 433 z "},"º":{"ha":500,"x_min":69,"x_max":431,"o":"m 244 403 q 150 426 188 403 q 91 512 113 449 q 69 692 69 575 q 121 914 69 842 q 258 986 172 986 q 356 960 318 986 q 412 869 393 933 q 431 692 431 806 q 383 475 431 547 q 244 403 335 403 m 244 436 q 358 503 318 436 q 399 697 399 569 q 365 897 399 842 q 261 953 331 953 q 144 890 185 953 q 103 685 103 828 q 138 490 103 543 q 244 436 172 436 z "},"А":{"ha":606,"x_min":14,"x_max":592,"o":"m 592 7 q 579 -1 592 -1 q 557 0 564 -1 l 474 294 l 132 294 l 53 8 q 47 0 51 1 q 33 -1 43 -1 l 14 0 l 292 976 q 299 979 292 979 q 311 976 308 979 l 590 14 l 592 7 m 464 328 l 372 653 q 301 929 304 901 q 231 653 297 896 l 140 328 l 464 328 z "},"Б":{"ha":568,"x_min":94,"x_max":510,"o":"m 94 958 q 97 967 94 963 q 108 972 100 972 l 465 972 q 465 947 465 956 q 458 939 464 939 l 128 939 l 128 551 l 272 551 q 453 492 396 551 q 510 307 510 433 q 442 83 510 165 q 249 0 375 0 l 94 0 l 94 958 m 243 33 q 418 106 360 33 q 476 304 476 179 q 427 467 476 415 q 268 518 378 518 l 128 518 l 128 33 l 243 33 z "},"В":{"ha":569,"x_min":94,"x_max":528,"o":"m 94 950 q 101 967 94 961 q 128 972 108 972 l 268 972 q 431 927 364 972 q 499 764 499 882 q 456 597 499 647 q 357 538 413 546 q 473 492 418 536 q 528 332 528 447 q 441 61 528 122 q 257 0 354 0 l 94 0 l 94 950 m 274 549 q 413 597 361 549 q 465 763 465 644 q 408 901 465 861 q 261 940 350 940 l 128 940 l 128 549 l 274 549 m 256 33 q 427 99 360 33 q 494 329 494 164 q 464 453 494 413 q 385 505 433 494 q 254 515 336 515 l 128 515 l 128 33 l 256 33 z "},"Г":{"ha":442,"x_min":94,"x_max":414,"o":"m 94 958 q 97 967 94 963 q 108 972 100 972 l 414 972 q 413 947 414 956 q 407 939 413 939 l 128 939 l 128 14 q 125 6 128 11 q 114 0 122 0 l 94 0 l 94 958 z "},"Ѓ":{"ha":442,"x_min":94,"x_max":414,"o":"m 94 958 q 97 967 94 963 q 108 972 100 972 l 414 972 q 413 947 414 956 q 407 939 413 939 l 128 939 l 128 14 q 125 6 128 11 q 114 0 122 0 l 94 0 l 94 958 m 201 1104 q 317 1206 258 1158 q 394 1267 376 1254 q 406 1253 401 1267 q 413 1235 411 1240 q 340 1174 397 1221 q 215 1082 282 1128 l 201 1104 z "},"Ґ":{"ha":442,"x_min":94,"x_max":414,"o":"m 94 958 q 97 967 94 963 q 108 972 100 972 l 378 972 q 390 1122 381 1057 q 414 1113 414 1122 l 414 972 q 413 947 414 956 q 407 939 413 939 l 128 939 l 128 14 q 125 6 128 11 q 114 0 122 0 l 94 0 l 94 958 z "},"Д":{"ha":649,"x_min":25,"x_max":600,"o":"m 47 -222 q 25 -214 25 -222 l 25 33 l 42 33 q 117 95 88 33 q 172 357 147 157 q 215 958 196 557 q 220 970 215 968 q 250 972 225 972 l 531 972 l 531 33 l 600 33 l 600 -214 q 578 -222 600 -222 q 564 0 564 -133 l 61 0 q 47 -222 61 -133 m 497 33 l 497 939 l 247 939 q 206 418 225 603 q 165 146 188 233 q 111 33 143 58 l 497 33 z "},"Е":{"ha":496,"x_min":99,"x_max":447,"o":"m 447 33 q 446 6 447 11 q 436 0 444 0 l 99 0 l 99 958 q 101 967 99 963 q 113 972 104 972 l 444 972 q 443 944 444 950 q 436 939 442 939 l 132 939 l 132 550 l 417 550 q 415 522 417 528 q 406 517 414 517 l 132 517 l 132 33 l 447 33 z "},"Ѐ":{"ha":496,"x_min":99,"x_max":447,"o":"m 447 33 q 446 6 447 11 q 436 0 444 0 l 99 0 l 99 958 q 101 967 99 963 q 113 972 104 972 l 444 972 q 443 944 444 950 q 436 939 442 939 l 132 939 l 132 550 l 417 550 q 415 522 417 528 q 406 517 414 517 l 132 517 l 132 33 l 447 33 m 365 1082 q 241 1174 299 1128 q 168 1235 183 1221 q 174 1253 169 1240 q 186 1267 179 1267 q 263 1206 204 1254 q 379 1104 322 1158 l 365 1082 z "},"Ё":{"ha":496,"x_min":99,"x_max":447,"o":"m 447 33 q 446 6 447 11 q 436 0 444 0 l 99 0 l 99 958 q 101 967 99 963 q 113 972 104 972 l 444 972 q 443 944 444 950 q 436 939 442 939 l 132 939 l 132 550 l 417 550 q 415 522 417 528 q 406 517 414 517 l 132 517 l 132 33 l 447 33 m 203 1131 q 179 1164 179 1132 q 206 1208 179 1208 q 231 1172 231 1208 q 224 1141 231 1151 q 203 1131 218 1131 m 342 1131 q 318 1164 318 1132 q 344 1208 318 1208 q 369 1172 369 1208 q 363 1141 369 1151 q 342 1131 357 1131 z "},"Ж":{"ha":908,"x_min":53,"x_max":853,"o":"m 71 -1 q 57 18 53 -1 l 135 324 q 185 440 153 392 q 263 513 218 489 q 208 563 233 529 q 167 646 182 597 l 74 951 q 68 967 68 965 q 81 972 68 972 q 101 971 94 972 l 197 654 q 248 561 215 593 q 319 529 281 529 l 438 529 l 438 958 q 442 971 438 969 q 472 972 446 972 l 472 529 l 589 529 q 660 561 628 529 q 711 654 693 593 l 807 971 q 828 972 814 972 q 840 967 840 972 q 835 951 840 965 l 742 646 q 701 563 726 597 q 646 513 675 529 q 723 440 690 489 q 774 324 756 392 l 851 18 l 853 11 q 838 -1 853 -1 q 819 0 826 -1 l 740 308 q 675 444 718 392 q 585 496 632 496 l 472 496 l 472 14 q 468 2 472 4 q 438 0 464 0 l 438 496 l 324 496 q 233 444 276 496 q 168 308 190 392 l 89 0 q 71 -1 83 -1 z "}}}
